<svg xmlns="http://www.w3.org/2000/svg" xmlns:xlink="http://www.w3.org/1999/xlink" width="19.254" height="25.384" viewBox="0 0 19.254 25.384">
  <defs>
    <clipPath id="clip-path">
      <rect id="Rectangle_9348" data-name="Rectangle 9348" width="19.254" height="25.384" fill="none"/>
    </clipPath>
  </defs>
  <g id="Group_22108" data-name="Group 22108" clip-path="url(#clip-path)">
    <path id="Path_16120" data-name="Path 16120" d="M47.872,23.665c0-.116.01-.231.01-.347q0-9.58,0-19.16c0-.116.006-.232.009-.347a.654.654,0,0,1,.411-.084h2.46a2.9,2.9,0,0,0,.321-.009c.325-.036.46-.175.463-.5.006-.847,0-1.694,0-2.541A4.328,4.328,0,0,1,51.58.063c.079-.089.184-.053.277-.053,4.326,0,8.653,0,12.979-.01a1.038,1.038,0,0,1,.991,1q-.019,11.267-.009,22.533c0,.443-.126.567-.574.568l-1.311,0a.472.472,0,0,1-.355.081q-7.546,0-15.092,0a.953.953,0,0,1-.343-.045.385.385,0,0,1-.271-.473" transform="translate(-46.573 0)" fill="#ededed"/>
    <path id="Path_16122" data-name="Path 16122" d="M52.03,1.057c.088.079.051.184.052.277q0,1.444,0,2.888c0,.394-.181.579-.586.58-1.052,0-2.1,0-3.155,0a3.617,3.617,0,0,1,.575-.617c.358-.37.727-.728,1.089-1.094.059-.06.151-.1.141-.212a.445.445,0,0,0,.142-.063q.873-.878,1.741-1.761" transform="translate(-47.023 -0.994)" fill="#e5e4e2"/>
    <path id="Path_16123" data-name="Path 16123" d="M79.324,104.117h6.958c.436,0,.612.175.612.617q0,6.932,0,13.863c0,.441-.177.616-.613.616H82.749c-.419,0-.6-.171-.615-.6-.01-.339-.019-.679,0-1.017.016-.252-.107-.265-.3-.265q-4.014.007-8.029,0c-.482,0-.963,0-1.445,0-.437,0-.612-.179-.613-.621q0-5.995,0-11.99c0-.44.177-.611.618-.611h6.958" transform="translate(-69.042 -97.952)" fill="#d1d0cf"/>
    <path id="Path_16124" data-name="Path 16124" d="M161.742,40.825c-.712,0-1.425,0-2.137,0-.179,0-.248-.043-.25-.237-.006-.729-.013-.729.716-.729,1.256,0,2.511,0,3.767,0,.214,0,.294.047.291.278-.009.689,0,.689-.677.689h-1.71" transform="translate(-151.462 -37.497)" fill="#d1d0d0"/>
    <path id="Path_16125" data-name="Path 16125" d="M177.057,72.5c-.392,0-.783-.006-1.175,0-.169,0-.247-.042-.234-.224a3.992,3.992,0,0,0,0-.534c-.011-.168.062-.212.219-.211.8.006,1.6.007,2.4,0,.185,0,.219.073.221.237.01.729.014.729-.714.729h-.721" transform="translate(-166.791 -67.296)" fill="#d1d0d0"/>
    <path id="Path_16126" data-name="Path 16126" d="M81.213,350.938c.392,0,.783.006,1.175,0,.166,0,.234.039.237.222.016.744.022.744-.726.744-.623,0-1.246,0-1.869,0-.176,0-.25-.039-.251-.235-.007-.731-.014-.731.713-.731h.721" transform="translate(-76.597 -330.158)" fill="#d1d0d0"/>
    <path id="Path_16127" data-name="Path 16127" d="M94.49,121.376c-2.1,0-4.19,0-6.286,0-.23,0-.314-.05-.3-.294.02-.463.012-.927,0-1.391,0-.178.041-.25.237-.25q6.379.007,12.759,0c.2,0,.237.078.233.253-.009.472-.015.946,0,1.417.008.225-.08.264-.279.263q-3.183-.009-6.366,0" transform="translate(-84.239 -112.374)" fill="#ededed"/>
    <path id="Path_16128" data-name="Path 16128" d="M139.149,168.328c-1.007,0-2.014-.007-3.021.005-.228,0-.283-.071-.281-.289.009-.679,0-.68.687-.68,1.862,0,3.725,0,5.587,0,.229,0,.33.036.323.3-.018.666,0,.666-.676.666h-2.62" transform="translate(-129.347 -157.453)" fill="#ededed"/>
    <path id="Path_16129" data-name="Path 16129" d="M139.141,232.489c-1.007,0-2.014-.006-3.021,0-.217,0-.269-.068-.268-.274,0-.694,0-.694.7-.694,1.863,0,3.725,0,5.587-.006.251,0,.314.074.309.315-.014.653,0,.654-.66.654h-2.647" transform="translate(-129.352 -217.812)" fill="#ededed"/>
    <path id="Path_16130" data-name="Path 16130" d="M139.141,264.144c-1.007,0-2.014-.006-3.021,0-.217,0-.269-.068-.268-.274,0-.693,0-.693.7-.693,1.862,0,3.725,0,5.587-.006.252,0,.314.074.309.316-.014.653,0,.653-.66.653Z" transform="translate(-129.352 -247.595)" fill="#ededed"/>
    <path id="Path_16131" data-name="Path 16131" d="M139.134,200.8c-1.007,0-2.014,0-3.022,0-.2,0-.279-.047-.276-.266.007-.649,0-.649.638-.649,1.89,0,3.779,0,5.669,0,.216,0,.293.051.29.28-.01.636,0,.636-.625.636h-2.674" transform="translate(-129.337 -188.053)" fill="#ededed"/>
    <path id="Path_16132" data-name="Path 16132" d="M139.158,296.628c-1.016,0-2.032-.005-3.048,0-.2,0-.256-.062-.256-.259,0-.656-.005-.656.656-.656,1.881,0,3.762,0,5.642-.006.24,0,.3.067.3.3-.014.616,0,.616-.617.616h-2.674" transform="translate(-129.354 -278.205)" fill="#ededed"/>
    <path id="Path_16133" data-name="Path 16133" d="M264.784,168.371c-.4,0-.8,0-1.2,0-.146,0-.212-.043-.205-.2.009-.2.008-.392,0-.587-.006-.144.06-.183.193-.182q1.228,0,2.456,0c.133,0,.184.043.193.183.051.782.055.781-.715.781h-.721" transform="translate(-249.327 -157.494)" fill="#ededed"/>
    <path id="Path_16134" data-name="Path 16134" d="M264.5,231.584c.4,0,.8,0,1.2,0,.146,0,.212.043.205.2-.009.2-.008.392,0,.587.005.144-.061.182-.193.182q-1.228,0-2.456,0c-.134,0-.183-.043-.193-.183-.05-.781-.054-.781.715-.781h.721" transform="translate(-249.018 -217.872)" fill="#ededed"/>
    <path id="Path_16135" data-name="Path 16135" d="M264.743,264.156c-.4,0-.8-.007-1.2,0-.178,0-.224-.061-.227-.232-.012-.734-.017-.734.709-.734.623,0,1.246.009,1.869-.005.217,0,.269.068.268.274,0,.694,0,.694-.7.694h-.721" transform="translate(-249.265 -247.607)" fill="#ededed"/>
    <path id="Path_16136" data-name="Path 16136" d="M264.779,327.405c.392,0,.783.007,1.175,0,.177,0,.225.059.228.231.012.736.017.736-.708.736-.632,0-1.264-.006-1.9,0-.189,0-.24-.061-.242-.245-.005-.722-.011-.722.721-.722h.721" transform="translate(-249.288 -308.017)" fill="#ededed"/>
    <path id="Path_16137" data-name="Path 16137" d="M264.754,200.823c-.392,0-.784-.007-1.175,0-.18,0-.248-.045-.249-.238,0-.677-.012-.677.661-.677.65,0,1.3,0,1.95,0,.169,0,.232.044.235.224.013.69.019.69-.674.69h-.748" transform="translate(-249.282 -188.073)" fill="#ededed"/>
    <path id="Path_16138" data-name="Path 16138" d="M264.766,295.771c.4,0,.8,0,1.2,0,.145,0,.2.043.208.2.035.717.039.717-.674.717-.641,0-1.282-.005-1.923,0-.18,0-.248-.045-.249-.238,0-.677-.012-.677.661-.677h.775" transform="translate(-249.282 -278.258)" fill="#ededed"/>
    <path id="Path_16139" data-name="Path 16139" d="M88.812,167.416c.249,0,.5,0,.747,0,.124,0,.178.046.175.172,0,.2-.007.409,0,.614.005.145-.064.181-.194.18q-.747-.006-1.494,0c-.136,0-.2-.046-.187-.186a.192.192,0,0,0,0-.027c-.031-.752-.031-.752.713-.752h.24" transform="translate(-84.191 -157.502)" fill="#ededed"/>
    <path id="Path_16140" data-name="Path 16140" d="M88.856,232.533c-.24,0-.481-.009-.72,0-.18.009-.223-.063-.226-.233-.011-.733-.016-.733.709-.733.311,0,.623.007.934,0,.164,0,.236.034.24.219.017.747.023.747-.723.747h-.213" transform="translate(-84.246 -217.858)" fill="#ededed"/>
    <path id="Path_16141" data-name="Path 16141" d="M88.9,264.215c-.24,0-.48-.006-.72,0-.145,0-.213-.042-.206-.2.009-.2.008-.391,0-.587-.005-.143.059-.184.192-.183q.747.006,1.494,0c.133,0,.184.042.193.182.052.782.056.782-.713.782H88.9" transform="translate(-84.305 -247.666)" fill="#ededec"/>
    <path id="Path_16142" data-name="Path 16142" d="M88.807,200.726c-.24,0-.481-.008-.721,0-.167.008-.209-.06-.213-.218-.019-.7-.023-.7.667-.7.338,0,.678-.025,1.014.007.4.037.143.36.185.545.028.122.123.366-.184.36-.249,0-.5,0-.747,0" transform="translate(-84.209 -187.976)" fill="#ededed"/>
    <path id="Path_16143" data-name="Path 16143" d="M88.747,295.778c.249,0,.5,0,.747,0,.139,0,.18.053.188.188.043.725.047.725-.664.725-.338,0-.676-.005-1.014,0-.151,0-.2-.054-.2-.2-.03-.712-.034-.711.678-.711h.267" transform="translate(-84.137 -278.266)" fill="#ededed"/>
  </g>
</svg>
