<svg id="Group_22349" data-name="Group 22349" xmlns="http://www.w3.org/2000/svg" width="15.235" height="21.87" viewBox="0 0 15.235 21.87">
  <path id="Path_16166" data-name="Path 16166" d="M588.26,139.143c-1.408,0-2.816.018-4.223,0a3.542,3.542,0,0,1-1.774-.584,3.706,3.706,0,0,1-1.526-2.235,3,3,0,0,1-.087-.659q0-4.494,0-8.988c0-.193.057-.234.239-.231.633.008,1.266,0,1.9-.005a.529.529,0,0,1,.4-.1c.6,0,1.2-.005,1.807.006.988-.014,1.975-.007,2.962,0a.446.446,0,0,1,.329.081.355.355,0,0,1,.091.271q.014,1.2,0,2.409a.392.392,0,0,1-.046.206c-.075.137-.215.141-.345.167a1.836,1.836,0,0,0-1.533,1.389,1.707,1.707,0,0,0,.564,1.859,1.035,1.035,0,0,1,.4.923c-.022.774-.009,1.55-.006,2.324,0,.31.026.325.338.34.2.009.418-.06.571.139a.533.533,0,0,1,.056.284q.008,1.038,0,2.076a.369.369,0,0,1-.115.338" transform="translate(-580.645 -117.286)" fill="#ffb220"/>
  <path id="Path_16167" data-name="Path 16167" d="M685.1,2.415a5.73,5.73,0,0,1,.884,2.346,7.112,7.112,0,0,1,.038.907c.006,1.15,0,2.3,0,3.451a.259.259,0,0,1-.232.1c-.6.01-1.2.014-1.8,0a.311.311,0,0,1-.151-.041c-.157-.109-.14-.277-.14-.435,0-1.114,0-2.228,0-3.342A3.133,3.133,0,0,0,681.06,2.36a3.653,3.653,0,0,0-.53-.051.289.289,0,0,1-.261-.1,4.332,4.332,0,0,0,.155-1.842.174.174,0,0,0-.154-.188c-.086-.019-.177-.032-.218-.129a4.9,4.9,0,0,1,2.651.4,5.555,5.555,0,0,1,2.4,1.974" transform="translate(-672.932 0.001)" fill="#dfdad4"/>
  <path id="Path_16168" data-name="Path 16168" d="M615.478.645c.5.033.5.033.5.535,0,.408-.014.816.006,1.223.011.221-.046.352-.272.386-.074.138-.216.145-.344.171a3.213,3.213,0,0,0-2.554,2.886c-.088,1.165-.016,2.331-.045,3.5,0,.14.029.289-.087.4l-2.18.005c0-1.312-.007-2.625.014-3.937a5.461,5.461,0,0,1,4.967-5.17" transform="translate(-608.359 -0.598)" fill="#f2efeb"/>
  <path id="Path_16169" data-name="Path 16169" d="M690.184,125.709c.734.024,1.468.026,2.2,0,.633.006,1.267.019,1.9.014.185,0,.239.048.238.237-.008,3.062.021,6.124-.023,9.185a3.493,3.493,0,0,1-2.333,3.09,3.339,3.339,0,0,1-1.22.223c-1.348-.01-2.7-.009-4.043-.012q0-1.361,0-2.721l.023-.038c.167-.128.361-.068.544-.076.31-.014.338-.032.34-.34,0-.848.008-1.7,0-2.545a.732.732,0,0,1,.311-.639,1.895,1.895,0,0,0-1-3.327.33.33,0,0,1-.175-.058.122.122,0,0,1-.044-.075q0-1.435,0-2.871c.021-.158.146-.162.26-.164.913-.013,1.825-.01,2.738,0a.352.352,0,0,1,.282.123" transform="translate(-679.291 -116.586)" fill="#f3900b"/>
  <path id="Path_16170" data-name="Path 16170" d="M660.97,175.183c-.24-.006-.481-.026-.72-.014-.2.01-.261-.05-.259-.254.01-.945,0-1.891.006-2.836a.355.355,0,0,0-.157-.335,2,2,0,0,1,1.049-3.643.605.605,0,0,0,.078-.016l.005.025c.148.121.116.291.117.448q.006,2.3,0,4.6c0,.544,0,1.089,0,1.633,0,.131.02.274-.118.362v.027" transform="translate(-653.359 -156.046)" fill="#514453"/>
  <path id="Path_16171" data-name="Path 16171" d="M686.932,175.45q0-3.524,0-7.047a1.946,1.946,0,0,1,1.873,1.25,1.979,1.979,0,0,1-.584,2.271.665.665,0,0,0-.294.619c.017.883,0,1.767.011,2.65,0,.227-.069.3-.288.28-.239-.021-.48-.016-.72-.022" transform="translate(-679.32 -156.34)" fill="#39303a"/>
</svg>
