<svg id="Group_21901" data-name="Group 21901" xmlns="http://www.w3.org/2000/svg" xmlns:xlink="http://www.w3.org/1999/xlink" width="11.293" height="11.299" viewBox="0 0 11.293 11.299">
  <defs>
    <clipPath id="clip-path">
      <rect id="Rectangle_9280" data-name="Rectangle 9280" width="11.293" height="11.299" fill="#e01b22"/>
    </clipPath>
  </defs>
  <g id="Group_21898" data-name="Group 21898">
    <path id="Path_16065" data-name="Path 16065" d="M93.64,80.912c-.592-.737-1.178-1.465-1.761-2.2a.574.574,0,0,1-.118-.223.325.325,0,0,1,.192-.365.34.34,0,0,1,.419.112q.4.488.787.978l.921,1.147c.086-.106.167-.2.247-.3L95.78,78.25a.344.344,0,1,1,.534.429q-.876,1.095-1.756,2.187l-.036.048.4.5q.694.865,1.389,1.729a.342.342,0,0,1-.153.573.332.332,0,0,1-.372-.133l-1.264-1.574-.441-.547-.521.647-1.169,1.455a.345.345,0,0,1-.511.09.351.351,0,0,1-.022-.52l1.734-2.159.049-.063" transform="translate(-88.426 -75.265)" fill="#e01b22"/>
    <g id="Group_21899" data-name="Group 21899">
      <g id="Group_21898-2" data-name="Group 21898" clip-path="url(#clip-path)">
        <path id="Path_16066" data-name="Path 16066" d="M5.252,0h.794c.068.009.137.02.205.027A5.387,5.387,0,0,1,8.969,1.081a5.522,5.522,0,0,1,2.25,5.494A5.3,5.3,0,0,1,9.48,9.8a5.524,5.524,0,0,1-4.614,1.446A5.376,5.376,0,0,1,2.121,10.06,5.565,5.565,0,0,1,.088,6.644c-.036-.2-.059-.4-.088-.6V5.251C.016,5.125.031,5,.049,4.871A5.564,5.564,0,0,1,1.367,1.965,5.545,5.545,0,0,1,4.666.086C4.861.051,5.057.028,5.252,0m.4.64a5.01,5.01,0,1,0,5,5.014,5.019,5.019,0,0,0-5-5.014" transform="translate(0 0.001)" fill="#e01b22"/>
      </g>
    </g>
  </g>
</svg>
