<svg id="Group_22176" data-name="Group 22176" xmlns="http://www.w3.org/2000/svg" xmlns:xlink="http://www.w3.org/1999/xlink" width="15.97" height="15.97" viewBox="0 0 15.97 15.97">
  <defs>
    <clipPath id="clip-path">
      <rect id="Rectangle_9281" data-name="Rectangle 9281" width="15.97" height="15.97" fill="#28af00"/>
    </clipPath>
  </defs>
  <g id="Group_21904" data-name="Group 21904" clip-path="url(#clip-path)">
    <path id="Path_16068" data-name="Path 16068" d="M7.425,0H8.548c.256.035.514.062.768.106a7.69,7.69,0,0,1,3.875,1.833,7.774,7.774,0,0,1,2.67,7.344,7.627,7.627,0,0,1-3,5.019A7.771,7.771,0,0,1,6.883,15.89a7.7,7.7,0,0,1-4.19-1.937A7.858,7.858,0,0,1,.125,9.388C.074,9.109.041,8.825,0,8.544V7.421c.035-.256.063-.513.108-.768A7.869,7.869,0,0,1,2.283,2.4,7.833,7.833,0,0,1,6.582.124c.28-.05.562-.084.843-.125M8,1a6.986,6.986,0,1,0,6.978,7A7.006,7.006,0,0,0,8,1" transform="translate(0 0.001)" fill="#28af00"/>
    <path id="Path_16069" data-name="Path 16069" d="M98.3,124.5l1.3-1.3q1.648-1.648,3.3-3.295a.5.5,0,0,1,.734-.046.5.5,0,0,1,.045.677,1.824,1.824,0,0,1-.129.135l-4.817,4.816a.521.521,0,0,1-.868,0q-.948-.947-1.9-1.9a.5.5,0,0,1,.185-.85.5.5,0,0,1,.536.156q.747.752,1.5,1.5c.033.033.067.063.114.108" transform="translate(-91.804 -114.731)" fill="#28af00"/>
  </g>
</svg>
