<svg id="Group_21909" data-name="Group 21909" xmlns="http://www.w3.org/2000/svg" xmlns:xlink="http://www.w3.org/1999/xlink" width="11.295" height="11.299" viewBox="0 0 11.295 11.299">
  <defs>
    <clipPath id="clip-path">
      <rect id="Rectangle_9281" data-name="Rectangle 9281" width="11.295" height="11.299" fill="#28af00"/>
    </clipPath>
  </defs>
  <g id="Group_21904" data-name="Group 21904" clip-path="url(#clip-path)">
    <path id="Path_16068" data-name="Path 16068" d="M5.251,0h.794c.181.025.363.044.543.075a5.438,5.438,0,0,1,2.741,1.3,5.5,5.5,0,0,1,1.888,5.2,5.4,5.4,0,0,1-2.125,3.551,5.5,5.5,0,0,1-4.225,1.125A5.442,5.442,0,0,1,1.9,9.872,5.56,5.56,0,0,1,.088,6.642c-.036-.2-.059-.4-.088-.6V5.25c.025-.181.045-.363.076-.543A5.568,5.568,0,0,1,1.614,1.7,5.539,5.539,0,0,1,4.655.088c.2-.035.4-.059.6-.089m.4.706A4.943,4.943,0,1,0,10.591,5.66,4.956,4.956,0,0,0,5.656.7" transform="translate(0 0.001)" fill="#28af00"/>
    <path id="Path_16069" data-name="Path 16069" d="M97.565,123.1l.919-.921,2.331-2.331a.356.356,0,0,1,.519-.033.351.351,0,0,1,.032.479,1.292,1.292,0,0,1-.091.1L97.869,123.8a.369.369,0,0,1-.614,0q-.671-.67-1.34-1.341a.352.352,0,0,1,.131-.6.356.356,0,0,1,.379.11q.528.532,1.06,1.061c.023.023.047.045.081.076" transform="translate(-92.972 -116.19)" fill="#28af00"/>
  </g>
</svg>
