<svg id="Group_22685" data-name="Group 22685" xmlns="http://www.w3.org/2000/svg" width="779.617" height="779.617" viewBox="0 0 779.617 779.617">
  <g id="Group_22684" data-name="Group 22684">
    <path id="Path_35370" data-name="Path 35370" d="M779.617,389.808c0,215.286-174.523,389.808-389.808,389.808A389.628,389.628,0,0,1,0,389.808C0,174.523,174.523,0,389.808,0A389.867,389.867,0,0,1,779.617,389.808Z" fill="#f0cd00"/>
    <path id="Path_35371" data-name="Path 35371" d="M768.836,389.708c0,210.433-166.727,381.917-375.3,389.538-208.571-7.621-375.3-179.1-375.3-389.538S184.967,7.791,393.538.17C602.109,7.791,768.836,179.275,768.836,389.708Z" transform="translate(10.781 0.1)" fill="#ffde50"/>
    <path id="Path_35372" data-name="Path 35372" d="M633.805,83.04,83.03,633.816A391.48,391.48,0,0,1,33.66,567.23L567.236,33.67a389.67,389.67,0,0,1,66.569,49.37Z" transform="translate(19.895 19.901)" fill="#ffea94"/>
    <path id="Path_35373" data-name="Path 35373" d="M697.53,192.1,192.083,697.546A389.281,389.281,0,0,1,93.39,640.841L640.84,93.391A388.579,388.579,0,0,1,697.53,192.1Z" transform="translate(55.199 55.198)" fill="#ffea94"/>
    <path id="Path_35374" data-name="Path 35374" d="M660.43,357.525c0,167.284-135.621,302.9-302.9,302.9A302.6,302.6,0,0,1,54.652,361.248c-.032-1.241-.032-2.481-.032-3.723C54.62,190.241,190.226,54.62,357.525,54.62c1.241,0,2.5,0,3.739.032a301.493,301.493,0,0,1,170.752,55.241,304.92,304.92,0,0,1,83.45,88.765A301.436,301.436,0,0,1,660.43,357.525Z" transform="translate(32.283 32.283)" fill="#faa300"/>
    <path id="Path_35375" data-name="Path 35375" d="M571.7,143.337,143.337,571.7A301.806,301.806,0,0,1,54.652,361.248c-.032-1.241-.032-2.481-.032-3.723,0-167.283,135.606-302.9,302.905-302.9,1.241,0,2.5,0,3.739.032a301.493,301.493,0,0,1,170.752,55.241A305.683,305.683,0,0,1,571.7,143.337Z" transform="translate(32.284 32.283)" fill="#ffbd00"/>
    <path id="Path_35376" data-name="Path 35376" d="M554.253,357.525c0,167.283-135.621,302.905-302.905,302.905q-8.615,0-17.1-.477C393.572,651.091,520.03,519.065,520.03,357.525S393.572,63.96,234.244,55.1q8.5-.477,17.1-.477C418.632,54.62,554.253,190.241,554.253,357.525Z" transform="translate(138.453 32.284)" fill="#f68e00"/>
  </g>
</svg>
