<svg xmlns="http://www.w3.org/2000/svg" width="22.477" height="22.233" viewBox="0 0 22.477 22.233">
  <g id="svgexport-6_8_" data-name="svgexport-6 (8)" transform="translate(-2 -2.651)">
    <g id="Icon" transform="translate(2 2.651)">
      <path id="Path_22991" data-name="Path 22991" d="M26.755,23.6a5.545,5.545,0,0,0-8.468,7.091l-.718,1.974a.751.751,0,0,0,.7,1.006.76.76,0,0,0,.3-.062l2.182-.934A5.548,5.548,0,0,0,26.755,23.6Z" transform="translate(-11.567 -14.742)" fill="#1e88e5"/>
      <path id="Path_22992" data-name="Path 22992" d="M30.8,42.217a1.141,1.141,0,1,0-1.618,1.609,1.127,1.127,0,0,0,1.621,0,1.148,1.148,0,0,0,0-1.613Z" transform="translate(-18.79 -27.185)" fill="#eee"/>
      <path id="Path_22993" data-name="Path 22993" d="M30.5,26.458c-1.016-1.5-4.339-1.275-4.5.751a.852.852,0,0,0,.358.737.921.921,0,0,0,1.2-.036,2.125,2.125,0,0,0,.23-.327c.15-.169.142-.178.523-.2a.8.8,0,0,1,.436.106c.088.013.115.294.042.387a1.369,1.369,0,0,1-.412.419,2.331,2.331,0,0,0-1.1,2.047c0,.681.251,1.036.923,1.046.586.017.94-.284.963-.785a1.193,1.193,0,0,1,.112-.652c.22-.3.762-.624,1.024-1.01A2.059,2.059,0,0,0,30.5,26.458Z" transform="translate(-17.007 -16.931)" fill="#eee"/>
      <path id="Path_22994" data-name="Path 22994" d="M25.634,16.319a.374.374,0,0,1-.375-.375V14.08a8.211,8.211,0,0,0-8.2-8.2A7.843,7.843,0,0,0,11.33,8.236a8.345,8.345,0,0,0-2.474,5.951v1.757a.375.375,0,0,1-.749,0V14.191A9.1,9.1,0,0,1,10.8,7.7,8.626,8.626,0,0,1,17.064,5.13a8.959,8.959,0,0,1,8.945,8.951v1.864a.374.374,0,0,1-.375.375Z" transform="translate(-5.819 -4.201)" fill="#424242"/>
      <path id="Path_22995" data-name="Path 22995" d="M40.121,54.372H36.375a.375.375,0,0,1,0-.749h3.746a2.25,2.25,0,0,0,2.248-2.248.375.375,0,0,1,.749,0A3,3,0,0,1,40.121,54.372Z" transform="translate(-23.263 -32.888)" fill="#424242"/>
      <path id="Path_22996" data-name="Path 22996" d="M56.749,34H56v6.368h.749a1.5,1.5,0,0,0,1.5-1.5V35.5A1.5,1.5,0,0,0,56.749,34Z" transform="translate(-35.771 -22.256)" fill="#1e88e5"/>
      <rect id="Rectangle_16774" data-name="Rectangle 16774" width="2.997" height="7.867" rx="1.498" transform="translate(17.982 10.995)" fill="#ff8f00"/>
      <path id="Path_22997" data-name="Path 22997" d="M3.5,34A1.5,1.5,0,0,0,2,35.5V38.87a1.5,1.5,0,0,0,1.5,1.5h.749V34Z" transform="translate(-2 -22.256)" fill="#1e88e5"/>
      <rect id="Rectangle_16775" data-name="Rectangle 16775" width="2.997" height="7.867" rx="1.498" transform="translate(1.498 10.995)" fill="#ff8f00"/>
      <path id="Path_22998" data-name="Path 22998" d="M25.712,8.237a10.056,10.056,0,0,0-18-.026,1.515,1.515,0,0,0-.031,1.312,1.5,1.5,0,0,0,2.705.056,7.048,7.048,0,0,1,12.636,0,1.5,1.5,0,0,0,2.709-.062,1.479,1.479,0,0,0-.022-1.278Z" transform="translate(-5.47 -2.651)" fill="#ff8f00"/>
      <path id="Path_22999" data-name="Path 22999" d="M29.372,56H27.124a1.124,1.124,0,0,0,0,2.248h2.248a1.124,1.124,0,1,0,0-2.248Z" transform="translate(-17.009 -36.015)" fill="#1e88e5"/>
    </g>
  </g>
</svg>
