<svg id="Group_42422" data-name="Group 42422" xmlns="http://www.w3.org/2000/svg" xmlns:xlink="http://www.w3.org/1999/xlink" width="37.148" height="37.167" viewBox="0 0 37.148 37.167">
  <defs>
    <clipPath id="clip-path">
      <rect id="Rectangle_9280" data-name="Rectangle 9280" width="37.148" height="37.168" fill="#e01b22"/>
    </clipPath>
  </defs>
  <g id="Group_21898" data-name="Group 21898">
    <path id="Path_16065" data-name="Path 16065" d="M97.959,87.358c-1.948-2.424-3.877-4.819-5.794-7.222a1.889,1.889,0,0,1-.387-.735,1.07,1.07,0,0,1,.63-1.2,1.117,1.117,0,0,1,1.378.367q1.3,1.6,2.589,3.218L99.4,85.558c.284-.348.55-.671.812-1q2.393-2.979,4.785-5.96a1.131,1.131,0,1,1,1.756,1.412q-2.883,3.6-5.775,7.195c-.032.04-.062.082-.12.158.434.543.873,1.093,1.313,1.641q2.285,2.844,4.568,5.689a1.126,1.126,0,0,1-.5,1.886,1.092,1.092,0,0,1-1.224-.438q-2.08-2.588-4.157-5.177c-.473-.589-.947-1.176-1.45-1.8-.59.732-1.153,1.43-1.715,2.129L93.85,96.082a1.136,1.136,0,0,1-1.682.3,1.154,1.154,0,0,1-.072-1.71q2.849-3.553,5.7-7.1c.048-.059.093-.12.16-.207" transform="translate(-80.809 -68.781)" fill="#e01b22"/>
    <g id="Group_21899" data-name="Group 21899">
      <g id="Group_21898-2" data-name="Group 21898" clip-path="url(#clip-path)">
        <path id="Path_16066" data-name="Path 16066" d="M17.278,0h2.613c.225.03.45.064.676.09a17.72,17.72,0,0,1,8.938,3.47c5.969,4.572,8.47,10.639,7.4,18.074a17.434,17.434,0,0,1-5.724,10.6A18.172,18.172,0,0,1,16.006,36.99a17.685,17.685,0,0,1-9.029-3.9A18.306,18.306,0,0,1,.29,21.856C.17,21.205.1,20.546,0,19.89V17.277c.054-.417.1-.836.162-1.252A18.3,18.3,0,0,1,4.5,6.467,18.239,18.239,0,0,1,15.351.285C15.99.171,16.636.094,17.278,0m1.329,2.1A16.48,16.48,0,1,0,35.065,18.6,16.509,16.509,0,0,0,18.607,2.1" transform="translate(0 0.001)" fill="#e01b22"/>
      </g>
    </g>
  </g>
</svg>
