<svg xmlns="http://www.w3.org/2000/svg" xmlns:xlink="http://www.w3.org/1999/xlink" width="64.374" height="63.508" viewBox="0 0 64.374 63.508">
  <defs>
    <linearGradient id="linear-gradient" x1="0.041" y1="0.118" x2="0.93" y2="0.876" gradientUnits="objectBoundingBox">
      <stop offset="0" stop-color="#f5cf32"/>
      <stop offset="1" stop-color="#966e00"/>
    </linearGradient>
    <filter id="Path_24713" x="6.468" y="5.206" width="51.439" height="49.911" filterUnits="userSpaceOnUse">
      <feOffset input="SourceAlpha"/>
      <feGaussianBlur stdDeviation="3" result="blur"/>
      <feFlood flood-opacity="0.161"/>
      <feComposite operator="in" in2="blur"/>
      <feComposite in="SourceGraphic"/>
    </filter>
    <filter id="Path_24714" x="11.706" y="10.206" width="40.962" height="39.912" filterUnits="userSpaceOnUse">
      <feOffset input="SourceAlpha"/>
      <feGaussianBlur stdDeviation="3" result="blur-2"/>
      <feFlood flood-opacity="0.271"/>
      <feComposite operator="in" in2="blur-2"/>
      <feComposite in="SourceGraphic"/>
    </filter>
  </defs>
  <g id="Group_46837" data-name="Group 46837" transform="translate(-290.33 -100.249)">
    <g id="Group_46835" data-name="Group 46835" transform="translate(305.798 114.455)">
      <g transform="matrix(1, 0, 0, 1, -15.47, -14.21)" filter="url(#Path_24713)">
        <path id="Path_24713-2" data-name="Path 24713" d="M27.262,31.706,16.852,25.495,6.6,31.911,9.3,20.1,0,12.318l12.068-1.083L16.6,0,21.36,11.135l12.078.834-9.122,7.964Z" transform="translate(15.47 14.21)" fill-rule="evenodd" fill="url(#linear-gradient)"/>
      </g>
      <g transform="matrix(1, 0, 0, 1, -15.47, -14.21)" filter="url(#Path_24714)">
        <path id="Path_24714-2" data-name="Path 24714" d="M18.721,21.772l-7.149-4.265L4.529,21.912,6.388,13.8,0,8.458l8.287-.744L11.4,0l3.271,7.646,8.294.573L16.7,13.687Z" transform="translate(20.71 19.21)" fill="url(#linear-gradient)"/>
      </g>
    </g>
    <g id="Group_46836" data-name="Group 46836" transform="translate(290.33 100.249)">
      <g id="Path_24729" data-name="Path 24729" transform="translate(0 0)" fill="none">
        <path d="M32.187,0A31.973,31.973,0,0,1,64.374,31.754,31.973,31.973,0,0,1,32.187,63.508a34.434,34.434,0,0,1-4.2-.268A31.82,31.82,0,0,1,0,31.754,31.973,31.973,0,0,1,32.187,0Z" stroke="none"/>
        <path d="M 32.18723678588867 1.500003814697266 C 28.04131698608398 1.500003814697266 24.0203971862793 2.300651550292969 20.23614501953125 3.879711151123047 C 16.58155822753906 5.404670715332031 13.29940795898438 7.587760925292969 10.48086547851562 10.36836242675781 C 7.663745880126953 13.1475715637207 5.452335357666016 16.38307189941406 3.908065795898438 19.98500061035156 C 2.310188293457031 23.71196365356445 1.499996185302734 27.671630859375 1.499996185302734 31.75403213500977 C 1.499996185302734 39.18655395507812 4.254905700683594 46.34329986572266 9.257236480712891 51.90591430664062 C 14.20400619506836 57.40673065185547 20.91670608520508 60.90276336669922 28.16091537475586 61.75024032592773 C 29.66660690307617 61.92854309082031 30.90836715698242 62.00806045532227 32.18723678588867 62.00806045532227 C 36.33315658569336 62.00806045532227 40.35407638549805 61.20741271972656 44.13832855224609 59.62835311889648 C 47.79291534423828 58.1033935546875 51.07506561279297 55.92030334472656 53.89360809326172 53.13970184326172 C 56.71072769165039 50.36049270629883 58.92213821411133 47.12499237060547 60.46640777587891 43.52306365966797 C 62.06428527832031 39.79610443115234 62.87447738647461 35.83643341064453 62.87447738647461 31.75403213500977 C 62.87447738647461 27.671630859375 62.06428527832031 23.71196365356445 60.46640777587891 19.98500061035156 C 58.92213821411133 16.38307189941406 56.71072769165039 13.1475715637207 53.89360809326172 10.36836242675781 C 51.07506561279297 7.587760925292969 47.79291534423828 5.404670715332031 44.13832855224609 3.879711151123047 C 40.35407638549805 2.300651550292969 36.33315658569336 1.500003814697266 32.18723678588867 1.500003814697266 M 32.18723678588867 3.814697265625e-06 C 49.9637565612793 3.814697265625e-06 64.37447357177734 14.21676254272461 64.37447357177734 31.75403213500977 C 64.37447357177734 49.29130172729492 49.9637565612793 63.50806045532227 32.18723678588867 63.50806045532227 C 30.88954544067383 63.50806045532227 29.60980606079102 63.43230056762695 27.98451614379883 63.23983383178711 C 12.383544921875 61.41472244262695 0 48.01108169555664 0 31.75403213500977 C 0 14.21676254272461 14.41071701049805 3.814697265625e-06 32.18723678588867 3.814697265625e-06 Z" stroke="none" fill="#fff"/>
      </g>
      <g id="Ellipse_337" data-name="Ellipse 337" transform="translate(0 0)" fill="none" stroke="#aaa" stroke-width="1.5" stroke-dasharray="167 146">
        <ellipse cx="32.148" cy="31.754" rx="32.148" ry="31.754" stroke="none"/>
        <ellipse cx="32.148" cy="31.754" rx="31.398" ry="31.004" fill="none"/>
      </g>
    </g>
  </g>
</svg>
