<svg xmlns="http://www.w3.org/2000/svg" width="17.476" height="17.439" viewBox="0 0 17.476 17.439">
  <g id="Group_22606" data-name="Group 22606" opacity="0.999">
    <path id="Path_3242" data-name="Path 3242" d="M8.941,574.771a8.72,8.72,0,1,1,8.53-8.478,8.742,8.742,0,0,1-8.53,8.478m7.533-7.217a10.41,10.41,0,0,1-9.26-9.259,7.811,7.811,0,0,0-6.2,6.223,10.284,10.284,0,0,1,6.253,2.99,10.224,10.224,0,0,1,2.991,6.268,7.863,7.863,0,0,0,6.22-6.222m.143-.84a7.862,7.862,0,0,0-8.528-8.535,9.535,9.535,0,0,0,8.528,8.535m-7.247,7.23a9.5,9.5,0,0,0-8.538-8.581,7.835,7.835,0,0,0,2.016,5.927,7.888,7.888,0,0,0,6.522,2.654" transform="translate(0 -557.333)" fill="#39d37a"/>
  </g>
</svg>
