<svg id="Group_6896" data-name="Group 6896" xmlns="http://www.w3.org/2000/svg" width="18.344" height="18.351" viewBox="0 0 18.344 18.351">
  <path id="Path_3228" data-name="Path 3228" d="M890.924,985.176a2.165,2.165,0,0,1-1.486-.594q-.532-.506-1.039-1.038a2.189,2.189,0,0,1,.014-3.012c.522-.538,1.058-1.062,1.589-1.593l8.084-8.085c.29-.29.421-.294.722-.025a1.123,1.123,0,0,0,1.448.147,3.615,3.615,0,0,0,.631-.514c1.1-1.09,2.192-2.19,3.292-3.281a1.144,1.144,0,1,1,1.616,1.619q-1.3,1.3-2.6,2.6c-.3.3-.6.591-.891.9a1.582,1.582,0,0,0-.494.993,1.191,1.191,0,0,0,.352.889c.252.281.248.428-.02.7q-4.8,4.8-9.595,9.6a2.278,2.278,0,0,1-1.621.7m7.551-13.658c-.042.038-.08.069-.115.1q-4.681,4.681-9.36,9.363a1.452,1.452,0,0,0,0,2.124c.265.269.534.535.8.8a1.47,1.47,0,0,0,2.257,0q4.628-4.628,9.258-9.256a.964.964,0,0,1,.17-.111,1.974,1.974,0,0,1,.079-2.534l-.611-.61a1.939,1.939,0,0,1-2.482.115m3.654-.082q1.58-1.585,3.143-3.156a.487.487,0,0,0,.087-.119.394.394,0,0,0-.347-.582.633.633,0,0,0-.365.183c-1,.988-1.995,1.985-2.99,2.98-.038.038-.073.079-.107.116l.578.579" transform="translate(-887.805 -966.825)" fill="#a860e6"/>
  <path id="Path_3229" data-name="Path 3229" d="M891.248,972.628a2.933,2.933,0,1,1,2.929-2.931,2.932,2.932,0,0,1-2.929,2.931m1.038-1.019a4.234,4.234,0,0,1,0-3.826,2.092,2.092,0,0,0-2.088.008,4.223,4.223,0,0,1,0,3.816,2.087,2.087,0,0,0,2.088,0m-2.681-3.342a2.152,2.152,0,0,0,0,2.868,3.5,3.5,0,0,0,0-2.868m3.287.01a3.281,3.281,0,0,0,.013,2.839,2.15,2.15,0,0,0-.013-2.839" transform="translate(-888.283 -966.762)" fill="#a860e6"/>
</svg>
