<svg xmlns="http://www.w3.org/2000/svg" width="17.414" height="17.514" viewBox="0 0 17.414 17.514">
  <g id="Group_6893" data-name="Group 6893" transform="translate(0)">
    <path id="Path_3231" data-name="Path 3231" d="M1371.869,396.8a2,2,0,0,1,.254.328q1.141,2.337,2.267,4.682a.238.238,0,0,0,.256.161c.661-.007,1.322,0,1.983,0,.354,0,.472.118.472.47,0,.627.015,1.254-.009,1.88a.542.542,0,0,0,.191.463c.347.33.677.676,1.019,1.012a2.948,2.948,0,0,1,.909,2.14,2.786,2.786,0,0,1-.3,1.586c-.12.191-.28.356-.414.54a.425.425,0,0,0-.093.218c-.009.456,0,.912-.008,1.367a2.755,2.755,0,0,1-2.342,2.628,3.688,3.688,0,0,1-.476.033c-.877,0-1.755-.016-2.632.005a2.788,2.788,0,0,1-2.849-2.836q0-.65,0-1.3v-.167l-.028-.007c-.028.052-.057.1-.082.156-.167.355-.332.711-.5,1.065a1.678,1.678,0,0,1-2.163.953c-1.268-.436-2.531-.887-3.778-1.38a2.7,2.7,0,0,1-1.592-3.458c.417-1.238.876-2.462,1.338-3.684a3.928,3.928,0,0,1,1.941-2.138.524.524,0,0,1,.061-.031.54.54,0,0,0,.352-.425c.2-.675.454-1.333.7-1.993.081-.219.259-.275.51-.185.679.244,1.359.486,2.034.741a.215.215,0,0,0,.286-.076q1.068-1.223,2.145-2.438c.1-.109.206-.208.309-.311Zm-9.4,11.423a2.125,2.125,0,0,0,1.437,1.981q1.76.644,3.523,1.281a1.045,1.045,0,0,0,1.466-.6c.343-.731.677-1.465,1.031-2.19a1.758,1.758,0,0,0,.182-.817,4.048,4.048,0,0,1,.867-2.6.266.266,0,0,0,.036-.224c-.212-.5-.435-.987-.662-1.477-.016-.036-.085-.057-.132-.067a4.169,4.169,0,0,1-.563-.106q-1.406-.5-2.8-1.019c-.307-.114-.6-.261-.9-.39a.149.149,0,0,0-.108,0,3.3,3.3,0,0,0-1.839,1.785c-.492,1.265-.943,2.546-1.4,3.823a4.54,4.54,0,0,0-.132.63m15.279,2.325a.921.921,0,0,0-.105.015,3.188,3.188,0,0,1-1.4.084,1.677,1.677,0,0,1-.622-.205,1.448,1.448,0,0,1-.73-1.564,1.393,1.393,0,0,1,1.028-1.2,4.588,4.588,0,0,1,1.028-.1.351.351,0,0,1,.416.349c0,.207-.153.33-.41.337-.228.007-.457,0-.682.023a.847.847,0,0,0,.045,1.68,6.771,6.771,0,0,0,.751,0,1.526,1.526,0,0,0,1.43-1.306,6.222,6.222,0,0,0,.017-.837,1.988,1.988,0,0,0-.535-1.368c-.4-.435-.83-.846-1.251-1.263a.192.192,0,0,0-.144-.033,4.588,4.588,0,0,1-.616.1c-1.134.01-2.268.005-3.4,0a.854.854,0,0,1-.3-.024c-.244-.1-.39.017-.522.2-.057.078-.127.146-.188.221a2.99,2.99,0,0,0-.729,1.823c-.03,1.367-.029,2.736-.01,4.1a2.032,2.032,0,0,0,2.009,2.028c.957.025,1.915.022,2.872,0a2,2,0,0,0,1.962-1.617,10.383,10.383,0,0,0,.1-1.454m-4.041-8.58-2.037-4.208-1.914,2.175c.565.205,1.109.4,1.653.6a.37.37,0,0,1,.259.558c-.242.655-.49,1.308-.733,1.962a.162.162,0,0,0-.005.111c.142.313.29.623.436.934l.041-.006c0-.059,0-.118,0-.176,0-.5,0-1,0-1.5,0-.315.134-.445.448-.446.547,0,1.094,0,1.641,0Zm-6.989-1.9c.056.022.1.042.149.059q.889.324,1.777.649a1.145,1.145,0,0,1,.216.1.313.313,0,0,1,.135.386.3.3,0,0,1-.32.228,1.314,1.314,0,0,1-.327-.086c-.619-.223-1.237-.449-1.866-.679-.048.127-.093.243-.135.36-.091.256-.041.37.211.462q1.7.62,3.395,1.236c.237.086.36.026.448-.216.162-.443.322-.886.482-1.33.015-.041.025-.084.041-.139l-4.047-1.472-.16.443m9.7,3.9c-.579,0-1.142,0-1.705,0a1.613,1.613,0,0,1-.255-.017.331.331,0,0,1-.029-.651.891.891,0,0,1,.219-.026c.53,0,1.059,0,1.589,0h.18v-.593H1372.1c0,.516,0,1.016,0,1.517,0,.307.073.378.384.378h3.468c.407,0,.47-.064.464-.478,0-.033,0-.067-.006-.128" transform="translate(-1361.799 -396.801)" fill="#d95458"/>
    <path id="Path_3232" data-name="Path 3232" d="M1393.858,648.014a3.34,3.34,0,0,1,.072-.329.337.337,0,0,1,.658.148c-.008.062-.027.122-.035.183a.7.7,0,0,0,.44.766c.162.068.33.12.494.184a.352.352,0,0,1,.247.469.347.347,0,0,1-.486.173,4.532,4.532,0,0,1-.87-.412,1.3,1.3,0,0,1-.518-1.183" transform="translate(-1392.484 -636.691)" fill="#d95458"/>
    <path id="Path_3233" data-name="Path 3233" d="M1450.983,693.784a.342.342,0,1,1-.34.345.333.333,0,0,1,.34-.345" transform="translate(-1446.837 -681.064)" fill="#d95458"/>
    <path id="Path_3234" data-name="Path 3234" d="M1618.458,548.327a.336.336,0,0,1-.326.347.346.346,0,0,1-.354-.34.356.356,0,0,1,.34-.342.347.347,0,0,1,.341.335" transform="translate(-1606.813 -541.516)" fill="#d95458"/>
  </g>
</svg>
