<svg xmlns="http://www.w3.org/2000/svg" width="17.698" height="17.691" viewBox="0 0 17.698 17.691">
  <g id="Group_6891" data-name="Group 6891" transform="translate(0)">
    <path id="Path_3235" data-name="Path 3235" d="M824.53,230.528c-.044.159-.08.321-.134.477a2.4,2.4,0,0,1-2.272,1.629c-1.088,0-2.176,0-3.264,0a1.442,1.442,0,0,1-1.13-.5q-.951-1.05-1.9-2.1c-.042-.046-.085-.091-.139-.149l-.761.833c-.419.46-.84.916-1.254,1.381a1.506,1.506,0,0,1-1.2.529c-1.065-.011-2.13,0-3.2,0a2.409,2.409,0,0,1-2.431-2.431,6.978,6.978,0,0,1,.02-1.052,1.392,1.392,0,0,1,1.729-1.134c1.428.238,2.858.458,4.288.683.051.008.128.01.156-.02.261-.274.513-.556.779-.848l-.914-1q-2.838-3.115-5.677-6.23a1.382,1.382,0,0,1,1.1-2.334,1.35,1.35,0,0,1,.948.47q1.017,1.118,2.036,2.234,2.152,2.361,4.3,4.724a.531.531,0,0,1,.056.11l.263-.291q3.035-3.333,6.069-6.667a1.507,1.507,0,0,1,1.143-.583,1.383,1.383,0,0,1,1.349,1.031c.01.037.027.072.041.108v.484a2.2,2.2,0,0,1-.544.9c-.963,1.046-1.917,2.1-2.875,3.153-.229.251-.453.506-.688.752a.338.338,0,0,1-.6-.142.529.529,0,0,1,.118-.352c.147-.2.325-.367.478-.535l-.983-.979a.656.656,0,0,1-.052.071l-3.478,3.819q-1.233,1.354-2.465,2.708a.4.4,0,0,1-.376.163q-1.327-.215-2.655-.428c-.263-.042-.527-.079-.794-.119v3.038a.432.432,0,0,0,.06.01c.962,0,1.923,0,2.885,0a.736.736,0,0,0,.559-.265q1.957-2.155,3.918-4.306c.252-.277.5-.556.758-.829a.336.336,0,0,1,.493-.033.34.34,0,0,1,.026.494c-.043.054-.093.1-.139.154l-.613.679c.258.284.5.555.749.817a.232.232,0,0,0,.179.045c1.425-.222,2.85-.443,4.273-.679a1.507,1.507,0,0,1,1.254.269,1.54,1.54,0,0,1,.512.856Zm-2.772,1.417v-3.039a.769.769,0,0,0-.111,0c-1.1.175-2.2.348-3.3.529a.4.4,0,0,1-.4-.138q-.353-.391-.708-.78c-.048-.053-.1-.1-.153-.162l-.92,1.012a.547.547,0,0,0,.041.061q1.039,1.144,2.079,2.286a.71.71,0,0,0,.539.229c.224,0,.449,0,.673,0h2.258m-10.806-8.288,3.334,3.658.93-1.023-3.29-3.609-.974.974m.474-1.525c-.906-.991-1.819-2-2.74-2.993a.6.6,0,0,0-.571-.175.688.688,0,0,0-.375,1.169q1.3,1.43,2.605,2.86a.866.866,0,0,1,.086.133l1-.995m9.5.973c.913-1,1.831-2.006,2.738-3.016a.666.666,0,0,0-.06-.959.68.68,0,0,0-.975.061c-.585.636-1.164,1.275-1.746,1.914l-.932,1.026.974.975M808.9,231.887v-3.112c-.213-.031-.41-.068-.61-.086a.662.662,0,0,0-.75.634,7.946,7.946,0,0,0,.03,1.187,1.647,1.647,0,0,0,1.33,1.377m13.566-3.111v3.111a1.584,1.584,0,0,0,1.293-1.212,6.043,6.043,0,0,0,.061-1.4.64.64,0,0,0-.756-.581c-.194.018-.386.055-.6.086" transform="translate(-806.832 -218.261)" fill="#7bb5fa"/>
    <path id="Path_3236" data-name="Path 3236" d="M947.261,544.466c-.085-.031-.17-.062-.254-.094a1.38,1.38,0,0,1,.487-2.669q1.028,0,2.055,0a1.383,1.383,0,0,1,.359,2.725.709.709,0,0,0-.091.038Zm1.281-.691c.333,0,.667,0,1,0a.692.692,0,1,0-.013-1.382q-.983,0-1.967,0a.693.693,0,1,0,0,1.382c.328,0,.656,0,.983,0" transform="translate(-939.686 -526.774)" fill="#7bb5fa"/>
    <path id="Path_3237" data-name="Path 3237" d="M1065.66,370.257a.344.344,0,1,1-.351.341.339.339,0,0,1,.351-.341" transform="translate(-1053.38 -363.242)" fill="#7bb5fa"/>
  </g>
</svg>
