<svg id="Group_6889" data-name="Group 6889" xmlns="http://www.w3.org/2000/svg" width="17.755" height="17.772" viewBox="0 0 17.755 17.772">
  <path id="Path_3238" data-name="Path 3238" d="M225.04,0h1.179c.044.011.088.025.132.032.472.076.952.118,1.415.23a8.882,8.882,0,0,1,6.71,7.905,8.275,8.275,0,0,1-.6,3.982,8.755,8.755,0,0,1-7.7,5.593,7.853,7.853,0,0,1-2.724-.251,8.817,8.817,0,0,1-4.849-3.186,8.6,8.6,0,0,1-1.748-4.057c-.036-.237-.069-.475-.1-.713V8.22c.012-.044.027-.088.034-.133.078-.464.125-.935.239-1.39A8.889,8.889,0,0,1,224.289.1c.25-.038.5-.069.75-.1m.625,7.938c-.051.014-.09.024-.128.035-.407.127-.816.246-1.219.383a19.272,19.272,0,0,0-6.232,3.446.23.23,0,0,0-.067.331,8.282,8.282,0,0,0,4,4.189,8.118,8.118,0,0,0,2.992.81.247.247,0,0,0,.262-.139,8.782,8.782,0,0,0,1.183-3.565,10.706,10.706,0,0,0-.027-2.952,9.38,9.38,0,0,0-.764-2.537m-.263-.548c-.14-.222-.258-.425-.391-.619a6.654,6.654,0,0,0-5.564-3.21.319.319,0,0,0-.229.1c-.227.3-.454.6-.651.916a8.1,8.1,0,0,0-1.185,3.6,7.894,7.894,0,0,0,.1,2.171c.061.319.147.634.228.98A20.582,20.582,0,0,1,225.4,7.392m.474,9.77c.339-.035.631-.061.921-.1a7.756,7.756,0,0,0,2.505-.775.277.277,0,0,0,.135-.176c.111-.782.261-1.563.3-2.349a16.342,16.342,0,0,0-.511-4.957c-.131-.511-.3-1.014-.454-1.548l-2.526.5a10.522,10.522,0,0,1,.876,4.725,10.335,10.335,0,0,1-1.251,4.673M219.853,2.919l.032.051a.288.288,0,0,0,.049.012,6.786,6.786,0,0,1,3.633,1.387A8.442,8.442,0,0,1,225.9,7.08c.045.08.07.164.2.134.8-.179,1.607-.351,2.415-.526a.056.056,0,0,0,0-.028c-.017-.049-.035-.1-.055-.145a12.562,12.562,0,0,0-1.858-3.07A8.618,8.618,0,0,0,223.436,1a.423.423,0,0,0-.273-.018,7.708,7.708,0,0,0-2.153,1.039c-.4.28-.772.6-1.157.9m4.439-2.2a11.565,11.565,0,0,1,4.857,5.9l1.823-.191c0-.618-.029-1.214.008-1.805s.144-1.19.214-1.785a.192.192,0,0,0-.065-.139A8.178,8.178,0,0,0,224.292.718m5.08,6.474a17.179,17.179,0,0,1,.72,8.662,8.353,8.353,0,0,0,3.237-3.926,7.774,7.774,0,0,1-2.279-4.9l-1.679.168m4.177,4.11a8.3,8.3,0,0,0,.126-4.376l-2.015.056c.039.231.068.424.105.615a8.008,8.008,0,0,0,1.123,2.955,3.106,3.106,0,0,0,.661.751m-.033-4.944a8.3,8.3,0,0,0-1.794-3.079,12.281,12.281,0,0,0-.126,3.079Z" transform="translate(-216.752 -0.002)" fill="#f4a932"/>
  <path id="Path_3239" data-name="Path 3239" d="M326.011,333.059a2.109,2.109,0,0,1,.259.114,8.406,8.406,0,0,0,1.606.8c.213.078.294.229.234.4s-.23.238-.443.162a8.7,8.7,0,0,1-1.728-.867c-.135-.085-.223-.209-.155-.363.043-.1.15-.165.228-.247" transform="translate(-321.025 -318.594)" fill="#f4a932"/>
  <path id="Path_3240" data-name="Path 3240" d="M272.591,281.207c-.071.09-.119.2-.2.243a.389.389,0,0,1-.287-.015.568.568,0,0,1-.193-.193c-.263-.35-.525-.7-.78-1.057a.243.243,0,0,1,.008-.334.45.45,0,0,1,.283-.114.353.353,0,0,1,.214.148c.269.345.531.7.792,1.049.057.076.1.163.166.273" transform="translate(-268.706 -267.587)" fill="#f4a932"/>
</svg>
