<svg xmlns="http://www.w3.org/2000/svg" width="215.041" height="215.684" viewBox="0 0 215.041 215.684">
  <g id="undraw_access_account_re_8spm" style="isolation: isolate">
    <path id="Path_1" data-name="Path 1" d="M248.256,673.042l-1.894-7.469a96.983,96.983,0,0,0-10.29-3.692l-.239,3.471-.969-3.824c-4.337-1.24-7.287-1.785-7.287-1.785s3.984,15.154,12.343,26.739l9.739,1.711-7.566,1.091a39.243,39.243,0,0,0,3.383,3.586c12.159,11.286,25.7,16.464,30.248,11.565s-1.624-18.019-13.783-29.3a51.674,51.674,0,0,0-13.244-8.517Z" transform="translate(-227.576 -491.347)" fill="#2c8af7"/>
    <path id="Path_2" data-name="Path 2" d="M326.41,623.324l2.24-7.373a96.989,96.989,0,0,0-6.9-8.479l-2,2.848,1.147-3.775c-3.072-3.3-5.316-5.293-5.316-5.293s-4.422,15.032-3.255,29.27l7.453,6.5-7.042-2.977a39.236,39.236,0,0,0,1.043,4.82c4.575,15.946,13.491,27.379,19.916,25.536s7.924-16.264,3.349-32.21a51.663,51.663,0,0,0-6.936-14.136Z" transform="translate(-287.72 -449.743)" fill="#2c8af7"/>
    <path id="Path_22" data-name="Path 22" d="M483.177,127.557H482V95.193a18.732,18.732,0,0,0-18.732-18.732H394.694a18.732,18.732,0,0,0-18.732,18.732V272.746a18.732,18.732,0,0,0,18.732,18.732h68.569a18.732,18.732,0,0,0,18.732-18.732V150.594h1.181Z" transform="translate(-333.122 -76.462)" fill="#003169"/>
    <path id="Path_23" data-name="Path 23" d="M476.753,93.335H467.8a6.646,6.646,0,0,1-6.154,9.156H422.367a6.646,6.646,0,0,1-6.154-9.156h-8.36a13.989,13.989,0,0,0-13.989,13.989v177.3a13.989,13.989,0,0,0,13.989,13.989h68.9a13.989,13.989,0,0,0,13.989-13.989h0v-177.3a13.989,13.989,0,0,0-13.989-13.989Z" transform="translate(-345.857 -88.464)" fill="#001329"/>
    <ellipse id="Ellipse_1" data-name="Ellipse 1" cx="7.059" cy="7.059" rx="7.059" ry="7.059" transform="translate(89.382 68.438)" fill="#2c8af7"/>
    <path id="Path_8" data-name="Path 8" d="M527.873,305.691h-41.14a1.479,1.479,0,0,1-1.477-1.477v-41.14a1.479,1.479,0,0,1,1.477-1.477h41.14a1.479,1.479,0,0,1,1.477,1.477v41.14A1.479,1.479,0,0,1,527.873,305.691Zm-41.14-43.5a.887.887,0,0,0-.886.886v41.14a.887.887,0,0,0,.886.886h41.14a.887.887,0,0,0,.886-.886v-41.14a.887.887,0,0,0-.886-.886Z" transform="translate(-410.862 -208.147)" fill="#959595"/>
    <rect id="Rectangle_1" data-name="Rectangle 1" width="63.097" height="0.591" transform="translate(63.1 129.08)" fill="#959595"/>
    <ellipse id="Ellipse_2" data-name="Ellipse 2" cx="1.993" cy="1.993" rx="1.993" ry="1.993" transform="translate(63.1 121.405)" fill="#2c8af7"/>
    <rect id="Rectangle_2" data-name="Rectangle 2" width="63.097" height="0.591" transform="translate(63.1 149.005)" fill="#959595"/>
    <ellipse id="Ellipse_3" data-name="Ellipse 3" cx="1.993" cy="1.993" rx="1.993" ry="1.993" transform="translate(63.1 141.331)" fill="#2c8af7"/>
    <path id="Path_22966" data-name="Path 22966" d="M608.362,647.551h-19.94a1.3,1.3,0,0,1-1.3-1.3v-6.989a1.3,1.3,0,0,1,1.3-1.3h19.94a1.3,1.3,0,0,1,1.3,1.3v6.989A1.3,1.3,0,0,1,608.362,647.551Z" transform="translate(-483.32 -475.856)" fill="#2c8af7"/>
    <ellipse id="Ellipse_7" data-name="Ellipse 7" cx="1.993" cy="1.993" rx="1.993" ry="1.993" transform="translate(69.6 121.405)" fill="#2c8af7"/>
    <ellipse id="Ellipse_8" data-name="Ellipse 8" cx="1.993" cy="1.993" rx="1.993" ry="1.993" transform="translate(76.1 121.405)" fill="#2c8af7"/>
    <ellipse id="Ellipse_9" data-name="Ellipse 9" cx="1.993" cy="1.993" rx="1.993" ry="1.993" transform="translate(69.6 141.331)" fill="#2c8af7"/>
    <ellipse id="Ellipse_10" data-name="Ellipse 10" cx="1.993" cy="1.993" rx="1.993" ry="1.993" transform="translate(76.1 141.331)" fill="#2c8af7"/>
    <path id="Path_88" data-name="Path 88" d="M456.963,821.805H249.677c-.444,0-.8-.158-.8-.352s.359-.352.8-.352H456.963c.443,0,.8.158.8.352S457.406,821.805,456.963,821.805Z" transform="translate(-242.725 -606.121)" fill="#3f3d56"/>
    <path id="Path_22967" data-name="Path 22967" d="M781.992,544.384a2.922,2.922,0,0,1,.407.227l12.949-5.527.462-3.411,5.174-.032-.306,7.823-17.091,4.52a3.05,3.05,0,0,1-.129.349,2.955,2.955,0,1,1-1.466-3.95Z" transform="translate(-618.968 -403.075)" fill="#7c3900"/>
    <path id="Path_22968" data-name="Path 22968" d="M624.111,701.385h-3.54l-1.684-13.652h5.224Z" transform="translate(-440.212 -489.182)" fill="#7c3900"/>
    <path id="Path_22969" data-name="Path 22969" d="M605.374,731.518H612.2v4.3H601.076A4.3,4.3,0,0,1,605.374,731.518Z" transform="translate(-427.543 -520.326)" fill="#2f2e41"/>
    <path id="Path_22970" data-name="Path 22970" d="M668.555,698.083l-3.523.347-3.014-13.421,5.2-.512Z" transform="translate(-470.891 -486.88)" fill="#7c3900"/>
    <path id="Path_22971" data-name="Path 22971" d="M4.3,0h6.826V4.3H0A4.3,4.3,0,0,1,4.3,0Z" transform="translate(187.248 211.213) rotate(-5.625)" fill="#2f2e41"/>
    <ellipse id="Ellipse_310" data-name="Ellipse 310" cx="7.091" cy="7.091" rx="7.091" ry="7.091" transform="translate(177.793 103.937)" fill="#7c3900"/>
    <path id="Path_22972" data-name="Path 22972" d="M826.785,678.974a1.291,1.291,0,0,1-1.275-1.067c-1.832-10.17-7.82-43.423-7.964-44.344a.4.4,0,0,1,0-.064v-2.479a.429.429,0,0,1,.081-.252l.791-1.108a.427.427,0,0,1,.33-.18c4.51-.211,19.281-.831,19.995.06h0c.717.9.464,3.611.405,4.146l0,.056,6.636,42.438a1.3,1.3,0,0,1-1.073,1.482l-4.145.683a1.305,1.305,0,0,1-1.451-.893c-1.282-4.1-5.58-17.876-7.07-23.208a.144.144,0,0,0-.283.04c.074,5.083.254,18.051.316,22.53l.007.482a1.3,1.3,0,0,1-1.182,1.31l-4,.363C826.865,678.972,826.825,678.974,826.785,678.974Z" transform="translate(-647.216 -469.531)" fill="#2f2e41"/>
    <path id="Path_99" data-name="Path 99" d="M828.184,493.628a5.929,5.929,0,0,0-2.4,3.463,32.841,32.841,0,0,0-1.41,7.841l-.449,7.968-5.559,21.124c4.818,4.077,7.6,3.15,14.083-.185s7.227,1.112,7.227,1.112l1.3-17.974,1.853-19.641a8.714,8.714,0,0,0-1.4-1.349,14.336,14.336,0,0,0-12.253-2.6Z" transform="translate(-647.8 -372.721)" fill="#2c8af7"/>
    <path id="Path_22973" data-name="Path 22973" d="M836.08,555.962a3.037,3.037,0,0,1,.433.2l12.8-6.408.213-3.472,5.281-.364.283,7.914-17.11,5.658a3.03,3.03,0,1,1-1.9-3.531Z" transform="translate(-657.502 -410.386)" fill="#7c3900"/>
    <path id="Path_101" data-name="Path 101" d="M886.081,507.469c3.15,1.112,3.705,13.157,3.705,13.157-3.706-2.038-8.153,1.3-8.153,1.3s-.927-3.15-2.038-7.227a7.082,7.082,0,0,1,1.482-6.671A5.046,5.046,0,0,1,886.081,507.469Z" transform="translate(-691.151 -382.764)" fill="#2a80e3"/>
    <path id="Union_24" data-name="Union 24" d="M21294.654-5210.153a25.283,25.283,0,0,1-7.248-.176c-2.828-.706-3.266,2.565-3.266,2.565a22.36,22.36,0,0,1-.092-3.977,2.051,2.051,0,0,1,.18-.628,1.035,1.035,0,0,1-.023-.222,1,1,0,0,1,1-1,1,1,0,0,1,1-1h.055a2.168,2.168,0,0,1-.039-.258c-.068-.791.316-1.47.867-1.518a.754.754,0,0,1,.395.076.817.817,0,0,1,.588-.375.819.819,0,0,1,.637.257.928.928,0,0,1,.637-.342.929.929,0,0,1,.551.126.984.984,0,0,1,.967-.468,1.014,1.014,0,0,1,.67.918.8.8,0,0,1,.549-.319.743.743,0,0,1,.467.123.784.784,0,0,1,.527-.294.814.814,0,0,1,.635.257.931.931,0,0,1,.637-.343,1.038,1.038,0,0,1,1.068.874.726.726,0,0,1,.445-.041c.535.123.822.877.637,1.684a2.193,2.193,0,0,1-.262.642,1,1,0,0,1,.973,1,.988.988,0,0,1-.072.373c2.352,1.838,1.158,8.521.313,7.848-.883-.706-2.09.577-2.09.577Z" transform="translate(-21106.205 5317.272)"/>
  </g>
</svg>
