<svg xmlns="http://www.w3.org/2000/svg" width="31.592" height="35.991" viewBox="0 0 31.592 35.991">
  <g id="Group_46724" data-name="Group 46724" transform="translate(-172 -577)">
    <g id="svgexport-6" transform="translate(172 588.302)">
      <g id="Group_46704" data-name="Group 46704" transform="translate(0 0)">
        <g id="Group_46703" data-name="Group 46703" transform="translate(0 0)">
          <g id="Group_46702" data-name="Group 46702">
            <g id="Group_46701" data-name="Group 46701">
              <g id="Group_46700" data-name="Group 46700">
                <g id="Group_46683" data-name="Group 46683" transform="translate(1.029)">
                  <g id="Group_46682" data-name="Group 46682">
                    <path id="Path_24669" data-name="Path 24669" d="M81.79,4.014a.386.386,0,1,1-.538-.552c.023-.023,7.751-7.751,15.88-.04a.384.384,0,1,1-.53.556C89.018-3.214,81.811,3.993,81.79,4.014Z" transform="translate(-81.135 0)" fill="#fff" fill-rule="evenodd"/>
                  </g>
                </g>
                <g id="Group_46685" data-name="Group 46685" transform="translate(6.719 2.511)">
                  <g id="Group_46684" data-name="Group 46684">
                    <path id="Path_24670" data-name="Path 24670" d="M190.357,48.964a.385.385,0,1,1-.182-.747c.027-.007,9.515-2.442,11.24,8.678a.385.385,0,1,1-.76.117C199.062,46.728,190.381,48.958,190.357,48.964Z" transform="translate(-189.882 -47.987)" fill="#fff" fill-rule="evenodd"/>
                  </g>
                </g>
                <g id="Group_46687" data-name="Group 46687" transform="translate(0 3.415)">
                  <g id="Group_46686" data-name="Group 46686">
                    <path id="Path_24671" data-name="Path 24671" d="M66.539,65.287a.385.385,0,1,1,.244.729c-.011,0-4.042,1.307-4.55,7.222a.386.386,0,0,1-.769-.064C62.017,66.752,66.526,65.292,66.539,65.287Z" transform="translate(-61.463 -65.267)" fill="#fff" fill-rule="evenodd"/>
                  </g>
                </g>
                <g id="Group_46689" data-name="Group 46689" transform="translate(0.616 4.598)">
                  <g id="Group_46688" data-name="Group 46688">
                    <path id="Path_24672" data-name="Path 24672" d="M73.876,100.006a.385.385,0,0,1-.494-.59,4.224,4.224,0,0,0,.992-2.008,20.7,20.7,0,0,0,.534-2.878,8.227,8.227,0,0,1,1.8-4.231,6.818,6.818,0,0,1,2.523-1.916,6.178,6.178,0,0,1,3.243-.453,8.743,8.743,0,0,1,4.488,2.118.383.383,0,0,1-.49.589,8.01,8.01,0,0,0-4.091-1.944,5.432,5.432,0,0,0-2.845.4,6.044,6.044,0,0,0-2.238,1.7,7.457,7.457,0,0,0-1.631,3.832,21.772,21.772,0,0,1-.558,2.99A4.92,4.92,0,0,1,73.876,100.006Z" transform="translate(-73.245 -87.879)" fill="#fff" fill-rule="evenodd"/>
                  </g>
                </g>
                <g id="Group_46691" data-name="Group 46691" transform="translate(2.037 6.721)">
                  <g id="Group_46690" data-name="Group 46690">
                    <path id="Path_24673" data-name="Path 24673" d="M101.024,141.134a.385.385,0,0,1-.494-.59,6.961,6.961,0,0,0,1.26-2.681,23.565,23.565,0,0,0,.945-4.58.351.351,0,0,1,.009-.06,6.419,6.419,0,0,1,1.448-3.28,4.429,4.429,0,0,1,1.969-1.286,4.682,4.682,0,0,1,2.173-.148,4.755,4.755,0,0,1,2.384,1.12,5.051,5.051,0,0,1,1.434,3.618c.011.108.024.217.045.392.052.437.1.945.159,1.455a21.578,21.578,0,0,0,1.461,6.791.385.385,0,0,1-.7.317,22.236,22.236,0,0,1-1.526-7.029c-.048-.461-.1-.919-.159-1.443-.011-.09-.027-.244-.045-.4a4.457,4.457,0,0,0-1.18-3.131,3.992,3.992,0,0,0-1.994-.934,3.925,3.925,0,0,0-1.818.121,3.667,3.667,0,0,0-1.63,1.066,5.665,5.665,0,0,0-1.262,2.9,24.418,24.418,0,0,1-.979,4.738A7.383,7.383,0,0,1,101.024,141.134Z" transform="translate(-100.393 -128.445)" fill="#fff" fill-rule="evenodd"/>
                  </g>
                </g>
                <g id="Group_46693" data-name="Group 46693" transform="translate(3.121 8.866)">
                  <g id="Group_46692" data-name="Group 46692">
                    <path id="Path_24674" data-name="Path 24674" d="M121.8,181.61a.385.385,0,0,1-.6-.487,17.744,17.744,0,0,0,1.506-2.419,18.586,18.586,0,0,0,1.151-2.58,9.5,9.5,0,0,0,.443-2.046c.048-.357.1-.733.18-1.159a9.176,9.176,0,0,1,.392-1.458,4.47,4.47,0,0,1,.563-1.09,2.2,2.2,0,0,1,2.643-.752,2.386,2.386,0,0,1,1.048.847,3.517,3.517,0,0,1,.524,2.432,24.808,24.808,0,0,1-1.568,5.714,27.593,27.593,0,0,1-2.8,5.7.384.384,0,1,1-.6-.473,26.939,26.939,0,0,0,2.688-5.5,23.969,23.969,0,0,0,1.522-5.518,2.761,2.761,0,0,0-.389-1.909,1.642,1.642,0,0,0-.711-.579,1.471,1.471,0,0,0-.823-.088,1.442,1.442,0,0,0-.907.582,3.677,3.677,0,0,0-.459.9,8.457,8.457,0,0,0-.358,1.337c-.08.421-.129.778-.175,1.117a10.058,10.058,0,0,1-.481,2.194,19.309,19.309,0,0,1-1.2,2.691,18.286,18.286,0,0,1-1.589,2.54Z" transform="translate(-121.121 -169.45)" fill="#fff" fill-rule="evenodd"/>
                  </g>
                </g>
                <g id="Group_46695" data-name="Group 46695" transform="translate(14.801 8.812)">
                  <g id="Group_46694" data-name="Group 46694">
                    <path id="Path_24675" data-name="Path 24675" d="M344.371,168.963a.384.384,0,0,1,.7-.313,14.353,14.353,0,0,1,.789,4.626,11.218,11.218,0,0,0,.715,4.089.384.384,0,0,1-.675.367,11.611,11.611,0,0,1-.808-4.407A13.829,13.829,0,0,0,344.371,168.963Z" transform="translate(-344.337 -168.422)" fill="#fff" fill-rule="evenodd"/>
                  </g>
                </g>
                <g id="Group_46697" data-name="Group 46697" transform="translate(4.529 11.079)">
                  <g id="Group_46696" data-name="Group 46696">
                    <path id="Path_24676" data-name="Path 24676" d="M152.216,212.12a.385.385,0,0,1,.768.038,20.96,20.96,0,0,1-1.309,6.253,16.233,16.233,0,0,1-2.986,5.048.385.385,0,1,1-.575-.511,15.431,15.431,0,0,0,2.842-4.807A20.145,20.145,0,0,0,152.216,212.12Z" transform="translate(-148.017 -211.755)" fill="#fff" fill-rule="evenodd"/>
                  </g>
                </g>
                <g id="Group_46699" data-name="Group 46699" transform="translate(8.78 17.368)">
                  <g id="Group_46698" data-name="Group 46698">
                    <path id="Path_24677" data-name="Path 24677" d="M229.971,339.1a.386.386,0,1,1-.64-.431,20.043,20.043,0,0,0,1.749-3.213c.475-1.084.865-2.17,1.244-3.247h0a.386.386,0,0,1,.745.07l.058.275a13.956,13.956,0,0,0,1.434,4.295.385.385,0,0,1-.672.376,12.594,12.594,0,0,1-1.294-3.495c-.249.675-.513,1.354-.812,2.033A20.612,20.612,0,0,1,229.971,339.1Z" transform="translate(-229.266 -331.949)" fill="#fff" fill-rule="evenodd"/>
                  </g>
                </g>
              </g>
            </g>
          </g>
        </g>
      </g>
    </g>
    <rect id="Rectangle_18354" data-name="Rectangle 18354" width="20.865" height="21.735" rx="3" transform="translate(182.433 577)" fill="#2c8af7"/>
    <g id="svgexport-6-2" data-name="svgexport-6" transform="translate(182.387 577.277)">
      <path id="Path_24678" data-name="Path 24678" d="M8.3,3a.589.589,0,1,1,0,1.178H5.945A1.767,1.767,0,0,0,4.178,5.945V8.338A.589.589,0,1,1,3,8.338V5.945A2.945,2.945,0,0,1,5.945,3ZM18.9,4.178A.589.589,0,0,1,18.9,3H21.26A2.945,2.945,0,0,1,24.2,5.945V8.3a.589.589,0,1,1-1.178,0V5.945A1.767,1.767,0,0,0,21.26,4.178ZM23.027,18.9a.589.589,0,1,1,1.178,0V21.26A2.945,2.945,0,0,1,21.26,24.2H18.9a.589.589,0,0,1,0-1.178H21.26a1.767,1.767,0,0,0,1.767-1.767ZM3,18.9a.589.589,0,0,1,1.178,0V21.26a1.767,1.767,0,0,0,1.767,1.767H8.3a.589.589,0,1,1,0,1.178H5.945A2.945,2.945,0,0,1,3,21.26ZM8.89,9.479a.589.589,0,1,1,1.178,0v1.178a.589.589,0,1,1-1.178,0Zm9.424,0a.589.589,0,0,1,1.178,0v1.178a.589.589,0,1,1-1.178,0Zm-4.712,0a.589.589,0,1,1,1.178,0v4.712a1.767,1.767,0,0,1-1.767,1.767.589.589,0,1,1,0-1.178.589.589,0,0,0,.589-.589Zm-4.594,8.6a.589.589,0,0,1,.942-.707,4.519,4.519,0,0,0,3.652,2.12,4.519,4.519,0,0,0,3.652-2.12.589.589,0,1,1,.942.707A5.672,5.672,0,0,1,13.6,20.671,5.672,5.672,0,0,1,9.008,18.079Z" transform="translate(-3 -3)" fill="#fff"/>
    </g>
  </g>
</svg>
