<svg xmlns="http://www.w3.org/2000/svg" width="250.897" height="70.712" viewBox="0 0 250.897 70.712">
  <g id="logo" transform="translate(0.979 -0.072)">
    <path id="Path_1" data-name="Path 1" d="M23.8,22l-3.615-2.157L16.62,22.07l.939-4.1-3.229-2.7,4.19-.376,1.572-3.9,1.655,3.867,4.194.29-3.167,2.765Z" transform="translate(0.613 0.473)" fill="#fefefe"/>
    <path id="Path_2" data-name="Path 2" d="M23.8,22l-3.615-2.157L16.62,22.07l.939-4.1-3.229-2.7,4.19-.376,1.572-3.9,1.655,3.867,4.194.29-3.167,2.765Z" transform="translate(0.613 0.473)" fill="none" stroke="#e01b22" stroke-width="0.895"/>
    <path id="Path_3" data-name="Path 3" d="M9.631,14.61,7.736,12.857l-2.419.885L6.4,11.407,4.82,9.372l2.553.309,1.44-2.14.5,2.53,2.48.711L9.54,12.039Z" transform="translate(0.201 0.324)" fill="#fefefe"/>
    <path id="Path_4" data-name="Path 4" d="M9.631,14.61,7.736,12.857l-2.419.885L6.4,11.407,4.82,9.372l2.553.309,1.44-2.14.5,2.53,2.48.711L9.54,12.039Z" transform="translate(0.201 0.324)" fill="none" stroke="#e01b22" stroke-width="0.597"/>
    <path id="Path_5" data-name="Path 5" d="M13.858,29.342,8.8,28.237,5.514,32.23l-.508-5.144L.186,25.192l4.741-2.083.316-5.157,3.44,3.858,5-1.294-2.608,4.467Z" transform="translate(0 0.775)" fill="#fefefe"/>
    <path id="Path_6" data-name="Path 6" d="M13.858,29.342,8.8,28.237,5.514,32.23l-.508-5.144L.186,25.192l4.741-2.083.316-5.157,3.44,3.858,5-1.294-2.608,4.467Z" transform="translate(0 0.775)" fill="none" stroke="#e01b22" stroke-width="0.895"/>
    <path id="Path_7" data-name="Path 7" d="M241.355,21.3H56.477s-7.582.007-10.666,7.072l1.207,2.174q.618,1.247,2.063,4.758l.856,2.063a23.031,23.031,0,0,0,2.039,4.257c.49.56,8.226,11.28-4.285,23.072-.384.27-.772.511-1.156.76H228.691s8.77,0,11.285-8.775l7.63-26.61s2.514-8.772-6.251-8.772" transform="translate(1.978 0.92)" fill="#044da1"/>
    <path id="Path_8" data-name="Path 8" d="M72.977,56.964c-.2-5.742-.851-11.348-.693-16.963H72.2c-1.575,5.615-3.819,11.221-5.688,16.963H57.557c-.6-9.274-1.421-18.5-2.306-27.723h7.272c.183,6.563,1.037,12.962,1.25,19.32h.073C65.8,42.2,68.114,35.8,70.005,29.241h8.258c.052,6.517.4,12.962.644,19.281h.071c2.058-6.405,4.889-12.764,7.15-19.281h7.118C89.5,38.462,85.83,47.689,82.306,56.963h-9.33Zm14.529-.106c3.291-8.2,6.71-16.414,10.6-27.723h7.927c-3.832,9.225-7.32,18.495-10.525,27.722H87.506Zm29.191,0c-.733-6.031-2.119-11.772-2.7-17.628h-.069c-.977,2.5-5.191,13.466-6.618,17.628h-7.017c1.99-4.406,8.045-19.743,10.782-27.723h9.141l2.438,17.951h.083c1.1-2.654,5.126-13.085,6.8-17.951h6.979c-1.188,2.821-8.279,20.452-10.9,27.722H116.7Zm30.474,0c-.73-6.031-2.118-11.772-2.694-17.628H144.4c-.966,2.5-5.18,13.466-6.62,17.628h-7.011c1.992-4.406,8.041-19.743,10.788-27.723h9.132l2.452,17.951h.07c1.1-2.654,5.127-13.085,6.794-17.951h6.986c-1.2,2.821-8.284,20.452-10.9,27.722H147.17Zm33.989.106H161.242c2.018-4.572,6.177-14.34,10.789-27.723H191.91l-2.391,6.192c-2.184-.125-4.369-.257-6.558-.257h-5.415l-1.925,4.865h4.167c2.037,0,4.067-.041,6.138-.121l-2.452,6.068h-10.23l-1.984,5.031h2.407c3.292,0,6.615-.128,9.975-.344l-2.483,6.288Zm18.412-.041c.507-5.289.55-10.392.645-15.55a7.807,7.807,0,0,0,1.716.213c2.118,0,4.954-.914,5.944-3.79.957-2.782-1.49-2.782-3.172-2.782h-3.14c-2.906,7.275-5.607,14.591-8.195,21.909h-7.575C189.6,48.315,192.662,40.3,196.513,29.2h12.9c1.751,0,8.7.2,6.238,7.356-1.51,4.358-4.59,6.731-8.493,8.1-.005,4.161.415,8.147.53,12.27Zm36.106-20.911a10.323,10.323,0,0,0-4.822-1.371c-1.134,0-3.447.457-4.042,2.2-1.135,3.287,6.473,6.357,4.349,12.511-.981,2.829-4.528,8.056-12.362,8.056a30.808,30.808,0,0,1-6.949-.911l1.809-6.851a11.134,11.134,0,0,0,5.651,1.828c1.212,0,3.531-.252,4.185-2.164,1.108-3.2-6.412-6.521-4.185-13.014.662-1.906,3.613-7.6,11.9-7.6a27.24,27.24,0,0,1,6.237.793Z" transform="translate(2.388 1.241)" fill="#fefefe"/>
    <path id="Path_9" data-name="Path 9" d="M51.136,41.941a22.118,22.118,0,0,1-2.045-4.257l-.863-2.055q-1.432-3.5-2.062-4.762L41.5,22.426s.61-13.405-2.706-13.954c-5.183-.1-9.149,2.722-10.34,7.353q-.646,2.52.589,7.761l.418,1.5c.661,2.962,1.6,5.334,1.254,8.232l-1.163-.3q-6.86-1.758-11.619-.495c-3.163.845-5.083,2.539-5.734,5.092a8.927,8.927,0,0,0,.975,6.669,5.983,5.983,0,0,0-1.816,2.82,4.73,4.73,0,0,0,.175,3.177,5.694,5.694,0,0,0,2.414,2.4c-.206.551-.344.972-.43,1.286q-1.127,4.392,3.808,6.1a5.317,5.317,0,0,0-.31.814c-.836,3.266,1.022,5.488,5.6,6.67l2.01.5,1.894-.4a21.245,21.245,0,0,0,5.2,2.232c.557.144,1.437.319,2.647.534a32.205,32.205,0,0,0,12.478-5.4C59.356,53.227,51.622,42.5,51.136,41.941" transform="translate(0.476 0.364)" fill="#e01b22"/>
    <path id="Path_10" data-name="Path 10" d="M13.724,46.158a2.788,2.788,0,0,1,1.012-1.429A11.987,11.987,0,0,0,19.8,47.081l2.471.626,7.759-1.339c3.636-.01,3.743,3.012,3.2,3.808L23.62,51.784l-4.947-1.273a10.4,10.4,0,0,1-4.117-1.8,2.433,2.433,0,0,1-.833-2.551m1.874,6.6.3-.563,7.55,1.986,7.955-1.341c2.518.12,2.4,3.206,2.507,3.436L23.855,57.816l-3.5-.9q-5.456-1.4-4.757-4.162m9.017,11.425-1.544-.4q-4.52-1.158-3.72-4.283l.065-.281,4.3,1.1,7.443-1.273c1.616.224,4.447,2.76,1.995,3.649Z" transform="translate(0.583 1.937)" fill="#fefefe"/>
    <path id="Path_11" data-name="Path 11" d="M46.3,62.215a34.311,34.311,0,0,1-12.322,6.14l-1.828-.422a12.62,12.62,0,0,1-2.308-.894l6.4-1.093c2.093-2.629-.478-5.324-2.567-5.885,0,0,6.282-2.258.463-6.242,0,0,3.48-4.525-1.206-6.528,0,0,4.787-7.119-5.392-8.649a18.8,18.8,0,0,0-2.552-.31,21.116,21.116,0,0,0-3.252.257l-3.8-.919,1.594,2.9,2.218.47a28.477,28.477,0,0,1,3.366-.328,31.622,31.622,0,0,1,4.1.146c2.149.561,3.547,2.893,2.533,4.243l-9.428,1.66-2.838-.78a6.852,6.852,0,0,1-4.276-3.091,6.328,6.328,0,0,1-.738-5.063q.764-2.989,4.867-3.479,4.116-.526,11.542,1.38l1.682.429.292-1.319c.939-3.671-.066-7.288-1.459-11.955l-.338-1.184a10.089,10.089,0,0,1-.315-5.358,7.6,7.6,0,0,1,6.978-5.321c2.112,2.214,1.254,12.079,1.254,12.079l5.212,9.43q1.615,3.6,2.408,5.538,1.909,4.966,3.218,6.056c.877.724,5.278,9.568-3.51,18.1" transform="translate(0.61 0.474)" fill="#fefefe"/>
    <path id="Path_12" data-name="Path 12" d="M43.729.072C31.389.072,24.442,4.757,24.271,5A5.716,5.716,0,0,0,28.129,8.01c.844,0,16.126-9.056,42.729,2.495,11.55,4.23,24.456,7.964,38.938,7.964a65.377,65.377,0,0,0,7.716-.455,104.219,104.219,0,0,0,31.6-8.826l-.106-.214a148.6,148.6,0,0,1-31.881,7.607C100.535,18.565,84.936,13.31,72.56,7.63,61.1,1.869,51.374.072,43.729.072" transform="translate(1.044 0)" fill="#06509e"/>
    <path id="Path_14" data-name="Path 14" d="M47.021,9.966a34.2,34.2,0,0,0-3.6.194c0,.817.655,4.165,1.6,4.165,14.252-1.358,23.747,5.721,41.536,5.105v-.1C70.073,19.2,62,9.966,47.021,9.966" transform="translate(1.875 0.429)" fill="#06509e"/>
  </g>
</svg>
