<svg xmlns="http://www.w3.org/2000/svg" width="22.042" height="23" viewBox="0 0 22.042 23">
  <g id="svgexport-6_9_" data-name="svgexport-6 (9)" transform="translate(0)">
    <path id="Path_23000" data-name="Path 23000" d="M135.667,345.165a3.833,3.833,0,1,1-3.833-3.833A3.833,3.833,0,0,1,135.667,345.165Zm0,0" transform="translate(-122.25 -325.999)" fill="#ffa000"/>
    <path id="Path_23001" data-name="Path 23001" d="M16.3,52.176A6.693,6.693,0,0,1,11.11,42.85a6.686,6.686,0,0,0-8.235,6.526v2.672A6.426,6.426,0,0,1,.586,56.967a1.677,1.677,0,0,0,1.091,2.951H17.49a1.677,1.677,0,0,0,1.081-2.959A6.417,6.417,0,0,1,16.3,52.176Zm0,0" transform="translate(0 -40.751)" fill="#ffc107"/>
    <path id="Path_23002" data-name="Path 23002" d="M286.915,4.792A4.792,4.792,0,1,1,282.124,0,4.792,4.792,0,0,1,286.915,4.792Zm0,0" transform="translate(-264.874)" fill="#f44336"/>
  </g>
</svg>
