<svg xmlns="http://www.w3.org/2000/svg" xmlns:xlink="http://www.w3.org/1999/xlink" width="363" height="170.066" viewBox="0 0 363 170.066">
  <defs>
    <linearGradient id="linear-gradient" x1="0.169" y1="0.237" x2="0.944" y2="0.877" gradientUnits="objectBoundingBox">
      <stop offset="0" stop-color="#357bcb"/>
      <stop offset="1" stop-color="#002a5c"/>
    </linearGradient>
    <filter id="Path_24724" x="0" y="0" width="363" height="170.066" filterUnits="userSpaceOnUse">
      <feOffset input="SourceAlpha"/>
      <feGaussianBlur stdDeviation="3" result="blur"/>
      <feFlood flood-opacity="0.255"/>
      <feComposite operator="in" in2="blur"/>
      <feComposite in="SourceGraphic"/>
    </filter>
    <linearGradient id="linear-gradient-2" x1="0.041" y1="0.118" x2="0.93" y2="0.876" gradientUnits="objectBoundingBox">
      <stop offset="0" stop-color="#c29a54"/>
      <stop offset="1" stop-color="#91733d"/>
    </linearGradient>
    <filter id="Path_24713" x="31.377" y="92.695" width="45.108" height="43.869" filterUnits="userSpaceOnUse">
      <feOffset input="SourceAlpha"/>
      <feGaussianBlur stdDeviation="3" result="blur-2"/>
      <feFlood flood-opacity="0.161"/>
      <feComposite operator="in" in2="blur-2"/>
      <feComposite in="SourceGraphic"/>
    </filter>
    <filter id="Path_24714" x="35.623" y="96.748" width="36.615" height="35.764" filterUnits="userSpaceOnUse">
      <feOffset input="SourceAlpha"/>
      <feGaussianBlur stdDeviation="3" result="blur-3"/>
      <feFlood flood-opacity="0.29"/>
      <feComposite operator="in" in2="blur-3"/>
      <feComposite in="SourceGraphic"/>
    </filter>
  </defs>
  <g id="Group_46827" data-name="Group 46827" transform="translate(-6 -232)">
    <g transform="matrix(1, 0, 0, 1, 6, 232)" filter="url(#Path_24724)">
      <path id="Path_24724-2" data-name="Path 24724" d="M7,0H338a7,7,0,0,1,7,7V145.066a7,7,0,0,1-7,7H7a7,7,0,0,1-7-7V7A7,7,0,0,1,7,0Z" transform="translate(9 9)" fill="url(#linear-gradient)"/>
    </g>
    <g id="Group_46832" data-name="Group 46832" transform="translate(12243.315 11571.414)" opacity="0.299">
      <path id="Path_2" data-name="Path 2" d="M33.858,33.7,26.4,29.25l-7.347,4.6,1.937-8.462L14.33,19.811l8.643-.775,3.243-8.049,3.413,7.976,8.652.6-6.532,5.7Z" transform="translate(-11986.886 -11323.11)" fill="#002550" fill-rule="evenodd"/>
      <path id="Path_4" data-name="Path 4" d="M14.743,22.122l-3.908-3.616L5.847,20.331l2.232-4.816-3.258-4.2,5.266.637,2.97-4.414,1.022,5.219,5.116,1.466-4.638,2.593Z" transform="translate(-11997.849 -11326.955)" fill="#002550" fill-rule="evenodd"/>
      <path id="Path_6" data-name="Path 6" d="M28.388,41.447,17.952,39.168,11.177,47.4l-1.048-10.61L.186,32.886l9.779-4.3.652-10.638,7.1,7.959L28.03,23.242l-5.38,9.213Z" transform="translate(-12003.185 -11315.085)" fill="#002550" fill-rule="evenodd"/>
      <path id="Subtraction_11" data-name="Subtraction 11" d="M47.851,127.784h0c-2.594-.461-4.329-.811-5.46-1.1a44.1,44.1,0,0,1-10.725-4.6l-3.906.832-4.145-1.037c-4.7-1.213-8.053-2.986-9.968-5.269s-2.446-5.135-1.59-8.49a11.191,11.191,0,0,1,.64-1.679c-3.378-1.174-5.751-2.828-7.053-4.915a9.561,9.561,0,0,1-.8-7.675c.193-.7.492-1.592.888-2.654a11.77,11.77,0,0,1-4.979-4.96,9.8,9.8,0,0,1-.362-6.553,12.286,12.286,0,0,1,3.747-5.819A18.487,18.487,0,0,1,2.125,60.1,12.859,12.859,0,0,1,6.1,53.531a19.161,19.161,0,0,1,7.857-3.93,35.137,35.137,0,0,1,8.97-1.089,61.172,61.172,0,0,1,15,2.109l2.4.624c.541-4.594-.493-8.63-1.589-12.9l0-.008,0-.016,0-.013c-.333-1.3-.677-2.639-.99-4.042l-.862-3.087c-1.695-7.163-2.1-12.548-1.217-16.008A19.544,19.544,0,0,1,43.042,4.065,22.5,22.5,0,0,1,56.436,0c.146,0,.314,0,.545.006,1.561.257,2.825,1.93,3.759,4.973a47.359,47.359,0,0,1,1.6,9.843,130.767,130.767,0,0,1,.226,13.965L72.19,46.2c.881,1.773,2.352,5.17,4.253,9.823l1.779,4.239c1.931,4.761,3.31,7.633,4.218,8.782a23.5,23.5,0,0,1,2.67,4.5,33.046,33.046,0,0,1,2.959,10.608A32.258,32.258,0,0,1,86,99.1c-2.334,6.073-6.509,11.971-12.411,17.532a76.86,76.86,0,0,1-12.853,7.2,58.949,58.949,0,0,1-12.885,3.953ZM28.552,61.82h.234a29.024,29.024,0,0,1,4.2.469c.339.055.7.115,1.067.171,6.857,1.031,11.146,3.4,12.746,7.033a9.975,9.975,0,0,1,.026,7.307,15.863,15.863,0,0,1-1.648,3.5c2.662,1.14,4.291,2.784,4.84,4.886,1.062,4.06-2.32,8.538-2.355,8.582,3.653,2.5,5.358,4.924,5.066,7.2-.135,1.05-.8,2.635-3.188,4.219a15.119,15.119,0,0,1-2.833,1.457,10.034,10.034,0,0,1,6.577,5.974A6.369,6.369,0,0,1,52,118.781l-13.2,2.256a26.068,26.068,0,0,0,4.76,1.844l3.77.869a78.277,78.277,0,0,0,13.716-5.228,65.448,65.448,0,0,0,11.7-7.437,37.657,37.657,0,0,0,9.085-13.17,28.8,28.8,0,0,0,2.006-11.738c-.289-7.171-3.116-11.817-3.85-12.423-1.79-1.491-4.023-5.694-6.637-12.491-1.106-2.7-2.776-6.548-4.966-11.423L57.636,30.39v-.013c.045-.542.434-5.45.338-10.732-.092-5.161-.675-11.809-2.926-14.17A17.4,17.4,0,0,0,45.822,8.9a13.793,13.793,0,0,0-5.165,7.551c-.806,3.113-.587,6.831.65,11.051l.7,2.442a103.586,103.586,0,0,1,3.308,13.1,27.885,27.885,0,0,1-.3,11.558l-.6,2.72-3.47-.883c-7.927-2.046-14.586-3.084-19.792-3.084a32.057,32.057,0,0,0-4.016.235,14.478,14.478,0,0,0-6.742,2.3,8.359,8.359,0,0,0-3.3,4.876,13.731,13.731,0,0,0-.339,5.407,13.4,13.4,0,0,0,1.859,5.037,14.182,14.182,0,0,0,8.819,6.377l5.854,1.61,19.447-3.424a3.957,3.957,0,0,0,.4-3.779,8.308,8.308,0,0,0-5.63-4.973,54.859,54.859,0,0,0-6.922-.319c-.62,0-1.152.006-1.537.018a58.742,58.742,0,0,0-6.942.677l-4.576-.969-3.289-5.972,7.835,1.9A44.219,44.219,0,0,1,28.552,61.82ZM17.235,107.91h0l-.134.579a5.856,5.856,0,0,0,.475,4.585c1.111,1.882,3.532,3.312,7.2,4.251l3.185.835,17.607-3.076c1.4-.507,2.079-1.333,1.968-2.388-.229-2.163-3.731-4.813-6.083-5.139L26.1,110.183l-8.862-2.273ZM9.988,93.43h0L9.36,94.593a4.728,4.728,0,0,0,1.729,4.99c1.628,1.424,4.347,2.633,8.083,3.595l7.22,1.85,20.748-3.18a3.019,3.019,0,0,1-.087-.579c-.186-1.722-.679-6.3-5.085-6.508L25.561,97.526,9.988,93.43Zm-2.406-15.4h0a5.718,5.718,0,0,0-2.087,2.949,5.041,5.041,0,0,0,1.718,5.261c1.753,1.493,4.531,2.709,8.491,3.717l10.2,2.626,19.828-3.316a5.087,5.087,0,0,0-.15-4.721c-.755-1.431-2.48-3.136-6.408-3.136h-.037L23.134,84.177l-5.1-1.292c-4.8-1.247-8.316-2.879-10.455-4.851Z" transform="translate(-11979.363 -11317.541)" fill="#002550"/>
    </g>
    <text id="_0" data-name="0" transform="translate(36 290.897)" fill="#fff" font-size="29" font-family="Poppins-Regular, Poppins"><tspan x="0" y="0">0</tspan></text>
    <text id="Points" transform="translate(61.234 289.43)" fill="#fff" font-size="13" font-family="Poppins-Regular, Poppins"><tspan x="0" y="0">Points</tspan></text>
    <g id="Group_46825" data-name="Group 46825" transform="translate(36 323.881)">
      <g id="Group_46759" data-name="Group 46759" transform="translate(62.063 6.249)">
        <text id="Complete_35_with_10_more_bets_or_games_by_Jul_33_to_achieve_bronze_status." data-name="Complete 35% with 10 more bets or games by Jul  33 to achieve bronze status." transform="translate(0.002 12)" fill="#fff" font-size="8" font-family="Poppins-Regular, Poppins"><tspan x="0" y="8" xml:space="preserve">Complete 35% with 10 more bets or games by Jul  33 to </tspan><tspan x="0" y="20">achieve bronze status.</tspan></text>
        <text id="Achieve_Platinum" data-name="Achieve Platinum" transform="translate(0 8)" fill="#fff" font-size="11" font-family="Poppins-Medium, Poppins" font-weight="500"><tspan x="0" y="0">Achieve Platinum</tspan></text>
      </g>
      <g id="Path_24726" data-name="Path 24726" transform="translate(0 0)" fill="none" opacity="0.436">
        <path d="M23.931,0A23.772,23.772,0,0,1,47.863,23.609,23.772,23.772,0,0,1,23.931,47.218a25.6,25.6,0,0,1-3.125-.2A23.658,23.658,0,0,1,0,23.609,23.772,23.772,0,0,1,23.931,0Z" stroke="none"/>
        <path d="M 23.93149757385254 1.499996185302734 C 20.90009689331055 1.499996185302734 17.96034812927246 2.085296630859375 15.19390869140625 3.2396240234375 C 12.52239608764648 4.354354858398438 10.12314605712891 5.950164794921875 8.062816619873047 7.982746124267578 C 6.003887176513672 10.0139274597168 4.387748718261719 12.37836456298828 3.259288787841797 15.0103874206543 C 2.091907501220703 17.73317527770996 1.499996185302734 20.62616539001465 1.499996185302734 23.60898590087891 C 1.499996185302734 29.03987503051758 3.513256072998047 34.26951599121094 7.168907165527344 38.33453369140625 C 10.78424835205078 42.354736328125 15.68947601318359 44.90966415405273 20.98314666748047 45.52894592285156 C 22.08697700500488 45.65966415405273 22.99627685546875 45.71796417236328 23.93149757385254 45.71796417236328 C 26.96289825439453 45.71796417236328 29.90264701843262 45.13266754150391 32.66908645629883 43.97833633422852 C 35.34059906005859 42.86361694335938 37.73984527587891 41.26779556274414 39.80017852783203 39.23522567749023 C 41.85910797119141 37.20404815673828 43.47524642944336 34.83960723876953 44.60370635986328 32.20759582519531 C 45.77108764648438 29.48479652404785 46.36299896240234 26.59180641174316 46.36299896240234 23.60898590087891 C 46.36299896240234 20.62616539001465 45.77108764648438 17.73317527770996 44.60370635986328 15.0103874206543 C 43.47524642944336 12.37836456298828 41.85910797119141 10.0139274597168 39.80017852783203 7.982746124267578 C 37.73984527587891 5.950164794921875 35.34059906005859 4.354354858398438 32.66908645629883 3.2396240234375 C 29.90264701843262 2.085296630859375 26.96289825439453 1.499996185302734 23.93149757385254 1.499996185302734 M 23.93149757385254 -3.814697265625e-06 C 37.14849853515625 -3.814697265625e-06 47.86299896240234 10.57010650634766 47.86299896240234 23.60898590087891 C 47.86299896240234 36.64787673950195 37.14849853515625 47.21796417236328 23.93149757385254 47.21796417236328 C 22.9666576385498 47.21796417236328 22.0151481628418 47.16164779663086 20.80673789978027 47.01853561401367 C 9.207279205322266 45.66158676147461 -3.814697265625e-06 35.69603729248047 -3.814697265625e-06 23.60898590087891 C -3.814697265625e-06 10.57010650634766 10.71449661254883 -3.814697265625e-06 23.93149757385254 -3.814697265625e-06 Z" stroke="none" fill="#fff"/>
      </g>
      <path id="Path_24727" data-name="Path 24727" d="M22.6,0a22.454,22.454,0,0,1,22.6,22.3A22.454,22.454,0,0,1,22.6,44.6a24.183,24.183,0,0,1-2.952-.188A22.347,22.347,0,0,1,0,22.3,22.454,22.454,0,0,1,22.6,0Z" transform="translate(1.478 1.458)" fill="none"/>
      <path id="Path_24727-2" data-name="Path 24727" d="M24.471,0h.194A24.035,24.035,0,0,1,45.58,12.409q.548,1,1,2.05a23.264,23.264,0,0,1,1.413,4.514l.01.047,0,.019A23.506,23.506,0,0,1,46.58,32.89q-.451,1.052-1,2.05A24.035,24.035,0,0,1,24.665,47.348H22.979l-.026,0h-.327l-.026,0h-.012l-.026,0h-.25l-.026,0h-.05l-.026,0H22.2l-.025,0h-.249l-.026,0h-.012l-.025,0H21.85l-.025,0h-.012l-.025,0h-.136l-.013,0h-.024l-.023,0h-.014l-.023,0h-.014l-.023,0H21.5l-.023,0h-.014l-.023,0h-.014l-.023,0h-.014l-.023,0h0l-.012,0H21.34l-.012,0h0l-.013,0H21.3l-.013,0-.012,0h-.012l-.012,0-.014,0h-.011l-.012,0h0l-.013,0-.012,0-.023,0-.012,0h0l-.023,0-.012,0h0l-.023,0-.012,0h0l-.023,0-.011,0-.014,0h0l-.014,0-.012,0-.012,0-.012,0h0l-.012,0-.011,0h0l-.012,0h0l-.013,0-.01,0h0l-.012,0h0l-.013,0-.01,0h0l-.023,0-.012,0h0l-.023,0-.012,0h0l-.024,0-.012,0h0l-.023,0-.012,0h0l-.023,0-.012,0h0l-.023,0h0l-.012,0-.024,0h0l-.013,0-.011,0h0l-.012,0h0l-.011,0h0l-.011,0h0l-.012,0h0l-.013,0-.01,0h0l-.024,0h0l-.011,0h0l-.023,0-.012,0h0l-.023,0-.012,0h0l-.023,0-.012,0h0l-.024,0-.011,0h0l-.023,0h0l-.012,0-.024,0h0l-.013,0-.023,0h0l-.011,0h0l-.035-.006h0l-.011,0h0l-.024,0h0l-.011,0h0l-.024,0-.012,0h0l-.024,0-.012,0h0l-.023,0-.012,0h0l-.024,0-.012,0h0l-.024,0h0l-.012,0-.036-.007h0l-.024,0h0l-.012,0h0l-.035-.007h0l-.035-.007h0L19.8,46.9h0l-.035-.007-.012,0h0l-.024,0-.012,0h0l-.024,0-.012,0h0l-.024,0h0l-.012,0-.036-.007h0l-.036-.007h0l-.035-.007h0l-.035-.007h0l-.035-.007h0l-.035-.007h0l-.035-.007-.012,0h0l-.024-.005-.012,0h0l-.024-.005-.012,0h0l-.023-.005h0l-.012,0-.024-.005h0l-.012,0-.035-.008h0l-.035-.008h0l-.035-.008h0l-.035-.008h0l-.036-.008h0l-.036-.008h0l-.011,0h0l-.024-.005h0l-.012,0h0l-.024-.006h0l-.012,0-.023-.005h0l-.012,0-.023-.005h0l-.011,0h0l-.035-.008h0l-.035-.008h0l-.035-.008h0l-.011,0h0l-.023-.006-.012,0h0l-.023-.006-.012,0h0l-.023-.006h0l-.011,0h0l-.023-.006-.012,0h0l-.023-.006h0l-.012,0-.023-.006h0l-.011,0h0l-.035-.009h0l-.035-.009h0l-.035-.009h0l-.034-.009h0l-.034-.009h0l-.011,0h0l-.023-.006h0l-.011,0h0l-.023-.006h0l-.011,0h0l-.023-.006h0l-.011,0h0l-.035-.009h0l-.035-.009h0l-.023-.006h0l-.011,0h0L18.1,46.5h0l-.011,0h0l-.011,0h0l-.023-.006h0l-.034-.009h0l-.01,0h0l-.023-.006h0l-.011,0h0l-.023-.006h0l-.011,0h0l-.023-.006h0l-.011,0h0l-.023-.007h0l-.011,0h0l-.023-.006h0l-.011,0h0l-.023-.007h0l-.011,0h0l-.023-.007h0l-.011,0h0l-.011,0h0L17.72,46.4h0l-.011,0h0l-.023-.007h0l-.011,0h0l-.023-.007h0l-.011,0h0l-.023-.007h0l-.011,0h0l-.023-.007h0l-.01,0h0l-.023-.007h0l-.011,0h0l-.023-.007h0l-.011,0h0l-.034-.01h0l-.023-.007h0l-.011,0h0l-.034-.01h0l-.011,0h0l-.023-.007h0l-.011,0h0l-.023-.007h0l-.011,0h0l-.023-.007h0l-.01,0h0l-.022-.007h0l-.01,0h0l-.022-.007h0l-.01,0h0l-.022-.007h0l-.01,0h0l-.022-.007h0l-.01,0h0l-.022-.007h0l-.01,0h0l-.033-.011h0l-.033-.011h0l-.01,0h0l-.011,0h0l-.011,0h0l-.01,0h0l-.022-.007h0l-.01,0h0l-.022-.007h0l-.01,0h0l-.022-.007h0l-.01,0h0l-.022-.007h0l-.009,0h0l-.022-.007h0l-.009,0h0l-.022-.007h0l-.01,0h0l-.022-.007h0l-.01,0h0l-.01,0h0l-.011,0h0l-.01,0h0l-.009,0h0l-.011,0h0l-.01,0h0l-.009,0h0l-.011,0h0l-.009,0h0l-.009,0h0l-.021-.007h0l-.009,0h0l-.021-.007h0l-.008,0h0l-.021-.007h0l-.009,0h0l-.021-.007h0l-.009,0h0L16.469,46h0l-.008,0h0l-.009,0h0l-.011,0h0l-.009,0h0l-.01,0h0l-.011,0h0l-.009,0h0l-.009,0h0l-.011,0h0l-.01,0h0l-.009,0h0l-.011,0h0l-.009,0h0l-.008,0h0l-.01,0h0l-.009,0h0l-.008,0h0l-.01,0h0l-.01,0h0l-.008,0h0l-.021-.008h0l-.009,0h0l-.021-.008h0l-.008,0h0l-.021-.008h0l-.008,0h0l-.009,0h0l-.01,0h0l-.008,0h0l-.008,0h0l-.01,0h0l-.008,0h0l-.008,0h0l-.01,0h0l-.008,0h0l-.008,0h0l-.01,0h0l-.008,0h0l-.007,0h0l-.01,0h0l-.008,0h0l-.007,0h0l-.01,0h0l-.009,0h0l-.007,0h0l-.01,0h0l-.009,0h0l-.007,0h0l-.01,0h0l-.01,0h0l-.007,0h0l-.009,0h0l-.01,0h0l-.007,0h0l-.009,0h0l-.01,0h0l-.007,0h0l-.008,0h0l-.01,0h0l-.007,0-.011,0h0l-.01,0-.01,0,0,0-.007,0h0l-.01,0h0l-.008,0h0l-.008,0h0l-.01,0h0l-.007,0-.011,0h0l-.01,0h0l-.008,0-.01,0,0,0-.009,0h0l-.007,0-.01,0-.011,0-.013-.005-.01,0,0,0-.007,0,0,0-.007,0-.01,0-.011,0-.006,0-.007,0-.01,0-.011,0,0,0-.009,0-.01,0-.01,0,0,0-.009,0-.01,0-.011,0,0,0-.009,0-.01,0-.01,0,0,0-.009,0-.01,0-.01,0,0,0-.008,0-.011,0-.01,0-.01,0-.008,0-.01,0-.01,0,0,0-.009,0-.01,0-.01,0,0,0-.01,0-.009,0-.01,0,0,0-.009,0-.01,0,0,0-.005,0,0,0-.007,0-.006,0,0,0-.01,0,0,0-.007,0-.006,0,0,0-.01,0,0,0-.019-.008-.01,0,0,0-.005,0,0,0-.01,0-.01,0,0,0-.006,0h0l-.011,0-.01,0,0,0-.006,0h0l-.01,0,0,0-.006,0,0,0-.006,0h0l-.012,0h0l-.006,0h0l-.006,0h0L14.9,45.39h0l-.006,0h0l-.006,0h0l-.012-.005h0l-.006,0h0l-.007,0h0l-.015-.007h0l-.007,0h0l-.007,0h0l-.022-.01h0l-.007,0h0l-.023-.01h0l-.007,0h0l-.023-.01h0l-.007,0h0l-.023-.01h0l-.007,0h0l-.023-.01h0l-.007,0h0l-.024-.011h0l-.007,0h0l-.031-.014h0l-.032-.014h0l-.032-.015h0A24.054,24.054,0,0,1,7.7,40.6h0l-.179-.175h0l-.057-.056h0l-.126-.126h0l-.025-.025h0L7.3,40.213h0l-.025-.025h0l-.025-.025h0l-.025-.025h0L7.2,40.111h0l-.025-.025h0l-.025-.025h0l-.025-.025h0L7.1,40.009h0l-.049-.051h0l-.024-.025h0L7,39.906H7L7,39.9H7l-.018-.019h0l-.006-.006h0l-.024-.026h0l-.024-.026h0L6.9,39.8h0L6.9,39.8h0l-.024-.025h0l-.024-.026h0l-.024-.026h0L6.8,39.691h0l-.006-.006h0l-.018-.019h0l-.006-.006h0l-.018-.019h0l-.006-.006h0l-.018-.019h0l-.006-.006h0L6.7,39.587h0L6.7,39.58h0l-.023-.025h0l-.023-.025h0L6.625,39.5h0l-.006-.006h0L6.6,39.474h0l-.024-.026h0L6.529,39.4h0l-.006-.006h0L6.5,39.362h0l-.023-.026h0l-.023-.026h0l-.023-.026h0l-.006-.006h0l-.017-.02h0L6.4,39.248h0l-.017-.019h0l-.006-.006h0L6.357,39.2h0l-.005-.006h0l-.016-.018h0l-.005-.006h0L6.3,39.141h0l-.017-.02h0l-.005-.006h0l-.022-.026h0l-.022-.026h0l-.022-.026h0l-.023-.026h0l-.023-.026h0l-.022-.026v0l-.005-.006h0l-.017-.019h0l-.005-.006h0L6.094,38.9h0l-.005-.006h0l-.017-.02h0l-.006-.007h0l-.017-.019h0l-.005-.006h0l-.016-.019h0l-.005-.006h0L6,38.789H6L6,38.782h0l-.017-.02h0l-.005-.006v0l0-.006h0l-.01-.012h0l0-.006v0l0-.006h0l-.011-.013h0l0-.006,0,0,0-.006h0L5.9,38.673v0l0-.006h0l-.016-.019h0l0-.006v0l-.015-.018v0l0-.006v0l-.015-.019h0l-.005-.006h0l-.016-.019h0l-.005-.006h0l-.016-.019h0l0-.006,0,0,0-.006h0l-.011-.014h0l0-.006v0l0-.006h0l-.011-.014h0l0-.006v0l-.021-.026h0l-.021-.026h0l0-.006h0l-.016-.019h0l0-.006h0l-.016-.02h0l-.005-.007h0l-.016-.02h0l0-.006h0l-.016-.02h0l0-.006h0l-.016-.02h0l-.005-.006h0l-.016-.02h0l-.005-.006h0l0-.006h0l-.011-.013h0l0-.006h0l-.021-.027h0l0-.006h0l-.015-.02h0l0-.006h0l-.016-.02h0l0-.006h0L5.445,38.1h0l0-.006h0l-.015-.019h0l0-.006v0L5.4,38.046h0l0-.006h0l-.016-.02h0l0-.006h0l-.021-.027h0l-.016-.02h0l0-.006,0,0,0-.006h0l-.015-.02v0l0-.006h0L5.287,37.9l0,0,0-.006v0l-.014-.019,0,0,0-.005,0,0-.013-.018,0,0,0-.006,0,0-.014-.018,0,0,0-.005,0,0L5.2,37.784l0,0,0-.006,0,0-.014-.019v0l0-.006v0l-.014-.019,0,0,0-.006v0l-.015-.02h0l0-.006h0l-.015-.02h0l0-.006v0l0-.006h0l-.01-.014h0l0-.006v0l0-.006h0l-.01-.013h0l0-.006v0l0-.006h0l-.015-.02v0l0-.006h0l-.015-.02h0l0-.006h0L5,37.518H5l0-.006v0l-.014-.019v0l0-.006,0,0-.014-.02h0l0-.006v0l-.014-.02h0l0-.006,0,0,0-.006h0l-.01-.013h0l0-.006,0,0,0-.006v0L4.9,37.373v0l0-.006,0,0,0-.006v0l-.009-.013h0l0-.006,0,0,0-.006v0l-.014-.019v0l0-.006h0l-.014-.019,0,0,0-.006,0,0L4.81,37.25l0,0,0-.006v0l-.014-.019v0l0-.006,0,0-.013-.019v0l0-.006v0l0-.006h0l-.009-.012,0,0,0-.006,0,0,0-.006v0l-.008-.012v0l0-.006,0,0,0-.006h0L4.707,37.1h0l0-.006,0,0,0-.006h0l-.014-.02v0l0-.006h0l-.014-.02v0l0-.006,0,0-.013-.019v0l0-.006v0l-.013-.019,0,0,0-.005,0,0L4.6,36.95l0,0,0-.005,0,0L4.58,36.92l0,0,0-.005,0,0,0-.005v0l-.008-.011,0,0,0-.005,0,0,0-.005h0l-.008-.012,0,0,0-.005,0,0,0-.005v0l-.008-.012h0l0-.006,0,0,0-.006v0L4.5,36.8v0l0-.006,0,0,0-.005v0l-.009-.013h0l0-.006v0l0-.006h0l-.014-.02,0,0,0-.006v0l-.013-.019,0,0,0-.006v0l-.013-.019,0,0,0-.006,0,0-.013-.019,0,0,0-.006v0l-.013-.019,0,0,0-.006v0l-.013-.02v0l0-.006,0,0,0-.006h0l-.008-.012,0,0,0-.006,0,0,0-.006h0l-.008-.012v0l0-.006,0,0,0-.006v0L4.3,36.5v0l0-.006,0,0,0-.006v0l-.009-.013h0l0-.006,0,0,0-.006v0l-.009-.013h0l0-.006,0,0,0-.006v0l-.013-.02v0l0-.006,0,0-.013-.02v0l0-.006v0l-.013-.02v0l0-.006v0l-.013-.02v0l0-.006v0l-.013-.021h0l0-.006v0l-.013-.021h0l0-.006v0l0-.006h0l-.009-.013h0l0-.006v0l0-.006v0L4.1,36.187h0l0-.006,0,0,0-.006v0l-.013-.02v0l0-.007h0l-.013-.021h0l0-.007h0l-.013-.021v0l0-.006v0l-.012-.02v0l0-.006v0L4,36.029v0l0-.006,0,0,0-.006v0L3.979,36v0l0-.006,0,0,0-.006h0l-.008-.013v0l0-.006,0,0,0-.006,0,0-.007-.012v0l0-.006v0l0-.006h0l-.008-.013h0l0-.006v0l0-.006h0L3.9,35.867h0l0-.007h0l-.013-.021v0l0-.006v0l-.013-.021h0l0,0a.655.655,0,0,1,1.121-.678A22.679,22.679,0,0,0,13.1,43.032a23.025,23.025,0,0,0,20.2,1.248,22.631,22.631,0,0,0,7.211-4.8,22.277,22.277,0,0,0,4.858-7.109,22.15,22.15,0,0,0,0-17.4,22.276,22.276,0,0,0-4.858-7.109A22.773,22.773,0,0,0,24.471,1.31a.655.655,0,1,1,0-1.31Z" transform="translate(-0.476 0.185)" fill="#fff"/>
    </g>
    <text id="_20_500_points_10_Days_to_complete_your_level." data-name="20,500 points (10 Days) to complete your level." transform="translate(36 308.43)" fill="#000c1c" font-size="11" font-family="Poppins-Regular, Poppins"><tspan x="0" y="0">20,500 points (10 Days) to complete your level.</tspan></text>
    <g id="Group_46825-2" data-name="Group 46825" transform="translate(46.377 333.695)">
      <g transform="matrix(1, 0, 0, 1, -40.38, -101.7)" filter="url(#Path_24713)">
        <path id="Path_24713-2" data-name="Path 24713" d="M22.1,25.7l-8.44-5.035-8.314,5.2,2.194-9.577L0,9.986l9.784-.878L13.455,0l3.862,9.027,9.792.676-7.4,6.456Z" transform="translate(40.38 101.7)" fill-rule="evenodd" fill="url(#linear-gradient-2)"/>
      </g>
      <g transform="matrix(1, 0, 0, 1, -40.38, -101.7)" filter="url(#Path_24714)">
        <path id="Path_24714-2" data-name="Path 24714" d="M15.176,17.65l-5.8-3.458L3.672,17.764l1.507-6.576L0,6.857l6.718-.6L9.239,0l2.652,6.2,6.724.464L13.536,11.1Z" transform="translate(44.62 105.75)" fill="url(#linear-gradient-2)"/>
      </g>
    </g>
  </g>
</svg>
