<svg xmlns="http://www.w3.org/2000/svg" width="192.736" height="93.027" viewBox="0 0 192.736 93.027">
  <g id="Group_46868" data-name="Group 46868" transform="translate(-96.404 -266.117)">
    <path id="Title" d="M-94.64-5.856v-4.1H-92.5c1.664,0,2.368.768,2.368,2.064,0,1.248-.7,2.032-2.368,2.032Zm6-2.032c0-1.824-1.232-3.264-3.856-3.264h-3.6V0h1.456V-4.656H-92.5C-89.728-4.656-88.64-6.192-88.64-7.888ZM-87.344,0h1.456V-11.84h-1.456Zm7.152-7.68a2.573,2.573,0,0,1,2.768,2.656H-82.96A2.715,2.715,0,0,1-80.192-7.68ZM-76.1-2.7h-1.568a2.41,2.41,0,0,1-2.464,1.616A2.756,2.756,0,0,1-82.976-3.84h7.008a7.891,7.891,0,0,0,.048-.88,4.019,4.019,0,0,0-4.208-4.192A4.172,4.172,0,0,0-84.464-4.4,4.224,4.224,0,0,0-80.128.144,3.943,3.943,0,0,0-76.1-2.7Zm1.04-1.712c0,2.72,1.808,4.56,4.144,4.56a3.662,3.662,0,0,0,3.28-1.776V0h1.472V-8.768h-1.472v1.6A3.639,3.639,0,0,0-70.9-8.912,4.155,4.155,0,0,0-75.056-4.416Zm7.424.016a3,3,0,0,1-2.976,3.264,3,3,0,0,1-2.96-3.28,2.96,2.96,0,0,1,2.96-3.232A3,3,0,0,1-67.632-4.4ZM-57.9-2.384c-.064-3.136-5.152-2-5.152-4.08,0-.7.64-1.216,1.712-1.216a1.686,1.686,0,0,1,1.9,1.52h1.456c-.1-1.712-1.376-2.752-3.312-2.752-1.952,0-3.216,1.1-3.216,2.448,0,3.264,5.184,2.128,5.184,4.08,0,.72-.64,1.3-1.792,1.3-1.232,0-1.984-.64-2.064-1.488h-1.5c.1,1.6,1.536,2.72,3.584,2.72C-59.168.144-57.9-.944-57.9-2.384Zm5.264-5.3a2.573,2.573,0,0,1,2.768,2.656h-5.536A2.715,2.715,0,0,1-52.64-7.68Zm4.1,4.976h-1.568a2.41,2.41,0,0,1-2.464,1.616A2.756,2.756,0,0,1-55.424-3.84h7.008a7.893,7.893,0,0,0,.048-.88,4.019,4.019,0,0,0-4.208-4.192A4.172,4.172,0,0,0-56.912-4.4,4.224,4.224,0,0,0-52.576.144,3.943,3.943,0,0,0-48.544-2.7Zm11.312-5.168c0,1.248-.72,2.144-2.368,2.144h-2.144V-9.952H-39.6C-37.936-9.952-37.232-9.136-37.232-7.872Zm-5.968-3.28V0h1.456V-4.56h1.76L-37.328,0h1.744l-2.8-4.672a3.145,3.145,0,0,0,2.656-3.2c0-1.824-1.248-3.28-3.872-3.28ZM-25.664-4.4A4.28,4.28,0,0,0-30.1-8.912,4.289,4.289,0,0,0-34.528-4.4,4.257,4.257,0,0,0-30.16.144,4.347,4.347,0,0,0-25.664-4.4Zm-7.376,0a2.907,2.907,0,0,1,2.928-3.248A2.946,2.946,0,0,1-27.152-4.4,2.977,2.977,0,0,1-30.16-1.136C-31.68-1.136-33.04-2.176-33.04-4.4Zm9.1,2c0,1.76.88,2.4,2.432,2.4h1.312V-1.232h-1.072c-.9,0-1.216-.3-1.216-1.168V-7.568h2.288v-1.2H-22.48v-2.208h-1.456v2.208h-1.136v1.2h1.136Zm4.448-2.016c0,2.72,1.808,4.56,4.144,4.56a3.662,3.662,0,0,0,3.28-1.776V0h1.472V-8.768h-1.472v1.6a3.639,3.639,0,0,0-3.264-1.744A4.155,4.155,0,0,0-19.488-4.416Zm7.424.016A3,3,0,0,1-15.04-1.136,3,3,0,0,1-18-4.416a2.96,2.96,0,0,1,2.96-3.232A3,3,0,0,1-12.064-4.4Zm3.744,2c0,1.76.88,2.4,2.432,2.4h1.312V-1.232H-5.648c-.9,0-1.216-.3-1.216-1.168V-7.568h2.288v-1.2H-6.864v-2.208H-8.32v2.208H-9.456v1.2H-8.32ZM.4-7.68A2.573,2.573,0,0,1,3.168-5.024H-2.368A2.715,2.715,0,0,1,.4-7.68ZM4.5-2.7H2.928A2.41,2.41,0,0,1,.464-1.088,2.756,2.756,0,0,1-2.384-3.84H4.624a7.893,7.893,0,0,0,.048-.88A4.019,4.019,0,0,0,.464-8.912,4.172,4.172,0,0,0-3.872-4.4,4.224,4.224,0,0,0,.464.144,3.943,3.943,0,0,0,4.5-2.7Zm8.064-1.5V0h1.456V-4.208l3.632-6.944H16.032L13.28-5.5l-2.752-5.648H8.912ZM26.992-4.4A4.28,4.28,0,0,0,22.56-8.912,4.289,4.289,0,0,0,18.128-4.4,4.257,4.257,0,0,0,22.5.144,4.347,4.347,0,0,0,26.992-4.4Zm-7.376,0a2.907,2.907,0,0,1,2.928-3.248A2.946,2.946,0,0,1,25.5-4.4,2.977,2.977,0,0,1,22.5-1.136C20.976-1.136,19.616-2.176,19.616-4.4Zm16.56-4.368H34.72v4.816c0,1.888-1.008,2.816-2.512,2.816-1.472,0-2.448-.912-2.448-2.688V-8.768H28.32v5.136a3.421,3.421,0,0,0,3.6,3.76A3.223,3.223,0,0,0,34.72-1.3V0h1.456Zm3.408,4c0-2.032,1.056-2.656,2.448-2.656h.384v-1.5a2.953,2.953,0,0,0-2.832,1.584V-8.768H38.128V0h1.456Zm11.232-6.384H47.344V0h3.472c3.664,0,5.92-2.1,5.92-5.552S54.48-11.152,50.816-11.152ZM48.8-1.2V-9.968h2.016c2.912,0,4.432,1.7,4.432,4.416S53.728-1.2,50.816-1.2ZM61.872-7.68A2.573,2.573,0,0,1,64.64-5.024H59.1A2.715,2.715,0,0,1,61.872-7.68Zm4.1,4.976H64.4a2.41,2.41,0,0,1-2.464,1.616A2.756,2.756,0,0,1,59.088-3.84H66.1a7.893,7.893,0,0,0,.048-.88,4.019,4.019,0,0,0-4.208-4.192A4.172,4.172,0,0,0,57.6-4.4,4.224,4.224,0,0,0,61.936.144,3.943,3.943,0,0,0,65.968-2.7Zm.544-6.064L69.952,0h1.7l3.44-8.768H73.536l-2.72,7.424L68.08-8.768ZM76.016,0h1.456V-8.768H76.016Zm.752-10.192a.97.97,0,0,0,.96-.992.97.97,0,0,0-.96-.992.977.977,0,0,0-.992.992A.977.977,0,0,0,76.768-10.192ZM78.9-4.4c0,2.784,1.776,4.544,4.272,4.544a3.9,3.9,0,0,0,4.048-2.96H85.648a2.352,2.352,0,0,1-2.48,1.728c-1.6,0-2.784-1.136-2.784-3.312,0-2.144,1.184-3.28,2.784-3.28a2.389,2.389,0,0,1,2.48,1.728h1.568a3.81,3.81,0,0,0-4.048-2.96A4.166,4.166,0,0,0,78.9-4.4ZM92.368-7.68a2.573,2.573,0,0,1,2.768,2.656H89.6A2.715,2.715,0,0,1,92.368-7.68Zm4.1,4.976H94.9a2.41,2.41,0,0,1-2.464,1.616A2.756,2.756,0,0,1,89.584-3.84h7.008a7.893,7.893,0,0,0,.048-.88,4.019,4.019,0,0,0-4.208-4.192A4.172,4.172,0,0,0,88.1-4.4,4.224,4.224,0,0,0,92.432.144,3.943,3.943,0,0,0,96.464-2.7Z" transform="translate(192.5 359)" fill="#fff"/>
    <g id="Group_46867" data-name="Group 46867" transform="translate(22974.959 6562.847)">
      <path id="Path_24738" data-name="Path 24738" d="M23.821,128.211a4.1,4.1,0,0,1,2.552.983c.183.161.355.335.528.507Q42.95,145.746,59,161.788a3.9,3.9,0,0,1,1.157,4.342,4.53,4.53,0,0,1-1.024,1.6q-8.019,8.075-16.086,16.1a3.922,3.922,0,0,1-5.853,0q-16.218-16.2-32.424-32.421a3.909,3.909,0,0,1-.008-5.8q8.059-8.082,16.139-16.144a4.193,4.193,0,0,1,2.919-1.256M5.482,148.565a8.679,8.679,0,0,0,.949,1.449q16.056,16.092,32.14,32.155a1.888,1.888,0,0,0,3.1,0q3.227-3.222,6.449-6.448,4.683-4.683,9.373-9.36a1.908,1.908,0,0,0,.617-2.152,3.288,3.288,0,0,0-.794-1.045Q41.392,147.224,25.454,131.3c-.11-.11-.219-.221-.332-.326a1.794,1.794,0,0,0-2.67.007q-8.108,8.084-16.184,16.2a6.412,6.412,0,0,0-.785,1.39" transform="translate(-22814.115 -6423.888)" fill="#c4c4c4"/>
      <path id="Path_24739" data-name="Path 24739" d="M19.219,206.458c-.628-1.185-1.178-2.218-1.723-3.253-.4-.763-.3-1.343.29-1.676.611-.346,1.182-.112,1.606.678.871,1.619,1.742,3.237,2.6,4.863a1.577,1.577,0,0,1-.745,2.432c-1.641.876-3.289,1.738-4.933,2.608a1.039,1.039,0,0,1-1.385-.211.961.961,0,0,1-.078-1.282,1.851,1.851,0,0,1,.614-.482c.968-.531,1.948-1.043,2.9-1.548-1.541-.78-3.129-1.447-4.578-2.341A26.18,26.18,0,0,1,1.273,187.894c-.083-.458-.161-.916-.22-1.377a1.134,1.134,0,0,1,.915-1.329,1.05,1.05,0,0,1,1.2.97,25.673,25.673,0,0,0,1.683,6.537,24.25,24.25,0,0,0,13.587,13.49c.2.082.407.144.781.274" transform="translate(-22813 -6449.963)" fill="#c4c4c4"/>
      <path id="Path_24740" data-name="Path 24740" d="M74.819,132.089c.646,1.212,1.269,2.281,1.778,3.4a1.573,1.573,0,0,1-.056,1.222,1.158,1.158,0,0,1-.955.391,1.217,1.217,0,0,1-.81-.569q-1.459-2.608-2.826-5.267a1.481,1.481,0,0,1,.681-2.141c1.693-.919,3.4-1.815,5.108-2.7a1.074,1.074,0,1,1,.993,1.9c-1.024.564-2.064,1.1-3.184,1.7A26.677,26.677,0,0,1,92.9,151.582c.159,1.134-.151,1.728-.906,1.789-.71.058-1.079-.473-1.232-1.576a24.061,24.061,0,0,0-7.517-14.583,23.3,23.3,0,0,0-8.426-5.124" transform="translate(-22845.359 -6423)" fill="#c4c4c4"/>
      <path id="Path_24741" data-name="Path 24741" d="M76.846,204.536a2.936,2.936,0,0,1,2.979-2.982,2.994,2.994,0,0,1,3,2.98,3.04,3.04,0,0,1-3,3.006,3,3,0,0,1-2.981-3m2.139-.087a.832.832,0,0,0,.775.906.777.777,0,0,0,.881-.715.838.838,0,0,0-.724-.946.862.862,0,0,0-.932.755" transform="translate(-22847.699 -6457.461)" fill="#c4c4c4"/>
      <path id="Path_24742" data-name="Path 24742" d="M27.765,147.1a5.667,5.667,0,0,1-.585.939q-1.9,1.946-3.846,3.852a1.08,1.08,0,1,1-1.535-1.5c1.291-1.307,2.594-2.6,3.894-3.9.356-.355.792-.58,1.247-.288a4.785,4.785,0,0,1,.824.894" transform="translate(-22822.313 -6432.066)" fill="#c4c4c4"/>
      <path id="Path_24743" data-name="Path 24743" d="M80.787,206.252a.862.862,0,0,1,.932-.755.838.838,0,0,1,.724.946.777.777,0,0,1-.881.715.832.832,0,0,1-.775-.906" transform="translate(-22849.502 -6459.264)" fill="#c4c4c4"/>
    </g>
  </g>
</svg>
