<svg xmlns="http://www.w3.org/2000/svg" width="21.925" height="22.909" viewBox="0 0 21.925 22.909">
  <g id="svgexport-6_3_" data-name="svgexport-6 (3)" transform="translate(-10.997)">
    <g id="Group_46732" data-name="Group 46732" transform="translate(10.997)">
      <path id="Path_24681" data-name="Path 24681" d="M29.894,40.523a10.962,10.962,0,1,0-16.409-.611Z" transform="translate(-10.997 -21.012)" fill="#ff8f00"/>
      <path id="Path_24682" data-name="Path 24682" d="M93.626,22.909a10.931,10.931,0,0,0,7.975-3.441V2.338A2.341,2.341,0,0,0,99.262,0h-10.9A2.341,2.341,0,0,0,86.02,2.338v17.5A10.925,10.925,0,0,0,93.626,22.909Z" transform="translate(-82.663 0)" fill="#167cc1"/>
      <path id="Path_24683" data-name="Path 24683" d="M91.9.819A.812.812,0,0,1,91.669,0H88.358A2.341,2.341,0,0,0,86.02,2.338v17.25l2.62,2.122a10.885,10.885,0,0,0,2,.787V4.091a1.081,1.081,0,0,1,.54-.971.177.177,0,0,0,.082-.194.556.556,0,0,1,.282-.627.173.173,0,0,0,.081-.157.484.484,0,0,1,.252-.422.176.176,0,0,0,.084-.149V.949A.175.175,0,0,0,91.9.819Z" transform="translate(-82.663)" fill="#024788"/>
      <path id="Path_24684" data-name="Path 24684" d="M130.321,32.514h-1.639a.553.553,0,0,0-.553.553.649.649,0,0,1-.647.647h-5.227a.649.649,0,0,1-.647-.647.553.553,0,0,0-.553-.553h-1.639a.884.884,0,0,0-.884.883V52.081a10.965,10.965,0,0,0,12.671-.262V33.4A.883.883,0,0,0,130.321,32.514Z" transform="translate(-113.722 -31.059)" fill="#e9efff"/>
      <path id="Path_24685" data-name="Path 24685" d="M122.321,33.984a.574.574,0,0,1,0-.272h-.065a.649.649,0,0,1-.647-.647.553.553,0,0,0-.553-.553h-1.639a.884.884,0,0,0-.884.883V51.825l1.168.946a10.887,10.887,0,0,0,2,.784V35.149a1.081,1.081,0,0,1,.54-.971A.177.177,0,0,0,122.321,33.984Z" transform="translate(-113.722 -31.058)" fill="#d3dcfb"/>
      <path id="Path_24686" data-name="Path 24686" d="M121.694,23.482h-1.639a.958.958,0,0,0-.957.957.246.246,0,0,1-.242.242h-5.227a.246.246,0,0,1-.242-.242.958.958,0,0,0-.957-.957h-1.639A1.289,1.289,0,0,0,109.5,24.77v18.4q.391.292.808.549V24.77a.48.48,0,0,1,.479-.479h1.639a.149.149,0,0,1,.149.149,1.052,1.052,0,0,0,1.051,1.051h5.227a1.052,1.052,0,0,0,1.051-1.051.149.149,0,0,1,.149-.149h1.639a.48.48,0,0,1,.479.479V43.477q.418-.282.808-.6V24.77a1.289,1.289,0,0,0-1.288-1.288Z" transform="translate(-105.095 -22.431)" fill="#1e92d3"/>
      <path id="Path_24687" data-name="Path 24687" d="M113.629,24.682a.246.246,0,0,1-.242-.242.958.958,0,0,0-.957-.957h-1.639A1.289,1.289,0,0,0,109.5,24.77v18.1l.808.655V24.77a.48.48,0,0,1,.479-.479h1.639a.149.149,0,0,1,.149.149,1.052,1.052,0,0,0,1.051,1.051h.045a.18.18,0,0,0,.02-.132.556.556,0,0,1,.282-.627.16.16,0,0,0,.049-.048h-.4Z" transform="translate(-105.095 -22.431)" fill="#167cc1"/>
      <g id="Group_46727" data-name="Group 46727" transform="translate(8.787 0.867)">
        <path id="Path_24688" data-name="Path 24688" d="M208.011,20.194h-.234a.4.4,0,0,1,0-.808h.234a.4.4,0,0,1,0,.808Z" transform="translate(-207.373 -19.386)" fill="#1e92d3"/>
      </g>
      <g id="Group_46728" data-name="Group 46728" transform="translate(10.4 0.867)">
        <path id="Path_24689" data-name="Path 24689" d="M246.066,20.194h-2.244a.4.4,0,0,1,0-.808h2.244a.4.4,0,0,1,0,.808Z" transform="translate(-243.418 -19.386)" fill="#1e92d3"/>
      </g>
      <g id="Group_46729" data-name="Group 46729" transform="translate(5.736 2.159)">
        <path id="Path_24690" data-name="Path 24690" d="M140.16,49.059H139.6a.4.4,0,0,1,0-.808h.557a.4.4,0,0,1,0,.808Z" transform="translate(-139.199 -48.251)" fill="#bec8f7"/>
      </g>
      <g id="Group_46730" data-name="Group 46730" transform="translate(15.193 2.159)">
        <path id="Path_24691" data-name="Path 24691" d="M351.5,49.059h-.557a.4.4,0,1,1,0-.808h.557a.4.4,0,0,1,0,.808Z" transform="translate(-350.539 -48.251)" fill="#bec8f7"/>
      </g>
      <path id="Path_24692" data-name="Path 24692" d="M162.892,141.867a1.506,1.506,0,0,1-1.225-1.567.247.247,0,0,0-.165-.235,9.62,9.62,0,0,0-6.37,0,.247.247,0,0,0-.165.235,1.506,1.506,0,0,1-1.225,1.567.249.249,0,0,0-.193.241v2.455a7.01,7.01,0,0,0,4.545,6.6.643.643,0,0,0,.448,0,7.01,7.01,0,0,0,4.545-6.6v-2.455A.249.249,0,0,0,162.892,141.867Z" transform="translate(-147.169 -133.28)" fill="#4b6bb2"/>
      <path id="Path_24693" data-name="Path 24693" d="M161.013,153.814a.557.557,0,0,1-.139-.288.183.183,0,0,0-.14-.145,1.408,1.408,0,0,1-1.135-1.627.186.186,0,0,0-.026-.119l-1.927-3.152a.183.183,0,0,1-.02-.046l-.465-1.642a.186.186,0,0,0-.06-.091,1.963,1.963,0,0,1-.536-2.263.187.187,0,0,0-.048-.2.483.483,0,0,1-.146-.277,9.618,9.618,0,0,0-1.243.344.247.247,0,0,0-.165.235,1.506,1.506,0,0,1-1.225,1.567.249.249,0,0,0-.193.241V148.8a7.01,7.01,0,0,0,4.545,6.6.643.643,0,0,0,.448,0A6.906,6.906,0,0,0,161.013,153.814Z" transform="translate(-147.167 -137.521)" fill="#3c58a0"/>
      <g id="Group_46731" data-name="Group 46731" transform="translate(5.974 5.841)">
        <path id="Path_24694" data-name="Path 24694" d="M149.322,142.957a7.411,7.411,0,0,1-4.808-6.975v-2.455a.651.651,0,0,1,.5-.634,1.1,1.1,0,0,0,.915-1.17.651.651,0,0,1,.436-.619,10.061,10.061,0,0,1,6.638,0,.651.651,0,0,1,.436.619,1.1,1.1,0,0,0,.915,1.17h0a.651.651,0,0,1,.5.634v2.455a7.41,7.41,0,0,1-4.808,6.975A1.049,1.049,0,0,1,149.322,142.957Zm-4-9.308v2.334A6.6,6.6,0,0,0,149.6,142.2a.24.24,0,0,0,.167,0,6.6,6.6,0,0,0,4.281-6.217v-2.334a1.891,1.891,0,0,1-1.416-1.818,9.252,9.252,0,0,0-5.9,0A1.891,1.891,0,0,1,145.322,133.649Z" transform="translate(-144.514 -130.541)" fill="#3c58a0"/>
      </g>
      <path id="Path_24695" data-name="Path 24695" d="M152.247,144.471a.178.178,0,0,0-.051-.1,6.505,6.505,0,0,1-2.426,1.59.24.24,0,0,1-.167,0,6.6,6.6,0,0,1-4.281-6.217v-2.334a1.891,1.891,0,0,0,1.416-1.818,9.162,9.162,0,0,1,1.207-.317.2.2,0,0,0-.055-.1.54.54,0,0,1-.095-.622.177.177,0,0,0,.013-.079,9.958,9.958,0,0,0-1.441.387.651.651,0,0,0-.436.619,1.1,1.1,0,0,1-.915,1.17.651.651,0,0,0-.5.634v2.455a7.411,7.411,0,0,0,4.808,6.975,1.049,1.049,0,0,0,.729,0,7.313,7.313,0,0,0,2.721-1.781.193.193,0,0,0-.083-.035A.506.506,0,0,1,152.247,144.471Z" transform="translate(-138.54 -128.467)" fill="#2a428c"/>
      <path id="Path_24696" data-name="Path 24696" d="M229.414,196.053a.4.4,0,0,1-.4-.4v-.8a.681.681,0,1,0-1.362,0v.8a.4.4,0,0,1-.808,0v-.8a1.489,1.489,0,1,1,2.978,0v.8A.4.4,0,0,1,229.414,196.053Z" transform="translate(-217.182 -184.709)" fill="#e9efff"/>
      <path id="Path_24697" data-name="Path 24697" d="M227.648,207.089a.677.677,0,0,1,.11-.369.541.541,0,0,1-.6-.547,1.481,1.481,0,0,0-.316.916v.8a.4.4,0,0,0,.373.4l.08,0a.4.4,0,0,0,.355-.4v-.8Z" transform="translate(-217.182 -196.948)" fill="#bec8f7"/>
      <path id="Path_24698" data-name="Path 24698" d="M223.4,241.917h-2.588a.487.487,0,0,0-.487.487v2.373a.487.487,0,0,0,.487.487H223.4a.487.487,0,0,0,.487-.487V242.4A.487.487,0,0,0,223.4,241.917Z" transform="translate(-210.954 -231.093)" fill="#ffdd40"/>
      <path id="Path_24699" data-name="Path 24699" d="M220.807,241.917a.487.487,0,0,0-.487.487v2.373a.487.487,0,0,0,.487.487h1.6a.613.613,0,0,1-.305-.879l-.365-1.725c-.542-.134-.316-.743-.316-.743h-.613Z" transform="translate(-210.954 -231.093)" fill="#ffb332"/>
      <path id="Path_24700" data-name="Path 24700" d="M74.11,263.8l-.045-.045a.675.675,0,0,0-.952,0l.32-.32a.718.718,0,0,0,.07-.946.707.707,0,0,0-1.055-.064l.1-.1a.718.718,0,0,0,.07-.946.707.707,0,0,0-1.055-.065l1.586-1.586a.718.718,0,0,0,.07-.946.707.707,0,0,0-1.055-.064l-2.647,2.647a.13.13,0,0,1-.187,0,.83.83,0,0,0-.688-.329,1.917,1.917,0,0,0-1.7,1.308c-.218.685-.035-.125-.356,2.4a.748.748,0,0,1-.214.444l-.614.614a11.007,11.007,0,0,0,3.531,2.861l.48-.48c.349-.349,1.146-.233,2.1-1.183l2.244-2.244A.675.675,0,0,0,74.11,263.8Z" transform="translate(-63.309 -246.945)" fill="#f9ba8f"/>
      <path id="Path_24701" data-name="Path 24701" d="M206.814,258.363l.232.232a.344.344,0,0,1,0,.485l-.437.437a.344.344,0,0,1-.485,0l-.232-.232a.344.344,0,0,1,0-.486l.437-.437A.344.344,0,0,1,206.814,258.363Z" transform="translate(-197.076 -246.707)" fill="#e9efff"/>
      <path id="Path_24702" data-name="Path 24702" d="M119.39,316.378a.339.339,0,0,0,.48,0l.786-.786a.13.13,0,0,1-.187,0,.94.94,0,0,0-.46-.309l-.618.618A.339.339,0,0,0,119.39,316.378Z" transform="translate(-114.445 -301.173)" fill="#fcad6d"/>
      <path id="Path_24703" data-name="Path 24703" d="M246.174,256.831a.685.685,0,1,0-1.09.552v.189a.4.4,0,0,0,.808,0v-.189A.684.684,0,0,0,246.174,256.831Z" transform="translate(-234.341 -244.685)" fill="#ff9100"/>
      <path id="Path_24704" data-name="Path 24704" d="M65.761,398.783a11.007,11.007,0,0,0,3.531,2.861l.48-.48c.275-.275.828-.262,1.515-.708a4.511,4.511,0,0,1-4.7-2.731.748.748,0,0,1-.214.444Z" transform="translate(-63.311 -379.929)" fill="#fcad6d"/>
    </g>
  </g>
</svg>
