<svg xmlns="http://www.w3.org/2000/svg" width="86.906" height="28" viewBox="0 0 86.906 28">
  <g id="Group_42574" data-name="Group 42574" transform="translate(16053.5 13550.5)">
    <g id="Group_99" data-name="Group 99" transform="translate(-16053 -13550)" style="isolation: isolate">
      <rect id="Rectangle_106" data-name="Rectangle 106" width="85.906" height="27" fill="#d9dce5" stroke="rgba(0,0,0,0)" stroke-miterlimit="10" stroke-width="1"/>
    </g>
    <path id="Path_23023" data-name="Path 23023" d="M5.83-2.09c0-2.838-4.136-1.606-4.136-3.586,0-.825.649-1.254,1.474-1.232A1.389,1.389,0,0,1,4.653-5.8h1.1A2.293,2.293,0,0,0,3.212-7.766c-1.518,0-2.541.858-2.541,2.123,0,2.849,4.147,1.529,4.147,3.6,0,.726-.572,1.276-1.54,1.276A1.42,1.42,0,0,1,1.694-2.046H.627C.649-.781,1.738.077,3.278.077A2.3,2.3,0,0,0,5.83-2.09ZM7.3,0h1V-6.028h-1Zm.517-7.007a.667.667,0,0,0,.66-.682.667.667,0,0,0-.66-.682.672.672,0,0,0-.682.682A.672.672,0,0,0,7.821-7.007ZM9.636-3.036A2.9,2.9,0,0,0,12.5.1,2.519,2.519,0,0,0,14.74-1.133V.132A1.789,1.789,0,0,1,12.87,2.1,1.871,1.871,0,0,1,10.945.88h-.99A2.651,2.651,0,0,0,12.87,2.97,2.7,2.7,0,0,0,15.752.132v-6.16H14.74v1.1a2.484,2.484,0,0,0-2.244-1.2A2.857,2.857,0,0,0,9.636-3.036Zm5.1.011A2.063,2.063,0,0,1,12.694-.781a2.064,2.064,0,0,1-2.035-2.255,2.035,2.035,0,0,1,2.035-2.222A2.065,2.065,0,0,1,14.74-3.025ZM21.857,0h.99V-3.553a2.338,2.338,0,0,0-2.464-2.585,2.227,2.227,0,0,0-1.936.968v-.858h-1V0h1V-3.333c0-1.3.7-1.936,1.727-1.936s1.683.627,1.683,1.859ZM33.143-3.025a2.942,2.942,0,0,0-3.047-3.1,2.948,2.948,0,0,0-3.047,3.1,2.926,2.926,0,0,0,3,3.124A2.989,2.989,0,0,0,33.143-3.025Zm-5.071,0a2,2,0,0,1,2.013-2.233A2.025,2.025,0,0,1,32.12-3.025,2.046,2.046,0,0,1,30.052-.781,1.985,1.985,0,0,1,28.072-3.025Zm11.737-3h-1v3.311c0,1.3-.693,1.936-1.727,1.936A1.617,1.617,0,0,1,35.4-2.629v-3.4h-.99V-2.5A2.352,2.352,0,0,0,36.883.088a2.216,2.216,0,0,0,1.925-.979V0h1ZM41.723-1.65c0,1.21.6,1.65,1.672,1.65h.9V-.847H43.56c-.616,0-.836-.209-.836-.8V-5.2H44.3v-.825H42.724V-7.546h-1v1.518h-.781V-5.2h.781Z" transform="translate(-16021.867 -13533.629)"/>
    <path id="Path_3541" data-name="Path 3541" d="M8.135,14.27a6.135,6.135,0,1,1,4.908-9.816H11.381a4.908,4.908,0,1,0,0,7.362h1.663A6.126,6.126,0,0,1,8.135,14.27Zm4.295-3.681V8.749H7.522V7.522H12.43V5.681L15.5,8.135Z" transform="translate(-16043.773 -13544.773)"/>
  </g>
</svg>
