<svg id="Group_21787" data-name="Group 21787" xmlns="http://www.w3.org/2000/svg" width="17.549" height="11.723" viewBox="0 0 17.549 11.723">
  <g id="_128-spain" data-name="128-spain">
    <path id="Path_3246" data-name="Path 3246" d="M.3,100H17.246a.306.306,0,0,0,.3-.309V88.585a.306.306,0,0,0-.3-.309H.3a.306.306,0,0,0-.3.309V99.691A.306.306,0,0,0,.3,100Z" transform="translate(0 -88.276)" fill="#c8414b"/>
    <rect id="Rectangle_3225" data-name="Rectangle 3225" width="17.549" height="6.787" transform="translate(0 2.468)" fill="#ffd250"/>
    <path id="Path_3247" data-name="Path 3247" d="M208.937,217.664l.262-1.177a.174.174,0,0,0-.169-.211h-.184a.174.174,0,0,0-.169.211Z" transform="translate(-201.523 -211.803)" fill="#c8414b"/>
    <rect id="Rectangle_3226" data-name="Rectangle 3226" width="0.617" height="2.622" transform="translate(7.105 5.244)" fill="#f5f5f5"/>
    <rect id="Rectangle_3227" data-name="Rectangle 3227" width="0.926" height="0.309" transform="translate(6.951 4.936)" fill="#fab446"/>
    <g id="Group_6907" data-name="Group 6907" transform="translate(2.665 4.473)">
      <rect id="Rectangle_3228" data-name="Rectangle 3228" width="1.543" height="0.309" transform="translate(3.814 1.388)" fill="#c8414b"/>
      <path id="Path_3248" data-name="Path 3248" d="M203.96,274.273l-.926-.308v-.309l.926.309Z" transform="translate(-198.603 -271.651)" fill="#c8414b"/>
      <path id="Path_3249" data-name="Path 3249" d="M76.523,217.664l.262-1.177a.174.174,0,0,0-.169-.211h-.184a.174.174,0,0,0-.169.211Z" transform="translate(-76.257 -216.276)" fill="#c8414b"/>
    </g>
    <path id="Path_3250" data-name="Path 3250" d="M106.24,229.518a.309.309,0,0,0-.309.309v2.005c0,.375.35,1.08,1.543,1.08s1.543-.7,1.543-1.08v-2.005a.309.309,0,0,0-.309-.309Z" transform="translate(-102.315 -224.582)" fill="#f5f5f5"/>
    <g id="Group_6908" data-name="Group 6908" transform="translate(3.616 4.936)">
      <path id="Path_3251" data-name="Path 3251" d="M107.474,231.061h-1.543v-1.234a.309.309,0,0,1,.309-.309h1.234Z" transform="translate(-105.931 -229.518)" fill="#c8414b"/>
      <path id="Path_3252" data-name="Path 3252" d="M150.069,273.656h1.543v.771a.771.771,0,0,1-.771.771h0a.771.771,0,0,1-.771-.771Z" transform="translate(-148.527 -272.113)" fill="#c8414b"/>
    </g>
    <path id="Path_3253" data-name="Path 3253" d="M105.931,273.656h1.543v.771a.771.771,0,0,1-.771.771h0a.771.771,0,0,1-.771-.771Z" transform="translate(-102.307 -267.177)" fill="#fab446"/>
    <g id="Group_6909" data-name="Group 6909" transform="translate(3.929 6.479)">
      <path id="Path_3254" data-name="Path 3254" d="M132.722,275.041v-1.385h-.309v1.527A.763.763,0,0,0,132.722,275.041Z" transform="translate(-131.796 -273.656)" fill="#c8414b"/>
      <path id="Path_3255" data-name="Path 3255" d="M115.067,275.183v-1.527h-.309v1.385A.764.764,0,0,0,115.067,275.183Z" transform="translate(-114.758 -273.656)" fill="#c8414b"/>
    </g>
    <rect id="Rectangle_3229" data-name="Rectangle 3229" width="0.926" height="0.309" transform="translate(3.929 5.862)" fill="#ffb441"/>
    <g id="Group_6910" data-name="Group 6910" transform="translate(3.929 5.244)">
      <rect id="Rectangle_3230" data-name="Rectangle 3230" width="0.926" height="0.309" fill="#fab446"/>
      <rect id="Rectangle_3231" data-name="Rectangle 3231" width="0.617" height="0.559" transform="translate(0.154 0.183)" fill="#fab446"/>
    </g>
    <rect id="Rectangle_3232" data-name="Rectangle 3232" width="0.617" height="2.622" transform="translate(2.622 5.244)" fill="#f5f5f5"/>
    <g id="Group_6911" data-name="Group 6911" transform="translate(2.468 4.936)">
      <rect id="Rectangle_3233" data-name="Rectangle 3233" width="0.926" height="0.309" transform="translate(0 2.777)" fill="#fab446"/>
      <rect id="Rectangle_3234" data-name="Rectangle 3234" width="0.926" height="0.309" fill="#fab446"/>
    </g>
    <rect id="Rectangle_3235" data-name="Rectangle 3235" width="1.234" height="0.309" transform="translate(2.314 8.021)" fill="#5064aa"/>
    <rect id="Rectangle_3236" data-name="Rectangle 3236" width="0.926" height="0.309" transform="translate(7.103 7.713)" fill="#fab446"/>
    <rect id="Rectangle_3237" data-name="Rectangle 3237" width="1.234" height="0.309" transform="translate(6.798 8.021)" fill="#5064aa"/>
    <rect id="Rectangle_3238" data-name="Rectangle 3238" width="1.851" height="0.309" transform="translate(4.226 4.628)" fill="#fab446"/>
    <rect id="Rectangle_3239" data-name="Rectangle 3239" width="0.309" height="0.926" transform="translate(4.991 3.702)" fill="#ffb441"/>
    <g id="Group_6912" data-name="Group 6912" transform="translate(3.768 3.239)">
      <path id="Path_3256" data-name="Path 3256" d="M128.463,181.892a.463.463,0,1,1,.463-.463A.463.463,0,0,1,128.463,181.892Zm0-.617a.154.154,0,1,0,.154.154A.154.154,0,0,0,128.463,181.276Z" transform="translate(-127.383 -180.967)" fill="#f5f5f5"/>
      <path id="Path_3257" data-name="Path 3257" d="M146.119,181.892a.463.463,0,1,1,.463-.463A.463.463,0,0,1,146.119,181.892Zm0-.617a.154.154,0,1,0,.154.154A.154.154,0,0,0,146.119,181.276Z" transform="translate(-144.422 -180.967)" fill="#f5f5f5"/>
      <path id="Path_3258" data-name="Path 3258" d="M163.774,190.72a.463.463,0,1,1,.463-.463A.463.463,0,0,1,163.774,190.72Zm0-.617a.154.154,0,1,0,.154.154A.154.154,0,0,0,163.774,190.1Z" transform="translate(-161.46 -189.486)" fill="#f5f5f5"/>
      <path id="Path_3259" data-name="Path 3259" d="M110.808,190.72a.463.463,0,1,1,.463-.463A.463.463,0,0,1,110.808,190.72Zm0-.617a.154.154,0,1,0,.154.154A.154.154,0,0,0,110.808,190.1Z" transform="translate(-110.345 -189.486)" fill="#f5f5f5"/>
    </g>
    <path id="Path_3260" data-name="Path 3260" d="M159.513,282.793v.154a.154.154,0,1,1-.309,0v-.154h.309m.309-.309H158.9v.463a.463.463,0,1,0,.925,0v-.463Z" transform="translate(-153.456 -275.697)" fill="#fab446"/>
    <path id="Path_3261" data-name="Path 3261" d="M163.619,239.271h0a.309.309,0,0,1-.309-.309v-.309a.309.309,0,0,1,.309-.309h0a.309.309,0,0,1,.309.309v.309A.309.309,0,0,1,163.619,239.271Z" transform="translate(-157.716 -233.101)" fill="#ffa0d2"/>
    <circle id="Ellipse_7" data-name="Ellipse 7" cx="0.463" cy="0.463" r="0.463" transform="translate(4.685 6.016)" fill="#5064aa"/>
    <rect id="Rectangle_3240" data-name="Rectangle 3240" width="0.309" height="0.926" transform="translate(4.991 3.085)" fill="#fab446"/>
    <path id="Path_3262" data-name="Path 3262" d="M115.067,195.134l-.309-.309.181-.181a1.49,1.49,0,0,1,1.053-.436h0a1.49,1.49,0,0,1,1.053.436l.181.181-.309.309Z" transform="translate(-110.837 -190.506)" fill="#c8414b"/>
    <g id="Group_6913" data-name="Group 6913" transform="translate(4.379 4.165)">
      <circle id="Ellipse_8" data-name="Ellipse 8" cx="0.154" cy="0.154" r="0.154" transform="translate(0.617)" fill="#ffd250"/>
      <circle id="Ellipse_9" data-name="Ellipse 9" cx="0.154" cy="0.154" r="0.154" fill="#ffd250"/>
      <circle id="Ellipse_10" data-name="Ellipse 10" cx="0.154" cy="0.154" r="0.154" transform="translate(1.234)" fill="#ffd250"/>
    </g>
    <g id="Group_6914" data-name="Group 6914" transform="translate(2.468 5.862)">
      <rect id="Rectangle_3241" data-name="Rectangle 3241" width="1.543" height="0.309" fill="#c8414b"/>
      <path id="Path_3263" data-name="Path 3263" d="M70.621,274.273l.925-.308v-.309l-.925.309Z" transform="translate(-70.621 -273.039)" fill="#c8414b"/>
    </g>
  </g>
</svg>
