<svg xmlns="http://www.w3.org/2000/svg" width="68.691" height="19" viewBox="0 0 68.691 19">
  <g id="Group_7145" data-name="Group 7145" transform="translate(-39 -309)">
    <text id="Soccer" transform="translate(61.691 323)" fill="#2c8af7" font-size="13" font-family="Poppins-Bold, Poppins" font-weight="700"><tspan x="0" y="0">Soccer</tspan></text>
    <path id="Path_3241" data-name="Path 3241" d="M486.017,930.992h1.191c.213.026.427.048.639.079a8.581,8.581,0,0,1,4.6,2.084,8.68,8.68,0,0,1,2.835,9.058,8.9,8.9,0,0,1-10.342,6.557,8.755,8.755,0,0,1-5.431-3.341,8.645,8.645,0,0,1-1.725-3.926c-.053-.315-.091-.632-.136-.949v-1.191c.012-.057.026-.113.034-.17.041-.306.062-.615.122-.917a8.874,8.874,0,0,1,3.317-5.4,8.655,8.655,0,0,1,3.934-1.742c.32-.055.643-.093.965-.139m1.975,14.372-.009.071c.844-.1,1.687-.212,2.532-.3a.409.409,0,0,0,.349-.258q.863-1.629,1.742-3.25a.253.253,0,0,0,0-.286q-.722-1.2-1.432-2.4a.191.191,0,0,0-.216-.1c-.377.04-.754.078-1.131.117-.858.089-1.716.182-2.574.263a.244.244,0,0,0-.223.152q-.667,1.278-1.345,2.551a.254.254,0,0,0,.01.285c.546.936,1.1,1.87,1.624,2.817.154.276.308.473.669.343m.546-12.531c-.748.074-1.5.145-2.243.228a.243.243,0,0,0-.164.138q-.513,1.512-1.006,3.031a.258.258,0,0,0,.056.207c.182.211.382.407.568.615.447.5.888,1.006,1.337,1.5a.259.259,0,0,0,.188.077c.754-.069,1.508-.146,2.262-.221.435-.044.87-.087,1.3-.135.1-.011.207.009.258-.127.263-.715.536-1.426.8-2.142a.251.251,0,0,0-.046-.209c-.731-.833-1.49-1.643-2.194-2.5a1.137,1.137,0,0,0-1.117-.466m-2.677,14.438a.476.476,0,0,0,.1-.084c.348-.468.695-.937,1.033-1.412a.228.228,0,0,0-.01-.2q-.864-1.509-1.742-3.011a.3.3,0,0,0-.183-.124c-1-.205-2.009-.4-3.011-.608a.152.152,0,0,0-.191.089q-.707,1.115-1.42,2.226a.2.2,0,0,0-.008.236,13.179,13.179,0,0,0,1.4,2.092.338.338,0,0,0,.185.1c.692.13,1.386.255,2.079.378.579.1,1.158.2,1.773.311m-4.332-9.727c.043-.025.083-.047.122-.072a17.659,17.659,0,0,1,2.825-1.452.325.325,0,0,0,.164-.176c.312-.92.614-1.844.924-2.765a.172.172,0,0,0-.079-.241,6.647,6.647,0,0,0-1.471-.759.417.417,0,0,0-.256-.006,8.058,8.058,0,0,0-2.72,1.611,2.71,2.71,0,0,0-.653.676c-.314.6-.552,1.242-.822,1.866-.042.1-.015.152.08.208.595.345,1.185.7,1.777,1.048l.109.062m-1.549,6.24c.035-.05.066-.092.094-.135.464-.727.931-1.452,1.387-2.183a.513.513,0,0,0,.058-.307c-.028-.248-.1-.492-.121-.74-.066-.76-.117-1.521-.177-2.282a.2.2,0,0,0-.07-.141c-.643-.387-1.29-.768-1.965-1.168-.248.412-.492.814-.734,1.218a.23.23,0,0,0-.03.082c-.061.4-.146.8-.174,1.209a8.361,8.361,0,0,0,.273,2.839,1.646,1.646,0,0,0,.218.618,4.785,4.785,0,0,0,1.242.991m14.99-3.083c-.539.3-1.079.591-1.615.893a.474.474,0,0,0-.176.177c-.563,1.04-1.1,2.092-1.687,3.122a1.136,1.136,0,0,0-.117,1.028,6.083,6.083,0,0,1,.177.83,8.406,8.406,0,0,0,3.418-6.05m-5.133-8.5-.076.024c.023.14,0,.322.077.414.82.949,1.656,1.883,2.491,2.819a.625.625,0,0,0,.184.123c.517.265,1.036.527,1.554.79.047.024.092.051.182.1a8.423,8.423,0,0,0-4.411-4.271m-2.943,16.133c-.367-.164-.687-.309-1.009-.451a.738.738,0,0,0-.164-.051q-1.236-.225-2.473-.447c-.114-.021-.229-.04-.344-.058l-.325-.052a8.01,8.01,0,0,0,4.315,1.059" transform="translate(-438.645 -620.992)" fill="#2c8af7"/>
  </g>
</svg>
