<svg xmlns="http://www.w3.org/2000/svg" width="26.125" height="16.082" viewBox="0 0 26.125 16.082">
  <g id="svgexport-6_11_" data-name="svgexport-6 (11)" transform="translate(0 -98.42)">
    <path id="Path_23253" data-name="Path 23253" d="M2.551,240.266a5.5,5.5,0,0,1,.065-.846H.044a8.084,8.084,0,0,0,0,1.692H2.617A5.5,5.5,0,0,1,2.551,240.266Z" transform="translate(0 -133.805)" fill="#fff"/>
    <path id="Path_23254" data-name="Path 23254" d="M14.712,100.971h2.645V98.42H14.712a8.055,8.055,0,0,0-7.682,5.664H9.765A5.5,5.5,0,0,1,14.712,100.971Z" transform="translate(-6.671)" fill="#fff"/>
    <path id="Path_23255" data-name="Path 23255" d="M9.765,302.58H7.03a8.055,8.055,0,0,0,7.682,5.664h2.645v-2.551H14.712A5.5,5.5,0,0,1,9.765,302.58Z" transform="translate(-6.671 -193.742)" fill="#fff"/>
    <path id="Path_23256" data-name="Path 23256" d="M239.42,98.42h1.692v2.551H239.42Z" transform="translate(-227.203)" fill="#fff"/>
    <path id="Path_23257" data-name="Path 23257" d="M239.42,363.58h1.692v2.551H239.42Z" transform="translate(-227.203 -251.63)" fill="#fff"/>
    <path id="Path_23258" data-name="Path 23258" d="M305.225,305.693H302.58v2.551h2.645a8.055,8.055,0,0,0,7.682-5.664h-2.735A5.5,5.5,0,0,1,305.225,305.693Z" transform="translate(-287.14 -193.742)" fill="#fff"/>
    <path id="Path_23259" data-name="Path 23259" d="M310.173,104.084h2.735a8.055,8.055,0,0,0-7.682-5.664H302.58v2.551h2.645A5.5,5.5,0,0,1,310.173,104.084Z" transform="translate(-287.14)" fill="#fff"/>
    <path id="Path_23260" data-name="Path 23260" d="M463.292,239.42H460.72a5.51,5.51,0,0,1,0,1.692h2.572a8.087,8.087,0,0,0,0-1.692Z" transform="translate(-437.211 -133.805)" fill="#fff"/>
    <path id="Path_23261" data-name="Path 23261" d="M94,178.42H83.959a3.959,3.959,0,1,0,0,7.917H94a3.959,3.959,0,1,0,0-7.917Zm-10.639,5.787H82.4a.765.765,0,1,1,0-1.531h.961a.765.765,0,0,1,0,1.531Zm0-2.079H82.4a.765.765,0,1,1,0-1.531h.961a.765.765,0,0,1,0,1.531Zm4.3,2.593a.765.765,0,1,1-1.531,0v-.961a.765.765,0,0,1,1.531,0Zm0-3.821a.765.765,0,0,1-1.531,0v-.961a.765.765,0,1,1,1.531,0Zm2.079,3.821a.765.765,0,1,1-1.531,0v-.961a.765.765,0,0,1,1.531,0Zm0-3.821a.765.765,0,0,1-1.531,0v-.961a.765.765,0,1,1,1.531,0Zm2.079,3.821a.765.765,0,1,1-1.531,0v-.961a.765.765,0,0,1,1.531,0Zm0-3.821a.765.765,0,0,1-1.531,0v-.961a.765.765,0,1,1,1.531,0Zm3.726,3.306H94.59a.765.765,0,0,1,0-1.531h.961a.765.765,0,0,1,0,1.531Zm0-2.079H94.59a.765.765,0,0,1,0-1.531h.961a.765.765,0,0,1,0,1.531Z" transform="translate(-75.918 -75.918)" fill="#fff"/>
  </g>
</svg>
