<svg id="Group_42421" data-name="Group 42421" xmlns="http://www.w3.org/2000/svg" xmlns:xlink="http://www.w3.org/1999/xlink" width="37.154" height="37.167" viewBox="0 0 37.154 37.167">
  <defs>
    <clipPath id="clip-path">
      <rect id="Rectangle_9281" data-name="Rectangle 9281" width="37.155" height="37.168" fill="#28af00"/>
    </clipPath>
  </defs>
  <g id="Group_21904" data-name="Group 21904" clip-path="url(#clip-path)">
    <path id="Path_16068" data-name="Path 16068" d="M17.275,0h2.613c.6.081,1.2.143,1.788.247a17.889,17.889,0,0,1,9.016,4.266A18.1,18.1,0,0,1,36.9,21.6a17.753,17.753,0,0,1-6.989,11.681,18.076,18.076,0,0,1-13.9,3.7,17.9,17.9,0,0,1-9.749-4.507A18.29,18.29,0,0,1,.29,21.852C.172,21.2.1,20.542,0,19.886V17.273c.082-.6.147-1.2.25-1.787A18.317,18.317,0,0,1,5.311,5.591a18.221,18.221,0,0,1,10-5.3C15.963.173,16.62.1,17.275,0m1.331,2.322a16.259,16.259,0,1,0,16.235,16.3,16.3,16.3,0,0,0-16.235-16.3" transform="translate(0 0.001)" fill="#28af00"/>
    <path id="Path_16069" data-name="Path 16069" d="M101.616,130.844c1.026-1.028,2.024-2.029,3.024-3.029q3.834-3.835,7.669-7.668a1.171,1.171,0,0,1,1.709-.107,1.156,1.156,0,0,1,.1,1.575,4.254,4.254,0,0,1-.3.314l-11.207,11.208a1.213,1.213,0,0,1-2.019,0q-2.206-2.205-4.41-4.413a1.157,1.157,0,0,1,.43-1.979,1.173,1.173,0,0,1,1.248.362q1.737,1.751,3.487,3.489c.076.076.156.147.266.25" transform="translate(-86.507 -108.111)" fill="#28af00"/>
  </g>
</svg>
