<svg xmlns="http://www.w3.org/2000/svg" width="19.617" height="19.215" viewBox="0 0 19.617 19.215">
  <g id="svgexport-6_10_" data-name="svgexport-6 (10)" transform="translate(31.605 22.211) rotate(180)">
    <path id="Path_23242" data-name="Path 23242" d="M50,22.2a.387.387,0,0,0,.16.312l3.919,2.85A.211.211,0,0,0,54.4,25.2v-6a.2.2,0,0,0-.324-.165L50.16,21.89A.388.388,0,0,0,50,22.2Z" transform="translate(-22.797 -9.598)" fill="#fff"/>
    <path id="Path_23243" data-name="Path 23243" d="M37,36.437a7.966,7.966,0,0,0,4.976-2.048L37,29.414Z" transform="translate(-15 -15.843)" fill="#fff"/>
    <path id="Path_23244" data-name="Path 23244" d="M45.013,30.211,42.74,28.56a1.183,1.183,0,0,1-.409-.56H38.414l4.974,4.974A8,8,0,0,0,45.013,30.211Z" transform="translate(-15.848 -14.995)" fill="#fff"/>
    <path id="Path_23245" data-name="Path 23245" d="M21.6,22.211a9.639,9.639,0,0,0,8.907-6.019l-.668-.486a8.806,8.806,0,1,1,0-6.2l.668-.486A9.607,9.607,0,1,0,21.6,22.211Z" transform="translate(0 0)" fill="#fff"/>
    <path id="Path_23246" data-name="Path 23246" d="M18.108,13.605a7.962,7.962,0,0,0-2.057,4.962H23.07Z" transform="translate(-2.437 -6.362)" fill="#fff"/>
    <path id="Path_23247" data-name="Path 23247" d="M42.739,17.989l2.274-1.651a8,8,0,0,0-1.624-2.762l-4.975,4.973h3.917A1.182,1.182,0,0,1,42.739,17.989Z" transform="translate(-15.848 -6.345)" fill="#fff"/>
    <path id="Path_23249" data-name="Path 23249" d="M27.567,29.414,22.6,34.376a7.962,7.962,0,0,0,4.962,2.057Z" transform="translate(-6.367 -15.843)" fill="#fff"/>
    <path id="Path_23250" data-name="Path 23250" d="M37,14.063l4.974-4.974A7.969,7.969,0,0,0,37,7.04Z" transform="translate(-15 -2.425)" fill="#fff"/>
    <path id="Path_23251" data-name="Path 23251" d="M18.108,32.964,23.07,28H16.051A7.962,7.962,0,0,0,18.108,32.964Z" transform="translate(-2.437 -14.995)" fill="#fff"/>
    <path id="Path_23252" data-name="Path 23252" d="M27.567,7.051A7.962,7.962,0,0,0,22.6,9.108l4.962,4.962Z" transform="translate(-6.367 -2.432)" fill="#fff"/>
  </g>
</svg>
