<svg id="Group_46872" data-name="Group 46872" xmlns="http://www.w3.org/2000/svg" width="33.338" height="149.324" viewBox="0 0 33.338 149.324">
  <g id="Path_24745" data-name="Path 24745" transform="translate(0 149.324) rotate(-90)" fill="#0d4017">
    <path d="M 148.8240814208984 32.83731842041016 L 0.5000007152557373 32.83731842041016 L 0.5000007152557373 18.37776565551758 L 74.6627197265625 0.5143003463745117 L 148.8240814208984 18.37776374816895 L 148.8240814208984 32.83731842041016 Z" stroke="none"/>
    <path d="M 148.3240814208984 32.33731842041016 L 148.3240814208984 18.77163314819336 L 74.6627197265625 1.028606295585632 L 1.000000715255737 18.77163696289062 L 1.000000715255737 32.33731842041016 L 148.3240814208984 32.33731842041016 M 149.3240814208984 33.33731842041016 L 7.104492283360742e-07 33.33731842041016 L 7.104492283360742e-07 17.98390007019043 L 74.6627197265625 -7.897949103607971e-07 L 149.3240814208984 17.98390007019043 L 149.3240814208984 33.33731842041016 Z" stroke="none" fill="#fff"/>
  </g>
  <path id="Path_24744" data-name="Path 24744" d="M.689-4.862c0,2.769.832,4.836,3.51,4.836s3.51-2.067,3.51-4.836c0-2.743-.832-4.8-3.51-4.8S.689-7.6.689-4.862Zm5.226,0c0,1.69-.182,3.146-1.716,3.146S2.483-3.172,2.483-4.862c0-1.625.182-3.107,1.716-3.107S5.915-6.487,5.915-4.862Z" transform="translate(23.51 80.582) rotate(-90)" fill="#fff"/>
</svg>
