<svg xmlns="http://www.w3.org/2000/svg" width="18" height="18" viewBox="0 0 18 18">
  <g id="eye-line" opacity="0.5">
    <path id="Path_15788" data-name="Path 15788" d="M0,0H18V18H0Z" fill="none"/>
    <path id="Path_15789" data-name="Path 15789" d="M9,3a7.807,7.807,0,0,1,7.819,6A7.806,7.806,0,0,1,9,15,7.807,7.807,0,0,1,1.181,9,7.806,7.806,0,0,1,9,3ZM9,13.667A6.418,6.418,0,0,0,15.343,9,6.419,6.419,0,0,0,9,4.34,6.42,6.42,0,0,0,2.657,9,6.419,6.419,0,0,0,9,13.667ZM9,12A3.134,3.134,0,0,1,5.748,9,3.134,3.134,0,0,1,9,6a3.134,3.134,0,0,1,3.252,3A3.134,3.134,0,0,1,9,12Zm0-1.333A1.741,1.741,0,0,0,10.807,9,1.741,1.741,0,0,0,9,7.333,1.741,1.741,0,0,0,7.193,9,1.741,1.741,0,0,0,9,10.667Z" fill="#6f7d88"/>
  </g>
</svg>
