<svg xmlns="http://www.w3.org/2000/svg" width="22.121" height="22.121" viewBox="0 0 22.121 22.121">
  <g id="eye-slash" transform="translate(-0.939 -0.939)">
    <path id="Path_21553" data-name="Path 21553" d="M14.53,9.47,9.47,14.53a3.578,3.578,0,1,1,5.06-5.06Z" fill="none" stroke="#b1bac1" stroke-linecap="round" stroke-linejoin="round" stroke-width="1.5"/>
    <path id="Path_21554" data-name="Path 21554" d="M17.82,5.77A9.631,9.631,0,0,0,12,3.73c-3.53,0-6.82,2.08-9.11,5.68a5.326,5.326,0,0,0,0,5.19A14.326,14.326,0,0,0,5.6,17.77" fill="none" stroke="#b1bac1" stroke-linecap="round" stroke-linejoin="round" stroke-width="1.5"/>
    <path id="Path_21555" data-name="Path 21555" d="M8.42,19.53a9.214,9.214,0,0,0,3.58.74c3.53,0,6.82-2.08,9.11-5.68a5.326,5.326,0,0,0,0-5.19,16.221,16.221,0,0,0-1.06-1.47" fill="none" stroke="#b1bac1" stroke-linecap="round" stroke-linejoin="round" stroke-width="1.5"/>
    <path id="Path_21556" data-name="Path 21556" d="M15.51,12.7a3.565,3.565,0,0,1-2.82,2.82" fill="none" stroke="#b1bac1" stroke-linecap="round" stroke-linejoin="round" stroke-width="1.5"/>
    <path id="Path_21557" data-name="Path 21557" d="M9.47,14.53,2,22" fill="none" stroke="#b1bac1" stroke-linecap="round" stroke-linejoin="round" stroke-width="1.5"/>
    <path id="Path_21558" data-name="Path 21558" d="M22,2,14.53,9.47" fill="none" stroke="#b1bac1" stroke-linecap="round" stroke-linejoin="round" stroke-width="1.5"/>
  </g>
</svg>
