<svg xmlns="http://www.w3.org/2000/svg" width="18" height="18" viewBox="0 0 18 18">
  <g id="lock-line" transform="translate(0)" opacity="0.5">
    <path id="Path_15784" data-name="Path 15784" d="M0,0H18V18H0Z" transform="translate(0)" fill="none"/>
    <path id="Path_15785" data-name="Path 15785" d="M15.079,8.024h.755a.754.754,0,0,1,.755.753v7.53a.754.754,0,0,1-.755.753H3.755A.754.754,0,0,1,3,16.306V8.777a.754.754,0,0,1,.755-.753H4.51V7.271a5.285,5.285,0,0,1,10.569,0ZM4.51,9.53v6.024H15.079V9.53Zm4.53,1.506h1.51v3.012H9.039Zm4.53-3.012V7.271a3.775,3.775,0,0,0-7.549,0v.753Z" transform="translate(-0.795 -0.53)" fill="#6f7d88"/>
  </g>
</svg>
