<svg xmlns="http://www.w3.org/2000/svg" width="162.164" height="57.688" viewBox="0 0 162.164 57.688">
  <g id="Group_21710" data-name="Group 21710" transform="translate(-64.836 -360)">
    <g id="logo" transform="translate(66 360)">
      <path id="Path_1" data-name="Path 1" d="M20.434,18.085,18.1,16.695l-2.3,1.437.605-2.645L14.33,13.745l2.7-.242,1.013-2.516,1.067,2.493,2.7.187-2.04,1.782Z" transform="translate(-4.816 -3.645)" fill="#fefefe" fill-rule="evenodd"/>
      <path id="Path_2" data-name="Path 2" d="M20.434,18.085,18.1,16.695l-2.3,1.437.605-2.645L14.33,13.745l2.7-.242,1.013-2.516,1.067,2.493,2.7.187-2.04,1.782Z" transform="translate(-4.816 -3.645)" fill="none" stroke="#e01b22" stroke-width="0.895" fill-rule="evenodd"/>
      <path id="Path_3" data-name="Path 3" d="M7.921,12.1,6.7,10.968l-1.559.57.7-1.505L4.82,8.722l1.646.2.928-1.379.319,1.631,1.6.458-1.449.81Z" transform="translate(-1.703 -2.517)" fill="#fefefe" fill-rule="evenodd"/>
      <path id="Path_4" data-name="Path 4" d="M7.921,12.1,6.7,10.968l-1.559.57.7-1.505L4.82,8.722l1.646.2.928-1.379.319,1.631,1.6.458-1.449.81Z" transform="translate(-1.703 -2.517)" fill="none" stroke="#e01b22" stroke-width="0.597" fill-rule="evenodd"/>
      <path id="Path_5" data-name="Path 5" d="M9,25.3l-3.261-.712L3.621,27.157l-.328-3.316L.186,22.62l3.057-1.343.2-3.325,2.218,2.487L8.889,19.6l-1.682,2.88Z" transform="translate(-0.186 -5.925)" fill="#fefefe" fill-rule="evenodd"/>
      <path id="Path_6" data-name="Path 6" d="M9,25.3l-3.261-.712L3.621,27.157l-.328-3.316L.186,22.62l3.057-1.343.2-3.325,2.218,2.487L8.889,19.6l-1.682,2.88Z" transform="translate(-0.186 -5.925)" fill="none" stroke="#e01b22" stroke-width="0.895" fill-rule="evenodd"/>
      <path id="Path_7" data-name="Path 7" d="M171.877,21.3H52.687a7.865,7.865,0,0,0-6.876,4.559l.778,1.4q.4.8,1.33,3.067l.552,1.33A14.89,14.89,0,0,0,49.785,34.4c.316.361,5.3,7.272-2.762,14.874-.247.174-.5.33-.745.49H163.711a7.794,7.794,0,0,0,7.275-5.657l4.919-17.155s1.621-5.655-4.029-5.655" transform="translate(-15.122 -7.022)" fill="#044da1" fill-rule="evenodd"/>
      <path id="Path_8" data-name="Path 8" d="M66.678,46.916c-.127-3.7-.549-7.316-.447-10.936h-.051c-1.016,3.621-2.462,7.234-3.667,10.936H56.737c-.384-5.979-.916-11.928-1.486-17.873h4.688c.118,4.231.669,8.355.806,12.455h.046c1.26-4.1,2.751-8.225,3.971-12.455h5.324c.034,4.2.256,8.355.415,12.431h.046c1.327-4.129,3.152-8.229,4.61-12.431h4.589c-2.414,5.945-4.781,11.894-7.053,17.872H66.678Zm9.366-.069c2.122-5.283,4.326-10.581,6.837-17.872h5.111c-2.471,5.948-4.719,11.923-6.786,17.872H76.045Zm18.82,0c-.473-3.888-1.366-7.589-1.74-11.364h-.045c-.63,1.611-3.346,8.681-4.267,11.364H84.29c1.283-2.841,5.187-12.728,6.951-17.873h5.893l1.572,11.573h.054c.706-1.711,3.3-8.435,4.382-11.573h4.5c-.766,1.819-5.337,13.185-7.028,17.872H94.864Zm19.646,0c-.471-3.888-1.366-7.589-1.737-11.364h-.049c-.623,1.611-3.34,8.681-4.268,11.364h-4.52c1.284-2.841,5.184-12.728,6.955-17.873h5.887l1.581,11.573h.045c.708-1.711,3.305-8.435,4.38-11.573h4.5c-.773,1.819-5.341,13.185-7.026,17.872H114.51Zm21.912.069h-12.84c1.3-2.947,3.982-9.245,6.956-17.873h12.815l-1.542,3.992c-1.408-.081-2.816-.166-4.227-.166h-3.491l-1.241,3.136h2.686c1.313,0,2.622-.026,3.957-.078l-1.581,3.912H131.32l-1.279,3.243h1.552c2.122,0,4.264-.083,6.431-.222l-1.6,4.055Zm11.87-.026c.327-3.41.355-6.7.416-10.025a5.034,5.034,0,0,0,1.107.137,3.878,3.878,0,0,0,3.832-2.443c.617-1.793-.96-1.793-2.045-1.793h-2.024c-1.873,4.69-3.615,9.407-5.283,14.125h-4.884c2.454-5.549,4.427-10.72,6.91-17.874h8.317c1.129,0,5.608.131,4.022,4.742a8.215,8.215,0,0,1-5.475,5.221c0,2.683.268,5.252.342,7.91Zm23.276-13.481a6.655,6.655,0,0,0-3.109-.884c-.731,0-2.222.295-2.606,1.419-.732,2.119,4.173,4.1,2.8,8.066a8.11,8.11,0,0,1-7.97,5.194,19.863,19.863,0,0,1-4.48-.587l1.166-4.416a7.173,7.173,0,0,0,3.643,1.179c.782,0,2.276-.163,2.7-1.4.714-2.063-4.134-4.2-2.7-8.39.427-1.229,2.329-4.9,7.675-4.9a17.561,17.561,0,0,1,4.021.511Z" transform="translate(-18.212 -9.439)" fill="#fefefe" fill-rule="evenodd"/>
      <path id="Path_9" data-name="Path 9" d="M36.92,30.05A14.242,14.242,0,0,1,35.6,27.3l-.557-1.325q-.923-2.259-1.329-3.07l-3.008-5.44s.394-8.642-1.745-9A6.349,6.349,0,0,0,22.3,13.212a11.438,11.438,0,0,0,.381,5l.269.964c.427,1.91,1.029,3.438.808,5.307l-.75-.194a14.971,14.971,0,0,0-7.49-.318c-2.04.544-3.277,1.636-3.7,3.283a5.751,5.751,0,0,0,.628,4.3,3.857,3.857,0,0,0-1.171,1.818,3.049,3.049,0,0,0,.113,2.049,3.671,3.671,0,0,0,1.557,1.551c-.132.355-.222.627-.277.829q-.727,2.831,2.455,3.935a3.428,3.428,0,0,0-.2.525c-.539,2.105.659,3.538,3.612,4.3l1.3.324,1.221-.26A13.7,13.7,0,0,0,24.4,48.066c.359.093.926.206,1.707.344a20.757,20.757,0,0,0,8.044-3.484c8.066-7.6,3.08-14.515,2.767-14.875" transform="translate(-3.766 -2.823)" fill="#e01b22" fill-rule="evenodd"/>
      <path id="Path_10" data-name="Path 10" d="M13.691,45.65a1.8,1.8,0,0,1,.653-.921,7.725,7.725,0,0,0,3.268,1.516l1.593.4,5-.863c2.344-.007,2.412,1.941,2.061,2.455l-6.2,1.036-3.189-.821A6.711,6.711,0,0,1,14.228,47.3a1.571,1.571,0,0,1-.537-1.645M14.9,49.9l.2-.363,4.867,1.28,5.128-.864c1.623.077,1.549,2.067,1.616,2.215l-6.485.995-2.257-.579q-3.517-.9-3.066-2.683m5.813,7.366-.995-.261q-2.915-.747-2.4-2.761l.042-.181,2.77.71,4.8-.821c1.042.145,2.867,1.779,1.286,2.352Z" transform="translate(-4.587 -14.691)" fill="#fefefe" fill-rule="evenodd"/>
      <path id="Path_11" data-name="Path 11" d="M34.9,44.023a22.078,22.078,0,0,1-7.944,3.959l-1.179-.272a8.136,8.136,0,0,1-1.488-.577l4.125-.7c1.349-1.695-.308-3.433-1.655-3.794,0,0,4.05-1.456.3-4.024,0,0,2.243-2.917-.778-4.209,0,0,3.086-4.59-3.476-5.576a12.119,12.119,0,0,0-1.645-.2,13.614,13.614,0,0,0-2.1.166L16.615,28.2l1.028,1.867,1.43.3a18.358,18.358,0,0,1,2.17-.211,20.418,20.418,0,0,1,2.644.094c1.386.362,2.288,1.865,1.633,2.736l-6.078,1.07-1.83-.5a4.417,4.417,0,0,1-2.757-1.993,4.08,4.08,0,0,1-.475-3.264q.493-1.926,3.139-2.242a21.226,21.226,0,0,1,7.44.89l1.084.277.188-.85c.606-2.367-.042-4.7-.94-7.707l-.219-.764a6.528,6.528,0,0,1-.2-3.454,4.9,4.9,0,0,1,4.5-3.431c1.361,1.427.808,7.787.808,7.787l3.361,6.079q1.041,2.319,1.552,3.57,1.231,3.2,2.074,3.9c.566.467,3.4,6.168-2.263,11.668" transform="translate(-4.775 -3.654)" fill="#fefefe" fill-rule="evenodd"/>
      <path id="Path_12" data-name="Path 12" d="M36.815.072c-7.955,0-12.434,3.02-12.544,3.175A3.685,3.685,0,0,0,26.758,5.19C27.3,5.19,37.154-.649,54.3,6.8c7.447,2.727,15.768,5.134,25.1,5.134a42.149,42.149,0,0,0,4.974-.293,67.2,67.2,0,0,0,20.374-5.69l-.069-.138a95.8,95.8,0,0,1-20.553,4.9C73.437,11.994,63.381,8.607,55.4,4.945,48.015,1.23,41.744.072,36.815.072" transform="translate(-8.07 -0.072)" fill="#06509e" fill-rule="evenodd"/>
      <path id="Path_14" data-name="Path 14" d="M45.744,9.966a22.051,22.051,0,0,0-2.318.125c0,.527.422,2.686,1.032,2.686,9.188-.875,15.309,3.688,26.777,3.291V16C60.605,15.921,55.4,9.966,45.744,9.966" transform="translate(-14.341 -3.311)" fill="#06509e" fill-rule="evenodd"/>
    </g>
    <text id="Admin" transform="translate(180 415.688)" fill="#e01b22" font-size="9" font-family="Helvetica"><tspan x="0" y="0">ADMIN</tspan></text>
  </g>
</svg>
