<svg xmlns="http://www.w3.org/2000/svg" xmlns:xlink="http://www.w3.org/1999/xlink" width="20.271" height="20.316" viewBox="0 0 20.271 20.316">
  <defs>
    <clipPath id="clip-path">
      <rect id="Rectangle_103" data-name="Rectangle 103" width="13.821" height="13.796" fill="#355db7"/>
    </clipPath>
  </defs>
  <g id="Group_22728" data-name="Group 22728" transform="translate(-297 -621.802)">
    <g id="Group_21737" data-name="Group 21737" transform="translate(300.225 625.034)">
      <g id="Group_21673" data-name="Group 21673" transform="translate(0 0)" clip-path="url(#clip-path)">
        <path id="Path_15851" data-name="Path 15851" d="M4.326,3.946H6.006A1.132,1.132,0,0,0,7.138,2.814V1.134A1.132,1.132,0,0,0,6.006,0H4.326A1.132,1.132,0,0,0,3.194,1.134V2.814A1.132,1.132,0,0,0,4.326,3.946M3.841,1.195A.546.546,0,0,1,4.387.649H5.945a.546.546,0,0,1,.546.546V2.753a.546.546,0,0,1-.546.546H4.387a.546.546,0,0,1-.546-.546Z" transform="translate(-3.169 -0.002)" fill="#355db7"/>
        <path id="Path_15852" data-name="Path 15852" d="M158.73,156.634h.642a.455.455,0,0,0,.455-.455v-.642a.455.455,0,0,0-.455-.455h-.642a.455.455,0,0,0-.455.455v.642a.455.455,0,0,0,.455.455" transform="translate(-157.054 -153.886)" fill="#355db7"/>
        <rect id="Rectangle_84" data-name="Rectangle 84" width="0.493" height="0.493" transform="translate(6.947)" fill="#355db7"/>
        <rect id="Rectangle_85" data-name="Rectangle 85" width="0.493" height="0.493" transform="translate(8.918 3.449)" fill="#355db7"/>
        <path id="Path_15853" data-name="Path 15853" d="M1094.123,638.826h-.493v.493h-.468v-.493h-.985v.493h-.493v-.493h-.493v.493h.468v.493h-.468v-.493h-1.01v-.493h-.985v.493h.493v.493h1.478v.71h1.974v.276h.491v.275h0v.217h.494V640.3h.491v-.985h-.493Zm-.986.985h-.493v-.493h.493Z" transform="translate(-1080.795 -633.899)" fill="#355db7"/>
        <rect id="Rectangle_86" data-name="Rectangle 86" width="0.493" height="0.493" transform="translate(10.889 4.434)" fill="#355db7"/>
        <rect id="Rectangle_87" data-name="Rectangle 87" width="0.493" height="0.493" transform="translate(5.913)" fill="#355db7"/>
        <path id="Path_15854" data-name="Path 15854" d="M584.905,64.352h-.493v-.468h-.493v.468H583v.493h1.909Z" transform="translate(-578.5 -63.392)" fill="#355db7"/>
        <path id="Path_15855" data-name="Path 15855" d="M583.427,0H583V.494h.923V0Z" transform="translate(-578.499 -0.001)" fill="#355db7"/>
        <rect id="Rectangle_88" data-name="Rectangle 88" width="0.493" height="0.493" transform="translate(3.006 4.435)" fill="#355db7"/>
        <path id="Path_15856" data-name="Path 15856" d="M1283.366,0h-1.68a1.132,1.132,0,0,0-1.132,1.132V2.813a1.132,1.132,0,0,0,1.132,1.132h1.68a1.132,1.132,0,0,0,1.132-1.132V1.133A1.132,1.132,0,0,0,1283.366,0m.485,2.751a.546.546,0,0,1-.546.546h-1.559a.546.546,0,0,1-.546-.546V1.194a.546.546,0,0,1,.546-.546h1.559a.546.546,0,0,1,.546.546Z" transform="translate(-1270.677 -0.001)" fill="#355db7"/>
        <path id="Path_15857" data-name="Path 15857" d="M1436.731,155.082h-.642a.455.455,0,0,0-.454.455v.642a.455.455,0,0,0,.454.455h.642a.455.455,0,0,0,.455-.455v-.642a.455.455,0,0,0-.455-.455" transform="translate(-1424.561 -153.886)" fill="#355db7"/>
        <rect id="Rectangle_89" data-name="Rectangle 89" width="0.493" height="0.493" transform="translate(8.894 13.279)" fill="#355db7"/>
        <rect id="Rectangle_90" data-name="Rectangle 90" width="0.493" height="0.493" transform="translate(13.328 8.376)" fill="#355db7"/>
        <rect id="Rectangle_91" data-name="Rectangle 91" width="0.493" height="0.493" transform="translate(12.835 7.884)" fill="#355db7"/>
        <rect id="Rectangle_92" data-name="Rectangle 92" width="0.493" height="0.493" transform="translate(13.328 7.391)" fill="#355db7"/>
        <rect id="Rectangle_93" data-name="Rectangle 93" width="0.493" height="0.493" transform="translate(10.865 7.391)" fill="#355db7"/>
        <path id="Path_15858" data-name="Path 15858" d="M1217.453,958.73v-.493h-.493v.985h1.478v-.493h-.985Z" transform="translate(-1207.574 -950.847)" fill="#355db7"/>
        <rect id="Rectangle_94" data-name="Rectangle 94" width="0.542" height="0.493" transform="translate(6.405 7.859)" fill="#355db7"/>
        <path id="Path_15859" data-name="Path 15859" d="M1472.982,894.632v-.275h-.493v.493h.493Z" transform="translate(-1461.132 -887.459)" fill="#355db7"/>
        <rect id="Rectangle_95" data-name="Rectangle 95" width="0.493" height="0.493" transform="translate(4.484 13.279)" fill="#355db7"/>
        <rect id="Rectangle_96" data-name="Rectangle 96" width="0.493" height="0.493" transform="translate(5.469 13.279)" fill="#355db7"/>
        <rect id="Rectangle_97" data-name="Rectangle 97" width="0.493" height="0.493" transform="translate(6.43 13.279)" fill="#355db7"/>
        <rect id="Rectangle_98" data-name="Rectangle 98" width="0.493" height="0.493" transform="translate(13.328 9.854)" fill="#355db7"/>
        <rect id="Rectangle_99" data-name="Rectangle 99" width="0.493" height="0.493" transform="translate(12.835 10.347)" fill="#355db7"/>
        <path id="Path_15860" data-name="Path 15860" d="M1344.854,1278.142h.237a.128.128,0,0,0,.128-.128v-.237a.128.128,0,0,0-.128-.128h-.237a.128.128,0,0,0-.128.128v.237a.128.128,0,0,0,.128.128" transform="translate(-1334.354 -1267.795)" fill="#355db7"/>
        <path id="Path_15861" data-name="Path 15861" d="M156.178,1429.247h-.642a.455.455,0,0,0-.455.455v.642a.455.455,0,0,0,.455.455h.642a.455.455,0,0,0,.455-.455v-.642a.455.455,0,0,0-.455-.455" transform="translate(-153.885 -1418.224)" fill="#355db7"/>
        <path id="Path_15862" data-name="Path 15862" d="M390.176,702.708h-.493v.985h.493V703.2h.493v-.493Z" transform="translate(-386.677 -697.289)" fill="#355db7"/>
        <rect id="Rectangle_100" data-name="Rectangle 100" width="0.493" height="0.493" transform="translate(2.513 4.927)" fill="#355db7"/>
        <path id="Path_15863" data-name="Path 15863" d="M8.359,574.495v-.5H7.866v.5H7.373l0-.5L6.388,574v1.971h0v.493h.988v-.493h.983v-.493H7.373v.493H6.881v-.985H8.359v.493h.493v-.493H8.359Z" transform="translate(-6.339 -569.568)" fill="#355db7"/>
        <path id="Path_15864" data-name="Path 15864" d="M521.388,70.781h.476V70.3h.487v.481h.493V70.3h0V70.29h.49v.492h.985v-.493h-.984V69.8h-1.455V69.3h-.493v-.493H520.9v-.985h-.985v.493h-.493V69.3h-.493v-.493h-.493v-.985h.493v.493h.493v-.985h.493V66.84h-.517v-.493h.517v.493h.493v.493h.493v.493h.493V66.84h.985v-.985h-.493v-.493H520.9v-.493h.493v-.493h.985v.493h-.493v.493h.952V63.884H520.9v.493H520.4v1.478h-.985v-.493h-.493v.493h-.493v-.493h-.48V66.84h.48v-.493h.468v.493h-.468v.493h-.493V69.3h-.493V69.8h.493V69.3h.493V69.8h2.457v.96H520.4v.493h.985v-.468Zm.016-.767h.448v.274H521.4Zm-.506-4.159h.493v.493H520.9Zm0,3.449h-.985v-.493h.985Z" transform="translate(-513.457 -63.391)" fill="#355db7"/>
        <path id="Path_15865" data-name="Path 15865" d="M65.361,892.57h.493v-.489h.493v.489h.493v-.489h.985v.489h.985v.493h-.493v.493h.493v.493H69.8v-.985H69.3v-.493H69.8v-.493h-.977v-.49H65.85v.49h-.513v-.49h-.493v.3h0v.193h-.468v.493h-.493v1.478a.49.49,0,0,0,.49.49h.495v-.49h-.493v-.985h.493v.493h.493v-.985Z" transform="translate(-63.39 -884.711)" fill="#355db7"/>
        <rect id="Rectangle_101" data-name="Rectangle 101" width="0.493" height="0.493" transform="translate(0 7.366)" fill="#355db7"/>
        <path id="Path_15866" data-name="Path 15866" d="M3.449,1084.284H2.464v-.49h.985v-.985H2.464v.493H1.971v.983H1.29A1.292,1.292,0,0,0,0,1085.577v1.52a1.132,1.132,0,0,0,1.132,1.132H2.812a1.132,1.132,0,0,0,1.132-1.132v-2.812h0v-.49H3.449Zm-.152,2.752a.546.546,0,0,1-.546.546H1.193a.546.546,0,0,1-.546-.546v-1.559a.546.546,0,0,1,.546-.546H2.479a.818.818,0,0,1,.818.818Z" transform="translate(0 -1074.457)" fill="#355db7"/>
        <rect id="Rectangle_102" data-name="Rectangle 102" width="0.493" height="0.493" transform="translate(3.449 7.859)" fill="#355db7"/>
        <path id="Path_15867" data-name="Path 15867" d="M520.447,962.18h-.985v.493h-.985v-.493h.985v-.493h-.493v-1.478h.493v.493h.493v-.493h.493v-.493h-.493v-.493h-.493v-.493h.493v-.493h-.985v.985h-.493v.493h-1.971v.493h-.961v-.493h.493v-.493h-.493v-.517h-.493v1.01h-.493v-.493h-.493V960.7h.961v.493h.493V960.7h.985v1.478h-1.478v.493h-.493v.468h-.961v-.961h1.454v-.985h-.493v.493h-.468V960.7h-.493v.468h-.493v-.493h-.542v-.493h-.493v-.493h-.493V959.2h-.493v.985h.985v.493h-.407v1.478h.456v-.986h.493v.493h.985v.493H512.1v.493h-.456v.493h.456v.985h.493v-.493h1.454v.493h.985v-.468h.493v.468h.493v-.468h.493v-.493h-.493v.468h-.493v-.961h.985v.493H517v.493h.493v.493h-.3v.493h3.745v-.493h-.493v-.985h-.493v-.493h.493v.493h.493v-.985Zm-7.366.493v.468h-.493v-.493h.493Zm1.946.961h-.493v-.468h.493ZM517,961.194v-.986h1.478v1.478H517Zm2.956,2.956h-.493v-.493h-.493v.493h-.985v-.985h-.493v-.493H517v-.493h.985v.985h.493v.493h.493v-.493h.493v.493h.493Z" transform="translate(-507.119 -950.847)" fill="#355db7"/>
      </g>
    </g>
    <g id="svgexport-6_5_" data-name="svgexport-6 (5)" transform="translate(297.001 621.802)">
      <g id="Group_21736" data-name="Group 21736" transform="translate(0 0)">
        <path id="Path_19824" data-name="Path 19824" d="M20.793,15.273a.909.909,0,0,0-.921.923V18.5A1.4,1.4,0,0,1,18.49,19.89h-2.3a.909.909,0,0,0-.921.923.849.849,0,0,0,.921.923h2.3A3.223,3.223,0,0,0,21.715,18.5V16.2a.992.992,0,0,0-.921-.923Z" transform="translate(-1.445 -1.421)" fill="#355db7"/>
        <path id="Path_19825" data-name="Path 19825" d="M16.187,4.847h2.3a1.4,1.4,0,0,1,1.382,1.385V8.541a.91.91,0,0,0,.921.923.849.849,0,0,0,.921-.923V6.232A3.223,3.223,0,0,0,18.49,3h-2.3a.923.923,0,0,0,0,1.847Z" transform="translate(-1.445 -3)" fill="#355db7"/>
        <path id="Path_19826" data-name="Path 19826" d="M8.549,19.89h-2.3A1.4,1.4,0,0,1,4.863,18.5V16.2a.921.921,0,1,0-1.843,0V18.5a3.223,3.223,0,0,0,3.225,3.232h2.3a.923.923,0,0,0,0-1.847Z" transform="translate(-3.02 -1.421)" fill="#355db7"/>
        <path id="Path_19827" data-name="Path 19827" d="M3.942,9.464a.909.909,0,0,0,.921-.923V6.232A1.4,1.4,0,0,1,6.245,4.847h2.3A.923.923,0,0,0,8.549,3h-2.3A3.3,3.3,0,0,0,3.02,6.232V8.541a.992.992,0,0,0,.921.923Z" transform="translate(-3.02 -3)" fill="#355db7"/>
      </g>
    </g>
    <rect id="Rectangle_136" data-name="Rectangle 136" width="20" height="2" rx="1" transform="translate(297 630)" fill="#355db7"/>
  </g>
</svg>
