<svg id="fingerprint-fill" xmlns="http://www.w3.org/2000/svg" width="31.204" height="31.204" viewBox="0 0 31.204 31.204">
  <path id="Path_15895" data-name="Path 15895" d="M0,0H31.2V31.2H0Z" fill="none"/>
  <path id="Path_15896" data-name="Path 15896" d="M21.4,16.3v1.3a22.015,22.015,0,0,1-2.49,10.2l-.3.546-2.271-1.266a19.376,19.376,0,0,0,2.447-8.888L18.8,17.6V16.3Zm-7.8-3.9h2.6v5.2l-.007.493a16.826,16.826,0,0,1-3.5,9.815l-.3.377-2.015-1.643a14.229,14.229,0,0,0,3.213-8.566L13.6,17.6Zm1.3-5.2a6.5,6.5,0,0,1,6.5,6.5H18.8a3.9,3.9,0,1,0-7.8,0v3.9a11.666,11.666,0,0,1-2.953,7.771l-.276.3L5.885,23.878A9.061,9.061,0,0,0,8.388,18L8.4,17.6V13.7a6.5,6.5,0,0,1,6.5-6.5Zm0-5.2A11.7,11.7,0,0,1,26.6,13.7v3.9a27.362,27.362,0,0,1-.776,6.488l-.181.7-2.509-.684a24.669,24.669,0,0,0,.856-5.766L24,17.6V13.7A9.1,9.1,0,0,0,9.447,6.413L7.594,4.559A11.652,11.652,0,0,1,14.9,2ZM5.754,6.4,7.608,8.251A9.057,9.057,0,0,0,5.8,13.388L5.8,13.7,5.8,16.3a9.051,9.051,0,0,1-.991,4.131l-.2.377L2.349,19.52a6.437,6.437,0,0,0,.84-2.838L3.2,16.3V13.7A11.624,11.624,0,0,1,5.754,6.4Z" transform="translate(0.705 0.6)" fill="#fff"/>
</svg>
