<svg id="user-3-line" xmlns="http://www.w3.org/2000/svg" width="18" height="18" viewBox="0 0 18 18">
  <path id="Path_19877" data-name="Path 19877" d="M0,0H18V18H0Z" fill="none"/>
  <path id="Path_19878" data-name="Path 19878" d="M15.85,16.694H14.368V15.2a2.232,2.232,0,0,0-2.222-2.242H7.7A2.232,2.232,0,0,0,5.481,15.2v1.495H4V15.2a3.72,3.72,0,0,1,3.7-3.737h4.444a3.72,3.72,0,0,1,3.7,3.737ZM9.925,9.968a4.484,4.484,0,1,1,4.444-4.484A4.464,4.464,0,0,1,9.925,9.968Zm0-1.495A2.989,2.989,0,1,0,6.962,5.484,2.976,2.976,0,0,0,9.925,8.473Z" transform="translate(-0.925 -0.231)" fill="#b1bac1"/>
</svg>
